<svg width="229" height="52" viewBox="0 0 229 52" fill="none" xmlns="http://www.w3.org/2000/svg">
<g filter="url(#filter0_d_2_1833)">
<rect x="1" y="1" width="223" height="46" fill="#ED4D1B" stroke="black" stroke-width="2"/>
<path d="M29.7071 26.3711H32.1485C32.0703 27.3021 31.8099 28.1322 31.3672 28.8613C30.9245 29.584 30.3028 30.1536 29.502 30.5703C28.7012 30.987 27.7279 31.1953 26.5821 31.1953C25.7031 31.1953 24.9121 31.0391 24.209 30.7266C23.5059 30.4076 22.9037 29.9583 22.4024 29.3789C21.9011 28.793 21.5169 28.0866 21.25 27.2598C20.9896 26.4329 20.8594 25.5085 20.8594 24.4863V23.3047C20.8594 22.2826 20.9929 21.3581 21.2598 20.5312C21.5332 19.7044 21.9239 18.998 22.4317 18.4121C22.9395 17.8197 23.5482 17.3672 24.2578 17.0547C24.974 16.7422 25.778 16.5859 26.6699 16.5859C27.8028 16.5859 28.7598 16.7943 29.541 17.2109C30.3223 17.6276 30.9278 18.2038 31.3574 18.9395C31.7936 19.6751 32.0606 20.5182 32.1582 21.4688H29.7168C29.6517 20.8568 29.5085 20.3327 29.2871 19.8965C29.0723 19.4603 28.7533 19.1283 28.3301 18.9004C27.9069 18.666 27.3535 18.5488 26.6699 18.5488C26.11 18.5488 25.6218 18.653 25.2051 18.8613C24.7884 19.0697 24.4401 19.3757 24.1602 19.7793C23.8802 20.1829 23.6686 20.681 23.5254 21.2734C23.3887 21.8594 23.3203 22.5299 23.3203 23.2852V24.4863C23.3203 25.2025 23.3822 25.8535 23.5059 26.4395C23.6361 27.0189 23.8314 27.5169 24.0918 27.9336C24.3587 28.3503 24.6973 28.6725 25.1074 28.9004C25.5176 29.1283 26.0091 29.2422 26.5821 29.2422C27.2787 29.2422 27.8418 29.1315 28.2715 28.9102C28.7077 28.6888 29.0365 28.3665 29.2578 27.9434C29.4857 27.5137 29.6354 26.9896 29.7071 26.3711ZM45.7129 23.5V24.2812C45.7129 25.3555 45.5729 26.319 45.293 27.1719C45.013 28.0247 44.6127 28.7507 44.0918 29.3496C43.5775 29.9486 42.959 30.4076 42.2364 30.7266C41.5137 31.0391 40.7129 31.1953 39.834 31.1953C38.9616 31.1953 38.1641 31.0391 37.4414 30.7266C36.7253 30.4076 36.1035 29.9486 35.5762 29.3496C35.0489 28.7507 34.6387 28.0247 34.3457 27.1719C34.0593 26.319 33.916 25.3555 33.916 24.2812V23.5C33.916 22.4258 34.0593 21.4655 34.3457 20.6191C34.6322 19.7663 35.0358 19.0404 35.5567 18.4414C36.084 17.8359 36.7058 17.377 37.4219 17.0645C38.1446 16.7454 38.9421 16.5859 39.8145 16.5859C40.6934 16.5859 41.4942 16.7454 42.2168 17.0645C42.9395 17.377 43.5612 17.8359 44.0821 18.4414C44.6029 19.0404 45.0033 19.7663 45.2832 20.6191C45.5697 21.4655 45.7129 22.4258 45.7129 23.5ZM43.2617 24.2812V23.4805C43.2617 22.6862 43.1836 21.9863 43.0274 21.3809C42.8776 20.7689 42.653 20.2578 42.3535 19.8477C42.0606 19.431 41.6992 19.1185 41.2696 18.9102C40.8399 18.6953 40.3548 18.5879 39.8145 18.5879C39.2741 18.5879 38.7923 18.6953 38.3692 18.9102C37.946 19.1185 37.5847 19.431 37.2852 19.8477C36.9922 20.2578 36.7676 20.7689 36.6114 21.3809C36.4551 21.9863 36.377 22.6862 36.377 23.4805V24.2812C36.377 25.0755 36.4551 25.7786 36.6114 26.3906C36.7676 27.0026 36.9955 27.5202 37.2949 27.9434C37.6009 28.36 37.9655 28.6758 38.3887 28.8906C38.8119 29.099 39.2936 29.2031 39.834 29.2031C40.3809 29.2031 40.8659 29.099 41.2891 28.8906C41.7123 28.6758 42.0703 28.36 42.3633 27.9434C42.6563 27.5202 42.8776 27.0026 43.0274 26.3906C43.1836 25.7786 43.2617 25.0755 43.2617 24.2812ZM59.4434 16.7812V31H56.9922L50.6153 20.8145V31H48.1641V16.7812H50.6153L57.0117 26.9863V16.7812H59.4434ZM71.7578 22.7188V24.6621H64.209V22.7188H71.7578ZM64.8145 16.7812V31H62.3633V16.7812H64.8145ZM73.6426 16.7812V31H71.2012V16.7812H73.6426ZM85.8692 29.0566V31H78.3203V29.0566H85.8692ZM79.0137 16.7812V31H76.5625V16.7812H79.0137ZM84.8828 22.7188V24.6328H78.3203V22.7188H84.8828ZM85.8203 16.7812V18.7344H78.3203V16.7812H85.8203ZM96.2696 26.3711H98.711C98.6328 27.3021 98.3724 28.1322 97.9297 28.8613C97.487 29.584 96.8653 30.1536 96.0645 30.5703C95.2637 30.987 94.2904 31.1953 93.1446 31.1953C92.2656 31.1953 91.4746 31.0391 90.7715 30.7266C90.0684 30.4076 89.4662 29.9583 88.9649 29.3789C88.4636 28.793 88.0794 28.0866 87.8125 27.2598C87.5521 26.4329 87.4219 25.5085 87.4219 24.4863V23.3047C87.4219 22.2826 87.5554 21.3581 87.8223 20.5312C88.0957 19.7044 88.4864 18.998 88.9942 18.4121C89.502 17.8197 90.1107 17.3672 90.8203 17.0547C91.5365 16.7422 92.3405 16.5859 93.2324 16.5859C94.3653 16.5859 95.3223 16.7943 96.1035 17.2109C96.8848 17.6276 97.4903 18.2038 97.9199 18.9395C98.3561 19.6751 98.6231 20.5182 98.7207 21.4688H96.2793C96.2142 20.8568 96.071 20.3327 95.8496 19.8965C95.6348 19.4603 95.3158 19.1283 94.8926 18.9004C94.4694 18.666 93.916 18.5488 93.2324 18.5488C92.6725 18.5488 92.1843 18.653 91.7676 18.8613C91.3509 19.0697 91.0026 19.3757 90.7227 19.7793C90.4427 20.1829 90.2311 20.681 90.0879 21.2734C89.9512 21.8594 89.8828 22.5299 89.8828 23.2852V24.4863C89.8828 25.2025 89.9447 25.8535 90.0684 26.4395C90.1986 27.0189 90.3939 27.5169 90.6543 27.9336C90.9212 28.3503 91.2598 28.6725 91.6699 28.9004C92.0801 29.1283 92.5716 29.2422 93.1446 29.2422C93.8412 29.2422 94.4043 29.1315 94.834 28.9102C95.2702 28.6888 95.599 28.3665 95.8203 27.9434C96.0482 27.5137 96.1979 26.9896 96.2696 26.3711ZM110.244 29.0566V31H102.695V29.0566H110.244ZM103.389 16.7812V31H100.938V16.7812H103.389ZM109.258 22.7188V24.6328H102.695V22.7188H109.258ZM110.195 16.7812V18.7344H102.695V16.7812H110.195ZM112.246 16.7812H117.275C118.356 16.7812 119.277 16.944 120.039 17.2695C120.801 17.5951 121.383 18.0768 121.787 18.7148C122.197 19.3464 122.402 20.1276 122.402 21.0586C122.402 21.7682 122.272 22.3932 122.012 22.9336C121.751 23.474 121.383 23.9297 120.908 24.3008C120.433 24.6654 119.867 24.9486 119.209 25.1504L118.467 25.5117H113.945L113.926 23.5684H117.314C117.9 23.5684 118.389 23.4642 118.779 23.2559C119.17 23.0475 119.463 22.7643 119.658 22.4062C119.86 22.0417 119.961 21.6315 119.961 21.1758C119.961 20.681 119.863 20.2513 119.668 19.8867C119.479 19.5156 119.186 19.2324 118.789 19.0371C118.392 18.8353 117.887 18.7344 117.275 18.7344H114.697V31H112.246V16.7812ZM120.361 31L117.022 24.6133L119.59 24.6035L122.979 30.873V31H120.361ZM138.223 26.3711H140.664C140.586 27.3021 140.326 28.1322 139.883 28.8613C139.44 29.584 138.818 30.1536 138.018 30.5703C137.217 30.987 136.244 31.1953 135.098 31.1953C134.219 31.1953 133.428 31.0391 132.725 30.7266C132.022 30.4076 131.419 29.9583 130.918 29.3789C130.417 28.793 130.033 28.0866 129.766 27.2598C129.505 26.4329 129.375 25.5085 129.375 24.4863V23.3047C129.375 22.2826 129.508 21.3581 129.775 20.5312C130.049 19.7044 130.439 18.998 130.947 18.4121C131.455 17.8197 132.064 17.3672 132.773 17.0547C133.49 16.7422 134.294 16.5859 135.186 16.5859C136.318 16.5859 137.275 16.7943 138.057 17.2109C138.838 17.6276 139.443 18.2038 139.873 18.9395C140.309 19.6751 140.576 20.5182 140.674 21.4688H138.232C138.167 20.8568 138.024 20.3327 137.803 19.8965C137.588 19.4603 137.269 19.1283 136.846 18.9004C136.423 18.666 135.869 18.5488 135.186 18.5488C134.626 18.5488 134.137 18.653 133.721 18.8613C133.304 19.0697 132.956 19.3757 132.676 19.7793C132.396 20.1829 132.184 20.681 132.041 21.2734C131.904 21.8594 131.836 22.5299 131.836 23.2852V24.4863C131.836 25.2025 131.898 25.8535 132.022 26.4395C132.152 27.0189 132.347 27.5169 132.607 27.9336C132.874 28.3503 133.213 28.6725 133.623 28.9004C134.033 29.1283 134.525 29.2422 135.098 29.2422C135.794 29.2422 136.357 29.1315 136.787 28.9102C137.223 28.6888 137.552 28.3665 137.773 27.9434C138.001 27.5137 138.151 26.9896 138.223 26.3711ZM150.869 16.7812H153.311V26.2832C153.311 27.3639 153.076 28.2689 152.607 28.998C152.139 29.7272 151.501 30.2773 150.693 30.6484C149.893 31.013 148.997 31.1953 148.008 31.1953C146.986 31.1953 146.074 31.013 145.273 30.6484C144.473 30.2773 143.841 29.7272 143.379 28.998C142.923 28.2689 142.695 27.3639 142.695 26.2832V16.7812H145.137V26.2832C145.137 26.9668 145.254 27.5299 145.488 27.9727C145.723 28.4089 146.055 28.7311 146.484 28.9395C146.914 29.1478 147.422 29.252 148.008 29.252C148.594 29.252 149.098 29.1478 149.522 28.9395C149.951 28.7311 150.283 28.4089 150.518 27.9727C150.752 27.5299 150.869 26.9668 150.869 26.2832V16.7812ZM155.977 16.7812H161.006C162.087 16.7812 163.008 16.944 163.77 17.2695C164.531 17.5951 165.114 18.0768 165.518 18.7148C165.928 19.3464 166.133 20.1276 166.133 21.0586C166.133 21.7682 166.003 22.3932 165.742 22.9336C165.482 23.474 165.114 23.9297 164.639 24.3008C164.163 24.6654 163.597 24.9486 162.939 25.1504L162.197 25.5117H157.676L157.656 23.5684H161.045C161.631 23.5684 162.119 23.4642 162.51 23.2559C162.9 23.0475 163.193 22.7643 163.389 22.4062C163.591 22.0417 163.691 21.6315 163.691 21.1758C163.691 20.681 163.594 20.2513 163.398 19.8867C163.21 19.5156 162.917 19.2324 162.52 19.0371C162.122 18.8353 161.618 18.7344 161.006 18.7344H158.428V31H155.977V16.7812ZM164.092 31L160.752 24.6133L163.32 24.6035L166.709 30.873V31H164.092ZM176.055 27.3379C176.055 27.0449 176.009 26.7845 175.918 26.5566C175.833 26.3288 175.68 26.1204 175.459 25.9316C175.238 25.7428 174.925 25.5605 174.522 25.3848C174.124 25.2025 173.617 25.0169 172.998 24.8281C172.321 24.6198 171.696 24.3887 171.123 24.1348C170.557 23.8743 170.062 23.5749 169.639 23.2363C169.216 22.8913 168.887 22.4974 168.652 22.0547C168.418 21.6055 168.301 21.0879 168.301 20.502C168.301 19.9225 168.421 19.3952 168.662 18.9199C168.91 18.4447 169.258 18.0345 169.707 17.6895C170.163 17.3379 170.7 17.0677 171.318 16.8789C171.937 16.6836 172.62 16.5859 173.369 16.5859C174.424 16.5859 175.332 16.7812 176.094 17.1719C176.862 17.5625 177.451 18.0866 177.861 18.7441C178.278 19.4017 178.486 20.1276 178.486 20.9219H176.055C176.055 20.4531 175.954 20.0397 175.752 19.6816C175.557 19.3171 175.257 19.0306 174.854 18.8223C174.456 18.6139 173.952 18.5098 173.34 18.5098C172.76 18.5098 172.279 18.5977 171.895 18.7734C171.51 18.9492 171.224 19.1868 171.035 19.4863C170.846 19.7858 170.752 20.1243 170.752 20.502C170.752 20.7689 170.814 21.013 170.938 21.2344C171.061 21.4492 171.25 21.651 171.504 21.8398C171.758 22.0221 172.077 22.1947 172.461 22.3574C172.845 22.5202 173.298 22.6764 173.818 22.8262C174.606 23.0605 175.293 23.321 175.879 23.6074C176.465 23.8874 176.953 24.2064 177.344 24.5645C177.734 24.9225 178.027 25.3294 178.223 25.7852C178.418 26.2344 178.516 26.7454 178.516 27.3184C178.516 27.9173 178.395 28.4577 178.154 28.9395C177.913 29.4147 177.568 29.8216 177.119 30.1602C176.676 30.4922 176.143 30.7493 175.518 30.9316C174.899 31.1074 174.209 31.1953 173.447 31.1953C172.764 31.1953 172.09 31.1042 171.426 30.9219C170.768 30.7396 170.169 30.4629 169.629 30.0918C169.089 29.7142 168.659 29.2454 168.34 28.6855C168.021 28.1191 167.861 27.4583 167.861 26.7031H170.313C170.313 27.1654 170.391 27.5592 170.547 27.8848C170.71 28.2103 170.934 28.4772 171.221 28.6855C171.507 28.8874 171.839 29.0371 172.217 29.1348C172.601 29.2324 173.011 29.2812 173.447 29.2812C174.02 29.2812 174.499 29.1999 174.883 29.0371C175.273 28.8743 175.566 28.6465 175.762 28.3535C175.957 28.0605 176.055 27.722 176.055 27.3379ZM192.022 23.5V24.2812C192.022 25.3555 191.882 26.319 191.602 27.1719C191.322 28.0247 190.921 28.7507 190.4 29.3496C189.886 29.9486 189.268 30.4076 188.545 30.7266C187.822 31.0391 187.022 31.1953 186.143 31.1953C185.27 31.1953 184.473 31.0391 183.75 30.7266C183.034 30.4076 182.412 29.9486 181.885 29.3496C181.357 28.7507 180.947 28.0247 180.654 27.1719C180.368 26.319 180.225 25.3555 180.225 24.2812V23.5C180.225 22.4258 180.368 21.4655 180.654 20.6191C180.941 19.7663 181.344 19.0404 181.865 18.4414C182.393 17.8359 183.014 17.377 183.73 17.0645C184.453 16.7454 185.251 16.5859 186.123 16.5859C187.002 16.5859 187.803 16.7454 188.525 17.0645C189.248 17.377 189.87 17.8359 190.391 18.4414C190.911 19.0404 191.312 19.7663 191.592 20.6191C191.878 21.4655 192.022 22.4258 192.022 23.5ZM189.57 24.2812V23.4805C189.57 22.6862 189.492 21.9863 189.336 21.3809C189.186 20.7689 188.962 20.2578 188.662 19.8477C188.369 19.431 188.008 19.1185 187.578 18.9102C187.148 18.6953 186.663 18.5879 186.123 18.5879C185.583 18.5879 185.101 18.6953 184.678 18.9102C184.255 19.1185 183.893 19.431 183.594 19.8477C183.301 20.2578 183.076 20.7689 182.92 21.3809C182.764 21.9863 182.686 22.6862 182.686 23.4805V24.2812C182.686 25.0755 182.764 25.7786 182.92 26.3906C183.076 27.0026 183.304 27.5202 183.604 27.9434C183.91 28.36 184.274 28.6758 184.697 28.8906C185.12 29.099 185.602 29.2031 186.143 29.2031C186.689 29.2031 187.175 29.099 187.598 28.8906C188.021 28.6758 188.379 28.36 188.672 27.9434C188.965 27.5202 189.186 27.0026 189.336 26.3906C189.492 25.7786 189.57 25.0755 189.57 24.2812ZM201.953 27.3379C201.953 27.0449 201.908 26.7845 201.816 26.5566C201.732 26.3288 201.579 26.1204 201.357 25.9316C201.136 25.7428 200.824 25.5605 200.42 25.3848C200.023 25.2025 199.515 25.0169 198.897 24.8281C198.219 24.6198 197.594 24.3887 197.022 24.1348C196.455 23.8743 195.96 23.5749 195.537 23.2363C195.114 22.8913 194.785 22.4974 194.551 22.0547C194.316 21.6055 194.199 21.0879 194.199 20.502C194.199 19.9225 194.32 19.3952 194.561 18.9199C194.808 18.4447 195.156 18.0345 195.605 17.6895C196.061 17.3379 196.598 17.0677 197.217 16.8789C197.835 16.6836 198.519 16.5859 199.268 16.5859C200.322 16.5859 201.23 16.7812 201.992 17.1719C202.76 17.5625 203.35 18.0866 203.76 18.7441C204.176 19.4017 204.385 20.1276 204.385 20.9219H201.953C201.953 20.4531 201.852 20.0397 201.65 19.6816C201.455 19.3171 201.156 19.0306 200.752 18.8223C200.355 18.6139 199.85 18.5098 199.238 18.5098C198.659 18.5098 198.177 18.5977 197.793 18.7734C197.409 18.9492 197.122 19.1868 196.934 19.4863C196.745 19.7858 196.65 20.1243 196.65 20.502C196.65 20.7689 196.712 21.013 196.836 21.2344C196.96 21.4492 197.148 21.651 197.402 21.8398C197.656 22.0221 197.975 22.1947 198.359 22.3574C198.744 22.5202 199.196 22.6764 199.717 22.8262C200.505 23.0605 201.191 23.321 201.777 23.6074C202.363 23.8874 202.852 24.2064 203.242 24.5645C203.633 24.9225 203.926 25.3294 204.121 25.7852C204.316 26.2344 204.414 26.7454 204.414 27.3184C204.414 27.9173 204.294 28.4577 204.053 28.9395C203.812 29.4147 203.467 29.8216 203.018 30.1602C202.575 30.4922 202.041 30.7493 201.416 30.9316C200.798 31.1074 200.107 31.1953 199.346 31.1953C198.662 31.1953 197.988 31.1042 197.324 30.9219C196.667 30.7396 196.068 30.4629 195.527 30.0918C194.987 29.7142 194.557 29.2454 194.238 28.6855C193.919 28.1191 193.76 27.4583 193.76 26.7031H196.211C196.211 27.1654 196.289 27.5592 196.445 27.8848C196.608 28.2103 196.833 28.4772 197.119 28.6855C197.406 28.8874 197.738 29.0371 198.115 29.1348C198.499 29.2324 198.91 29.2812 199.346 29.2812C199.919 29.2812 200.397 29.1999 200.781 29.0371C201.172 28.8743 201.465 28.6465 201.66 28.3535C201.855 28.0605 201.953 27.722 201.953 27.3379Z" fill="black"/>
</g>
<defs>
<filter id="filter0_d_2_1833" x="0" y="0" width="229" height="52" filterUnits="userSpaceOnUse" color-interpolation-filters="sRGB">
<feFlood flood-opacity="0" result="BackgroundImageFix"/>
<feColorMatrix in="SourceAlpha" type="matrix" values="0 0 0 0 0 0 0 0 0 0 0 0 0 0 0 0 0 0 127 0" result="hardAlpha"/>
<feOffset dx="4" dy="4"/>
<feComposite in2="hardAlpha" operator="out"/>
<feColorMatrix type="matrix" values="0 0 0 0 0.117647 0 0 0 0 0.117647 0 0 0 0 0.117647 0 0 0 1 0"/>
<feBlend mode="normal" in2="BackgroundImageFix" result="effect1_dropShadow_2_1833"/>
<feBlend mode="normal" in="SourceGraphic" in2="effect1_dropShadow_2_1833" result="shape"/>
</filter>
</defs>
</svg>
