<svg width="444" height="49" viewBox="0 0 444 49" fill="none" xmlns="http://www.w3.org/2000/svg">
<path d="M31.9375 39.5625V48H7.6875V39.5625H31.9375ZM11.5938 2.5V48H0.625V2.5H11.5938ZM28.8125 20.5625V28.7188H7.6875V20.5625H28.8125ZM32.0312 2.5V10.9688H7.6875V2.5H32.0312ZM243.75 31.4375V30.7812C243.75 28.3021 244.104 26.0208 244.812 23.9375C245.521 21.8333 246.562 20.0104 247.938 18.4688C249.312 16.9271 251.01 15.7292 253.031 14.875C255.052 14 257.385 13.5625 260.031 13.5625C262.698 13.5625 265.042 14 267.062 14.875C269.104 15.7292 270.812 16.9271 272.188 18.4688C273.562 20.0104 274.604 21.8333 275.312 23.9375C276.021 26.0208 276.375 28.3021 276.375 30.7812V31.4375C276.375 33.8958 276.021 36.1771 275.312 38.2812C274.604 40.3646 273.562 42.1875 272.188 43.75C270.812 45.2917 269.115 46.4896 267.094 47.3438C265.073 48.1979 262.74 48.625 260.094 48.625C257.448 48.625 255.104 48.1979 253.062 47.3438C251.021 46.4896 249.312 45.2917 247.938 43.75C246.562 42.1875 245.521 40.3646 244.812 38.2812C244.104 36.1771 243.75 33.8958 243.75 31.4375ZM254.281 30.7812V31.4375C254.281 32.7083 254.375 33.8958 254.562 35C254.75 36.1042 255.062 37.0729 255.5 37.9062C255.938 38.7188 256.531 39.3542 257.281 39.8125C258.031 40.2708 258.969 40.5 260.094 40.5C261.198 40.5 262.115 40.2708 262.844 39.8125C263.594 39.3542 264.188 38.7188 264.625 37.9062C265.062 37.0729 265.375 36.1042 265.562 35C265.75 33.8958 265.844 32.7083 265.844 31.4375V30.7812C265.844 29.5521 265.75 28.3958 265.562 27.3125C265.375 26.2083 265.062 25.2396 264.625 24.4062C264.188 23.5521 263.594 22.8854 262.844 22.4062C262.094 21.9271 261.156 21.6875 260.031 21.6875C258.927 21.6875 258 21.9271 257.25 22.4062C256.521 22.8854 255.938 23.5521 255.5 24.4062C255.062 25.2396 254.75 26.2083 254.562 27.3125C254.375 28.3958 254.281 29.5521 254.281 30.7812ZM300.812 39.7812V14.1875H311.375V48H301.5L300.812 39.7812ZM301.812 32.9062L304.562 32.8438C304.562 35.1146 304.292 37.2188 303.75 39.1562C303.208 41.0729 302.406 42.7396 301.344 44.1562C300.302 45.5729 299.01 46.6771 297.469 47.4688C295.948 48.2396 294.188 48.625 292.188 48.625C290.521 48.625 288.99 48.3958 287.594 47.9375C286.219 47.4583 285.031 46.7188 284.031 45.7188C283.031 44.6979 282.25 43.3958 281.688 41.8125C281.146 40.2083 280.875 38.2917 280.875 36.0625V14.1875H291.406V36.125C291.406 36.875 291.5 37.5208 291.688 38.0625C291.875 38.6042 292.146 39.0625 292.5 39.4375C292.854 39.7917 293.292 40.0625 293.812 40.25C294.354 40.4167 294.969 40.5 295.656 40.5C297.24 40.5 298.479 40.1667 299.375 39.5C300.271 38.8333 300.896 37.9271 301.25 36.7812C301.625 35.6354 301.812 34.3438 301.812 32.9062ZM335 14.1875V21.5H314.625V14.1875H335ZM318.906 5.78125H329.438V36.9688C329.438 37.8646 329.542 38.5625 329.75 39.0625C329.958 39.5417 330.312 39.8854 330.812 40.0938C331.333 40.2812 332.021 40.375 332.875 40.375C333.479 40.375 333.979 40.3646 334.375 40.3438C334.771 40.3021 335.146 40.25 335.5 40.1875V47.7188C334.604 48.0104 333.667 48.2292 332.688 48.375C331.708 48.5417 330.667 48.625 329.562 48.625C327.312 48.625 325.385 48.2708 323.781 47.5625C322.198 46.8542 320.99 45.7396 320.156 44.2188C319.323 42.6979 318.906 40.7188 318.906 38.2812V5.78125ZM349.812 22.5625V48H339.281V14.1875H349.125L349.812 22.5625ZM359.812 13.9375L359.625 23.7188C359.208 23.6771 358.646 23.625 357.938 23.5625C357.229 23.5 356.635 23.4688 356.156 23.4688C354.927 23.4688 353.865 23.6146 352.969 23.9062C352.094 24.1771 351.365 24.5938 350.781 25.1562C350.219 25.6979 349.802 26.3854 349.531 27.2188C349.281 28.0521 349.167 29.0208 349.188 30.125L347.281 28.875C347.281 26.6042 347.5 24.5417 347.938 22.6875C348.396 20.8125 349.042 19.1979 349.875 17.8438C350.708 16.4688 351.719 15.4167 352.906 14.6875C354.094 13.9375 355.427 13.5625 356.906 13.5625C357.427 13.5625 357.938 13.5938 358.438 13.6562C358.958 13.7188 359.417 13.8125 359.812 13.9375ZM361 31.4375V30.7812C361 28.3021 361.354 26.0208 362.062 23.9375C362.771 21.8333 363.812 20.0104 365.188 18.4688C366.562 16.9271 368.26 15.7292 370.281 14.875C372.302 14 374.635 13.5625 377.281 13.5625C379.948 13.5625 382.292 14 384.312 14.875C386.354 15.7292 388.062 16.9271 389.438 18.4688C390.812 20.0104 391.854 21.8333 392.562 23.9375C393.271 26.0208 393.625 28.3021 393.625 30.7812V31.4375C393.625 33.8958 393.271 36.1771 392.562 38.2812C391.854 40.3646 390.812 42.1875 389.438 43.75C388.062 45.2917 386.365 46.4896 384.344 47.3438C382.323 48.1979 379.99 48.625 377.344 48.625C374.698 48.625 372.354 48.1979 370.312 47.3438C368.271 46.4896 366.562 45.2917 365.188 43.75C363.812 42.1875 362.771 40.3646 362.062 38.2812C361.354 36.1771 361 33.8958 361 31.4375ZM371.531 30.7812V31.4375C371.531 32.7083 371.625 33.8958 371.812 35C372 36.1042 372.312 37.0729 372.75 37.9062C373.188 38.7188 373.781 39.3542 374.531 39.8125C375.281 40.2708 376.219 40.5 377.344 40.5C378.448 40.5 379.365 40.2708 380.094 39.8125C380.844 39.3542 381.438 38.7188 381.875 37.9062C382.312 37.0729 382.625 36.1042 382.812 35C383 33.8958 383.094 32.7083 383.094 31.4375V30.7812C383.094 29.5521 383 28.3958 382.812 27.3125C382.625 26.2083 382.312 25.2396 381.875 24.4062C381.438 23.5521 380.844 22.8854 380.094 22.4062C379.344 21.9271 378.406 21.6875 377.281 21.6875C376.177 21.6875 375.25 21.9271 374.5 22.4062C373.771 22.8854 373.188 23.5521 372.75 24.4062C372.312 25.2396 372 26.2083 371.812 27.3125C371.625 28.3958 371.531 29.5521 371.531 30.7812ZM416.031 38.5C416.031 37.9167 415.833 37.4167 415.438 37C415.062 36.5625 414.396 36.1667 413.438 35.8125C412.479 35.4375 411.135 35.0625 409.406 34.6875C407.76 34.3333 406.208 33.8646 404.75 33.2812C403.312 32.6979 402.052 31.9896 400.969 31.1562C399.885 30.3229 399.031 29.3333 398.406 28.1875C397.802 27.0417 397.5 25.7292 397.5 24.25C397.5 22.8125 397.802 21.4583 398.406 20.1875C399.031 18.8958 399.938 17.7604 401.125 16.7812C402.333 15.7812 403.802 15 405.531 14.4375C407.26 13.8542 409.229 13.5625 411.438 13.5625C414.479 13.5625 417.104 14.0312 419.312 14.9688C421.521 15.8854 423.219 17.1771 424.406 18.8438C425.615 20.4896 426.219 22.3958 426.219 24.5625H415.688C415.688 23.7083 415.542 22.9792 415.25 22.375C414.979 21.7708 414.531 21.3125 413.906 21C413.281 20.6667 412.448 20.5 411.406 20.5C410.677 20.5 410.01 20.6354 409.406 20.9062C408.823 21.1771 408.354 21.5521 408 22.0312C407.646 22.5104 407.469 23.0729 407.469 23.7188C407.469 24.1771 407.573 24.5938 407.781 24.9688C408.01 25.3229 408.354 25.6562 408.812 25.9688C409.271 26.2604 409.854 26.5312 410.562 26.7812C411.271 27.0104 412.125 27.2188 413.125 27.4062C415.396 27.8229 417.521 28.4167 419.5 29.1875C421.479 29.9583 423.083 31.0521 424.312 32.4688C425.562 33.8854 426.188 35.7917 426.188 38.1875C426.188 39.6875 425.844 41.0729 425.156 42.3438C424.469 43.5938 423.479 44.6979 422.188 45.6562C420.896 46.5938 419.344 47.3229 417.531 47.8438C415.719 48.3646 413.677 48.625 411.406 48.625C408.177 48.625 405.448 48.0521 403.219 46.9062C400.99 45.7396 399.302 44.2812 398.156 42.5312C397.031 40.7604 396.469 38.9688 396.469 37.1562H406.281C406.323 38.1979 406.573 39.0521 407.031 39.7188C407.51 40.3854 408.146 40.875 408.938 41.1875C409.729 41.5 410.646 41.6562 411.688 41.6562C412.646 41.6562 413.438 41.5208 414.062 41.25C414.708 40.9792 415.198 40.6146 415.531 40.1562C415.865 39.6771 416.031 39.125 416.031 38.5ZM442.938 2.5L441.594 33.5938H433.031L431.688 2.5H442.938ZM431.406 43.2812C431.406 41.7812 431.948 40.5312 433.031 39.5312C434.115 38.5104 435.521 38 437.25 38C438.979 38 440.375 38.5104 441.438 39.5312C442.521 40.5312 443.062 41.7812 443.062 43.2812C443.062 44.7812 442.521 46.0417 441.438 47.0625C440.375 48.0625 438.979 48.5625 437.25 48.5625C435.521 48.5625 434.115 48.0625 433.031 47.0625C431.948 46.0417 431.406 44.7812 431.406 43.2812Z" fill="black"/>
<path d="M64.0625 40.7812L70.7188 14.1875H81.8125L70.75 48H64.1875L64.0625 40.7812ZM60.125 14.1875L66.6875 40.7812L66.625 48H60.0312L49 14.1875H60.125ZM102 39.5V25.5625C102 24.6042 101.865 23.7812 101.594 23.0938C101.323 22.4062 100.896 21.875 100.312 21.5C99.7292 21.1042 98.9479 20.9062 97.9688 20.9062C97.1771 20.9062 96.5 21.0417 95.9375 21.3125C95.375 21.5833 94.9479 21.9896 94.6562 22.5312C94.3646 23.0729 94.2188 23.7604 94.2188 24.5938H83.6875C83.6875 23.0312 84.0312 21.5833 84.7188 20.25C85.4271 18.8958 86.4271 17.7188 87.7188 16.7188C89.0312 15.7188 90.5938 14.9479 92.4062 14.4062C94.2396 13.8438 96.2812 13.5625 98.5312 13.5625C101.219 13.5625 103.615 14.0104 105.719 14.9062C107.844 15.8021 109.521 17.1458 110.75 18.9375C111.979 20.7083 112.594 22.9375 112.594 25.625V39.4688C112.594 41.6771 112.719 43.3542 112.969 44.5C113.219 45.625 113.573 46.6146 114.031 47.4688V48H103.469C102.969 46.9583 102.594 45.6875 102.344 44.1875C102.115 42.6667 102 41.1042 102 39.5ZM103.281 27.3438L103.344 32.9688H98.6875C97.7083 32.9688 96.875 33.1042 96.1875 33.375C95.5208 33.6458 94.9792 34.0208 94.5625 34.5C94.1667 34.9583 93.875 35.4792 93.6875 36.0625C93.5208 36.6458 93.4375 37.2604 93.4375 37.9062C93.4375 38.5312 93.5833 39.0938 93.875 39.5938C94.1875 40.0729 94.6042 40.4479 95.125 40.7188C95.6458 40.9896 96.2292 41.125 96.875 41.125C98.0417 41.125 99.0312 40.9062 99.8438 40.4688C100.677 40.0104 101.312 39.4583 101.75 38.8125C102.188 38.1667 102.406 37.5625 102.406 37L104.719 41.3125C104.302 42.1458 103.823 42.9896 103.281 43.8438C102.76 44.6979 102.104 45.4896 101.312 46.2188C100.542 46.9271 99.5938 47.5104 98.4688 47.9688C97.3438 48.4062 95.9792 48.625 94.375 48.625C92.2917 48.625 90.375 48.1979 88.625 47.3438C86.8958 46.4896 85.5104 45.3021 84.4688 43.7812C83.4271 42.2396 82.9062 40.4688 82.9062 38.4688C82.9062 36.7188 83.2188 35.1562 83.8438 33.7812C84.4896 32.4062 85.4583 31.2396 86.75 30.2812C88.0417 29.3229 89.6875 28.5938 91.6875 28.0938C93.6875 27.5938 96.0417 27.3438 98.75 27.3438H103.281ZM93.375 9.8125L99.5625 0H110.688L101.969 9.8125H93.375ZM129.062 22.5625V48H118.531V14.1875H128.375L129.062 22.5625ZM139.062 13.9375L138.875 23.7188C138.458 23.6771 137.896 23.625 137.188 23.5625C136.479 23.5 135.885 23.4688 135.406 23.4688C134.177 23.4688 133.115 23.6146 132.219 23.9062C131.344 24.1771 130.615 24.5938 130.031 25.1562C129.469 25.6979 129.052 26.3854 128.781 27.2188C128.531 28.0521 128.417 29.0208 128.438 30.125L126.531 28.875C126.531 26.6042 126.75 24.5417 127.188 22.6875C127.646 20.8125 128.292 19.1979 129.125 17.8438C129.958 16.4688 130.969 15.4167 132.156 14.6875C133.344 13.9375 134.677 13.5625 136.156 13.5625C136.677 13.5625 137.188 13.5938 137.688 13.6562C138.208 13.7188 138.667 13.8125 139.062 13.9375ZM153.812 14.1875V48H143.25V14.1875H153.812ZM142.625 5.46875C142.625 3.96875 143.167 2.73958 144.25 1.78125C145.333 0.822917 146.74 0.34375 148.469 0.34375C150.198 0.34375 151.604 0.822917 152.688 1.78125C153.771 2.73958 154.312 3.96875 154.312 5.46875C154.312 6.96875 153.771 8.19792 152.688 9.15625C151.604 10.1146 150.198 10.5938 148.469 10.5938C146.74 10.5938 145.333 10.1146 144.25 9.15625C143.167 8.19792 142.625 6.96875 142.625 5.46875ZM159 31.4375V30.7812C159 28.3021 159.354 26.0208 160.062 23.9375C160.771 21.8333 161.812 20.0104 163.188 18.4688C164.562 16.9271 166.26 15.7292 168.281 14.875C170.302 14 172.635 13.5625 175.281 13.5625C177.948 13.5625 180.292 14 182.312 14.875C184.354 15.7292 186.062 16.9271 187.438 18.4688C188.812 20.0104 189.854 21.8333 190.562 23.9375C191.271 26.0208 191.625 28.3021 191.625 30.7812V31.4375C191.625 33.8958 191.271 36.1771 190.562 38.2812C189.854 40.3646 188.812 42.1875 187.438 43.75C186.062 45.2917 184.365 46.4896 182.344 47.3438C180.323 48.1979 177.99 48.625 175.344 48.625C172.698 48.625 170.354 48.1979 168.312 47.3438C166.271 46.4896 164.562 45.2917 163.188 43.75C161.812 42.1875 160.771 40.3646 160.062 38.2812C159.354 36.1771 159 33.8958 159 31.4375ZM169.531 30.7812V31.4375C169.531 32.7083 169.625 33.8958 169.812 35C170 36.1042 170.312 37.0729 170.75 37.9062C171.188 38.7188 171.781 39.3542 172.531 39.8125C173.281 40.2708 174.219 40.5 175.344 40.5C176.448 40.5 177.365 40.2708 178.094 39.8125C178.844 39.3542 179.438 38.7188 179.875 37.9062C180.312 37.0729 180.625 36.1042 180.812 35C181 33.8958 181.094 32.7083 181.094 31.4375V30.7812C181.094 29.5521 181 28.3958 180.812 27.3125C180.625 26.2083 180.312 25.2396 179.875 24.4062C179.438 23.5521 178.844 22.8854 178.094 22.4062C177.344 21.9271 176.406 21.6875 175.281 21.6875C174.177 21.6875 173.25 21.9271 172.5 22.4062C171.771 22.8854 171.188 23.5521 170.75 24.4062C170.312 25.2396 170 26.2083 169.812 27.3125C169.625 28.3958 169.531 29.5521 169.531 30.7812ZM214.031 38.5C214.031 37.9167 213.833 37.4167 213.438 37C213.062 36.5625 212.396 36.1667 211.438 35.8125C210.479 35.4375 209.135 35.0625 207.406 34.6875C205.76 34.3333 204.208 33.8646 202.75 33.2812C201.312 32.6979 200.052 31.9896 198.969 31.1562C197.885 30.3229 197.031 29.3333 196.406 28.1875C195.802 27.0417 195.5 25.7292 195.5 24.25C195.5 22.8125 195.802 21.4583 196.406 20.1875C197.031 18.8958 197.938 17.7604 199.125 16.7812C200.333 15.7812 201.802 15 203.531 14.4375C205.26 13.8542 207.229 13.5625 209.438 13.5625C212.479 13.5625 215.104 14.0312 217.312 14.9688C219.521 15.8854 221.219 17.1771 222.406 18.8438C223.615 20.4896 224.219 22.3958 224.219 24.5625H213.688C213.688 23.7083 213.542 22.9792 213.25 22.375C212.979 21.7708 212.531 21.3125 211.906 21C211.281 20.6667 210.448 20.5 209.406 20.5C208.677 20.5 208.01 20.6354 207.406 20.9062C206.823 21.1771 206.354 21.5521 206 22.0312C205.646 22.5104 205.469 23.0729 205.469 23.7188C205.469 24.1771 205.573 24.5938 205.781 24.9688C206.01 25.3229 206.354 25.6562 206.812 25.9688C207.271 26.2604 207.854 26.5312 208.562 26.7812C209.271 27.0104 210.125 27.2188 211.125 27.4062C213.396 27.8229 215.521 28.4167 217.5 29.1875C219.479 29.9583 221.083 31.0521 222.312 32.4688C223.562 33.8854 224.188 35.7917 224.188 38.1875C224.188 39.6875 223.844 41.0729 223.156 42.3438C222.469 43.5938 221.479 44.6979 220.188 45.6562C218.896 46.5938 217.344 47.3229 215.531 47.8438C213.719 48.3646 211.677 48.625 209.406 48.625C206.177 48.625 203.448 48.0521 201.219 46.9062C198.99 45.7396 197.302 44.2812 196.156 42.5312C195.031 40.7604 194.469 38.9688 194.469 37.1562H204.281C204.323 38.1979 204.573 39.0521 205.031 39.7188C205.51 40.3854 206.146 40.875 206.938 41.1875C207.729 41.5 208.646 41.6562 209.688 41.6562C210.646 41.6562 211.438 41.5208 212.062 41.25C212.708 40.9792 213.198 40.6146 213.531 40.1562C213.865 39.6771 214.031 39.125 214.031 38.5Z" fill="#ED4D1B"/>
</svg>
