<svg width="132" height="54" viewBox="0 0 132 54" fill="none" xmlns="http://www.w3.org/2000/svg">
<path d="M15.9375 1.5625V30H9.08203V1.5625H15.9375ZM24.4922 1.5625V6.85547H0.722656V1.5625H24.4922ZM50.918 15.2148V16.3672C50.918 18.5417 50.612 20.4948 50 22.2266C49.401 23.9453 48.5482 25.4167 47.4414 26.6406C46.3346 27.8516 45.026 28.7826 43.5156 29.4336C42.0052 30.0716 40.3385 30.3906 38.5156 30.3906C36.6797 30.3906 35 30.0716 33.4766 29.4336C31.9661 28.7826 30.651 27.8516 29.5312 26.6406C28.4245 25.4167 27.5651 23.9453 26.9531 22.2266C26.3542 20.4948 26.0547 18.5417 26.0547 16.3672V15.2148C26.0547 13.0404 26.3542 11.0872 26.9531 9.35547C27.5651 7.6237 28.418 6.15234 29.5117 4.94141C30.6185 3.71745 31.9271 2.78646 33.4375 2.14844C34.9609 1.4974 36.6406 1.17188 38.4766 1.17188C40.2995 1.17188 41.9661 1.4974 43.4766 2.14844C45 2.78646 46.3151 3.71745 47.4219 4.94141C48.5286 6.15234 49.388 7.6237 50 9.35547C50.612 11.0872 50.918 13.0404 50.918 15.2148ZM43.9648 16.3672V15.1758C43.9648 13.7695 43.8411 12.5326 43.5938 11.4648C43.3594 10.3841 43.0078 9.47917 42.5391 8.75C42.0703 8.02083 41.4909 7.47396 40.8008 7.10938C40.1237 6.73177 39.349 6.54297 38.4766 6.54297C37.5651 6.54297 36.7708 6.73177 36.0938 7.10938C35.4167 7.47396 34.8503 8.02083 34.3945 8.75C33.9388 9.47917 33.5938 10.3841 33.3594 11.4648C33.138 12.5326 33.0273 13.7695 33.0273 15.1758V16.3672C33.0273 17.7604 33.138 18.9974 33.3594 20.0781C33.5938 21.1458 33.9388 22.0508 34.3945 22.793C34.8633 23.5352 35.4362 24.0951 36.1133 24.4727C36.8034 24.8503 37.6042 25.0391 38.5156 25.0391C39.388 25.0391 40.1628 24.8503 40.8398 24.4727C41.5169 24.0951 42.0833 23.5352 42.5391 22.793C43.0078 22.0508 43.3594 21.1458 43.5938 20.0781C43.8411 18.9974 43.9648 17.7604 43.9648 16.3672ZM57.8711 1.5625H63.457L69.8047 21.3477L76.1523 1.5625H81.7383L72.0703 30H67.5391L57.8711 1.5625ZM54.4727 1.5625H60.2539L61.3281 23.3594V30H54.4727V1.5625ZM79.3555 1.5625H85.1562V30H78.2812V23.3594L79.3555 1.5625ZM95.1367 0V3.20312C95.1367 4.07552 94.9609 4.96745 94.6094 5.87891C94.2708 6.79036 93.8281 7.64974 93.2812 8.45703C92.7474 9.2513 92.1745 9.92188 91.5625 10.4688L88.6719 8.90625C89.0885 8.16406 89.4661 7.34375 89.8047 6.44531C90.1562 5.53385 90.332 4.44661 90.332 3.18359V0H95.1367ZM113.926 22.4414C113.926 21.9987 113.861 21.6016 113.73 21.25C113.6 20.8854 113.359 20.5469 113.008 20.2344C112.656 19.9219 112.148 19.6094 111.484 19.2969C110.833 18.9714 109.974 18.6328 108.906 18.2812C107.656 17.8646 106.452 17.3958 105.293 16.875C104.134 16.3411 103.099 15.7227 102.188 15.0195C101.276 14.3034 100.553 13.4701 100.02 12.5195C99.4857 11.556 99.2188 10.4362 99.2188 9.16016C99.2188 7.9362 99.4922 6.83594 100.039 5.85938C100.586 4.86979 101.348 4.02995 102.324 3.33984C103.314 2.63672 104.473 2.10286 105.801 1.73828C107.129 1.36068 108.581 1.17188 110.156 1.17188C112.24 1.17188 114.076 1.53646 115.664 2.26562C117.266 2.98177 118.516 4.00391 119.414 5.33203C120.326 6.64714 120.781 8.20312 120.781 10H113.965C113.965 9.28385 113.815 8.65234 113.516 8.10547C113.229 7.55859 112.793 7.12891 112.207 6.81641C111.621 6.50391 110.885 6.34766 110 6.34766C109.141 6.34766 108.418 6.47786 107.832 6.73828C107.246 6.9987 106.803 7.35026 106.504 7.79297C106.204 8.22266 106.055 8.69792 106.055 9.21875C106.055 9.64844 106.172 10.0391 106.406 10.3906C106.654 10.7292 106.999 11.0482 107.441 11.3477C107.897 11.6471 108.444 11.9336 109.082 12.207C109.733 12.4805 110.462 12.7474 111.27 13.0078C112.78 13.4896 114.121 14.0299 115.293 14.6289C116.478 15.2148 117.474 15.8854 118.281 16.6406C119.102 17.3828 119.72 18.2292 120.137 19.1797C120.566 20.1302 120.781 21.2044 120.781 22.4023C120.781 23.6784 120.534 24.8112 120.039 25.8008C119.544 26.7904 118.835 27.6302 117.91 28.3203C116.986 28.9974 115.879 29.5117 114.59 29.8633C113.301 30.2148 111.862 30.3906 110.273 30.3906C108.815 30.3906 107.376 30.2083 105.957 29.8438C104.551 29.4661 103.275 28.8932 102.129 28.125C100.983 27.3438 100.065 26.3477 99.375 25.1367C98.6979 23.9128 98.3594 22.4609 98.3594 20.7812H105.234C105.234 21.6146 105.345 22.3177 105.566 22.8906C105.788 23.4635 106.113 23.9258 106.543 24.2773C106.973 24.6159 107.5 24.8633 108.125 25.0195C108.75 25.1628 109.466 25.2344 110.273 25.2344C111.146 25.2344 111.849 25.1107 112.383 24.8633C112.917 24.6029 113.307 24.2643 113.555 23.8477C113.802 23.418 113.926 22.9492 113.926 22.4414ZM6.73828 48.5371V38.7812H10.1562V48.5371C10.1562 49.4876 9.93815 50.3112 9.50195 51.0078C9.07227 51.7044 8.48633 52.2448 7.74414 52.6289C7.00846 53.0065 6.18164 53.1953 5.26367 53.1953C4.31315 53.1953 3.4668 53.0358 2.72461 52.7168C1.98893 52.3978 1.40951 51.9062 0.986328 51.2422C0.569661 50.5781 0.361328 49.7318 0.361328 48.7031H3.79883C3.79883 49.1849 3.85417 49.5625 3.96484 49.8359C4.07552 50.1029 4.23828 50.2917 4.45312 50.4023C4.67448 50.5065 4.94466 50.5586 5.26367 50.5586C5.57617 50.5586 5.83984 50.4805 6.05469 50.3242C6.27604 50.1615 6.44531 49.9303 6.5625 49.6309C6.67969 49.3249 6.73828 48.9603 6.73828 48.5371ZM18.1445 41.7695L14.6777 53H10.9961L16.2207 38.7812H18.5547L18.1445 41.7695ZM21.0156 53L17.5391 41.7695L17.0898 38.7812H19.4531L24.707 53H21.0156ZM20.8789 47.6973V50.3438H13.584V47.6973H20.8789ZM36.3965 50.3633V53H26.1035V50.3633H36.3965ZM36.3281 40.5391L27.8027 53H25.3223V51.1934L33.9453 38.7812H36.3281V40.5391ZM35.2246 38.7812V41.4277H25.2734V38.7812H35.2246ZM48.6035 50.3633V53H38.3105V50.3633H48.6035ZM48.5352 40.5391L40.0098 53H37.5293V51.1934L46.1523 38.7812H48.5352V40.5391ZM47.4316 38.7812V41.4277H37.4805V38.7812H47.4316ZM62.4707 49.2207C62.4707 48.9993 62.4382 48.8008 62.373 48.625C62.3079 48.4427 62.1875 48.2734 62.0117 48.1172C61.8359 47.9609 61.582 47.8047 61.25 47.6484C60.9245 47.4857 60.4948 47.3164 59.9609 47.1406C59.3359 46.9323 58.7337 46.6979 58.1543 46.4375C57.5749 46.1706 57.0573 45.8613 56.6016 45.5098C56.1458 45.1517 55.7845 44.735 55.5176 44.2598C55.2507 43.778 55.1172 43.2181 55.1172 42.5801C55.1172 41.9681 55.2539 41.418 55.5273 40.9297C55.8008 40.4349 56.1816 40.015 56.6699 39.6699C57.1647 39.3184 57.7441 39.0514 58.4082 38.8691C59.0723 38.6803 59.7982 38.5859 60.5859 38.5859C61.6276 38.5859 62.5456 38.7682 63.3398 39.1328C64.1406 39.4909 64.7656 40.002 65.2148 40.666C65.6706 41.3236 65.8984 42.1016 65.8984 43H62.4902C62.4902 42.6419 62.4154 42.3262 62.2656 42.0527C62.1224 41.7793 61.9043 41.5645 61.6113 41.4082C61.3184 41.252 60.9505 41.1738 60.5078 41.1738C60.0781 41.1738 59.7168 41.2389 59.4238 41.3691C59.1309 41.4993 58.9095 41.6751 58.7598 41.8965C58.61 42.1113 58.5352 42.349 58.5352 42.6094C58.5352 42.8242 58.5938 43.0195 58.7109 43.1953C58.8346 43.3646 59.0072 43.5241 59.2285 43.6738C59.4564 43.8236 59.7298 43.9668 60.0488 44.1035C60.3743 44.2402 60.7389 44.3737 61.1426 44.5039C61.8978 44.7448 62.5684 45.015 63.1543 45.3145C63.7467 45.6074 64.2448 45.9427 64.6484 46.3203C65.0586 46.6914 65.3678 47.1146 65.5762 47.5898C65.791 48.0651 65.8984 48.6022 65.8984 49.2012C65.8984 49.8392 65.7747 50.4056 65.5273 50.9004C65.2799 51.3952 64.9251 51.8151 64.4629 52.1602C64.0007 52.4987 63.4473 52.7559 62.8027 52.9316C62.1582 53.1074 61.4388 53.1953 60.6445 53.1953C59.9154 53.1953 59.196 53.1042 58.4863 52.9219C57.7832 52.7331 57.1452 52.4466 56.5723 52.0625C55.9993 51.6719 55.5404 51.1738 55.1953 50.5684C54.8568 49.9564 54.6875 49.2305 54.6875 48.3906H58.125C58.125 48.8073 58.1803 49.1589 58.291 49.4453C58.4017 49.7318 58.5645 49.9629 58.7793 50.1387C58.9941 50.3079 59.2578 50.4316 59.5703 50.5098C59.8828 50.5814 60.2409 50.6172 60.6445 50.6172C61.0807 50.6172 61.4323 50.5553 61.6992 50.4316C61.9661 50.3014 62.1615 50.1322 62.2852 49.9238C62.4089 49.709 62.4707 49.4746 62.4707 49.2207ZM75.752 48.1855H79.1699C79.1243 49.1751 78.8574 50.0475 78.3691 50.8027C77.8809 51.5579 77.2038 52.1471 76.3379 52.5703C75.4785 52.987 74.4629 53.1953 73.291 53.1953C72.3405 53.1953 71.4909 53.0358 70.7422 52.7168C70 52.3978 69.3685 51.9388 68.8477 51.3398C68.3333 50.7409 67.9395 50.015 67.666 49.1621C67.3991 48.3092 67.2656 47.349 67.2656 46.2812V45.5098C67.2656 44.4421 67.4056 43.4818 67.6855 42.6289C67.972 41.7695 68.3757 41.0404 68.8965 40.4414C69.4238 39.8359 70.0553 39.3737 70.791 39.0547C71.5267 38.7357 72.3438 38.5762 73.2422 38.5762C74.4792 38.5762 75.5241 38.7975 76.377 39.2402C77.2298 39.6829 77.8906 40.2917 78.3594 41.0664C78.8281 41.8346 79.1048 42.7103 79.1895 43.6934H75.7715C75.7585 43.1595 75.6673 42.7135 75.498 42.3555C75.3288 41.9909 75.0618 41.7174 74.6973 41.5352C74.3327 41.3529 73.8477 41.2617 73.2422 41.2617C72.819 41.2617 72.4512 41.3398 72.1387 41.4961C71.8262 41.6523 71.5658 41.8997 71.3574 42.2383C71.1491 42.5768 70.9928 43.0163 70.8887 43.5566C70.791 44.0905 70.7422 44.735 70.7422 45.4902V46.2812C70.7422 47.0365 70.7878 47.681 70.8789 48.2148C70.9701 48.7487 71.1165 49.1849 71.3184 49.5234C71.5202 49.862 71.7806 50.1126 72.0996 50.2754C72.4251 50.4316 72.8223 50.5098 73.291 50.5098C73.8118 50.5098 74.2513 50.4284 74.6094 50.2656C74.9674 50.0964 75.2441 49.8424 75.4395 49.5039C75.6348 49.1589 75.7389 48.7194 75.752 48.1855ZM90.3711 44.4258V47.0625H83.0762V44.4258H90.3711ZM84.2188 38.7812V53H80.791V38.7812H84.2188ZM92.6758 38.7812V53H89.2578V38.7812H92.6758ZM106.885 45.6074V46.1836C106.885 47.2708 106.732 48.2474 106.426 49.1133C106.126 49.9727 105.7 50.7083 105.146 51.3203C104.593 51.9258 103.939 52.3913 103.184 52.7168C102.428 53.0358 101.595 53.1953 100.684 53.1953C99.7656 53.1953 98.9258 53.0358 98.1641 52.7168C97.4089 52.3913 96.7513 51.9258 96.1914 51.3203C95.638 50.7083 95.2083 49.9727 94.9023 49.1133C94.6029 48.2474 94.4531 47.2708 94.4531 46.1836V45.6074C94.4531 44.5202 94.6029 43.5436 94.9023 42.6777C95.2083 41.8118 95.6348 41.0762 96.1816 40.4707C96.735 39.8587 97.3893 39.3932 98.1445 39.0742C98.9062 38.7487 99.7461 38.5859 100.664 38.5859C101.576 38.5859 102.409 38.7487 103.164 39.0742C103.926 39.3932 104.583 39.8587 105.137 40.4707C105.69 41.0762 106.12 41.8118 106.426 42.6777C106.732 43.5436 106.885 44.5202 106.885 45.6074ZM103.408 46.1836V45.5879C103.408 44.8848 103.346 44.2663 103.223 43.7324C103.105 43.1921 102.93 42.7396 102.695 42.375C102.461 42.0104 102.171 41.737 101.826 41.5547C101.488 41.3659 101.1 41.2715 100.664 41.2715C100.208 41.2715 99.8112 41.3659 99.4727 41.5547C99.1341 41.737 98.8509 42.0104 98.623 42.375C98.3952 42.7396 98.2227 43.1921 98.1055 43.7324C97.9948 44.2663 97.9395 44.8848 97.9395 45.5879V46.1836C97.9395 46.8802 97.9948 47.4987 98.1055 48.0391C98.2227 48.5729 98.3952 49.0254 98.623 49.3965C98.8574 49.7676 99.1439 50.0475 99.4824 50.2363C99.8275 50.4251 100.228 50.5195 100.684 50.5195C101.12 50.5195 101.507 50.4251 101.846 50.2363C102.184 50.0475 102.467 49.7676 102.695 49.3965C102.93 49.0254 103.105 48.5729 103.223 48.0391C103.346 47.4987 103.408 46.8802 103.408 46.1836ZM120.693 45.6074V46.1836C120.693 47.2708 120.54 48.2474 120.234 49.1133C119.935 49.9727 119.508 50.7083 118.955 51.3203C118.402 51.9258 117.747 52.3913 116.992 52.7168C116.237 53.0358 115.404 53.1953 114.492 53.1953C113.574 53.1953 112.734 53.0358 111.973 52.7168C111.217 52.3913 110.56 51.9258 110 51.3203C109.447 50.7083 109.017 49.9727 108.711 49.1133C108.411 48.2474 108.262 47.2708 108.262 46.1836V45.6074C108.262 44.5202 108.411 43.5436 108.711 42.6777C109.017 41.8118 109.443 41.0762 109.99 40.4707C110.544 39.8587 111.198 39.3932 111.953 39.0742C112.715 38.7487 113.555 38.5859 114.473 38.5859C115.384 38.5859 116.217 38.7487 116.973 39.0742C117.734 39.3932 118.392 39.8587 118.945 40.4707C119.499 41.0762 119.928 41.8118 120.234 42.6777C120.54 43.5436 120.693 44.5202 120.693 45.6074ZM117.217 46.1836V45.5879C117.217 44.8848 117.155 44.2663 117.031 43.7324C116.914 43.1921 116.738 42.7396 116.504 42.375C116.27 42.0104 115.98 41.737 115.635 41.5547C115.296 41.3659 114.909 41.2715 114.473 41.2715C114.017 41.2715 113.62 41.3659 113.281 41.5547C112.943 41.737 112.66 42.0104 112.432 42.375C112.204 42.7396 112.031 43.1921 111.914 43.7324C111.803 44.2663 111.748 44.8848 111.748 45.5879V46.1836C111.748 46.8802 111.803 47.4987 111.914 48.0391C112.031 48.5729 112.204 49.0254 112.432 49.3965C112.666 49.7676 112.952 50.0475 113.291 50.2363C113.636 50.4251 114.036 50.5195 114.492 50.5195C114.928 50.5195 115.316 50.4251 115.654 50.2363C115.993 50.0475 116.276 49.7676 116.504 49.3965C116.738 49.0254 116.914 48.5729 117.031 48.0391C117.155 47.4987 117.217 46.8802 117.217 46.1836ZM131.865 50.3633V53H124.678V50.3633H131.865ZM125.898 38.7812V53H122.471V38.7812H125.898Z" fill="black"/>
</svg>
