<svg width="200" height="54" viewBox="0 0 200 54" fill="none" xmlns="http://www.w3.org/2000/svg">
<path d="M8.28125 10.4453V12H2.57031V10.4453H8.28125ZM3.11719 0.625V12H1.15625V0.625H3.11719ZM9.25 7.86719V7.6875C9.25 7.07812 9.33854 6.51302 9.51562 5.99219C9.69271 5.46615 9.94792 5.01042 10.2812 4.625C10.6198 4.23438 11.0312 3.93229 11.5156 3.71875C12.0052 3.5 12.5573 3.39062 13.1719 3.39062C13.7917 3.39062 14.3438 3.5 14.8281 3.71875C15.3177 3.93229 15.7318 4.23438 16.0703 4.625C16.4089 5.01042 16.6667 5.46615 16.8438 5.99219C17.0208 6.51302 17.1094 7.07812 17.1094 7.6875V7.86719C17.1094 8.47656 17.0208 9.04167 16.8438 9.5625C16.6667 10.0833 16.4089 10.5391 16.0703 10.9297C15.7318 11.3151 15.3203 11.6172 14.8359 11.8359C14.3516 12.0495 13.8021 12.1562 13.1875 12.1562C12.5677 12.1562 12.013 12.0495 11.5234 11.8359C11.0391 11.6172 10.6276 11.3151 10.2891 10.9297C9.95052 10.5391 9.69271 10.0833 9.51562 9.5625C9.33854 9.04167 9.25 8.47656 9.25 7.86719ZM11.1328 7.6875V7.86719C11.1328 8.2474 11.1719 8.60677 11.25 8.94531C11.3281 9.28385 11.4505 9.58073 11.6172 9.83594C11.7839 10.0911 11.9974 10.2917 12.2578 10.4375C12.5182 10.5833 12.8281 10.6562 13.1875 10.6562C13.5365 10.6562 13.8385 10.5833 14.0938 10.4375C14.3542 10.2917 14.5677 10.0911 14.7344 9.83594C14.901 9.58073 15.0234 9.28385 15.1016 8.94531C15.1849 8.60677 15.2266 8.2474 15.2266 7.86719V7.6875C15.2266 7.3125 15.1849 6.95833 15.1016 6.625C15.0234 6.28646 14.8984 5.98698 14.7266 5.72656C14.5599 5.46615 14.3464 5.26302 14.0859 5.11719C13.8307 4.96615 13.526 4.89062 13.1719 4.89062C12.8177 4.89062 12.5104 4.96615 12.25 5.11719C11.9948 5.26302 11.7839 5.46615 11.6172 5.72656C11.4505 5.98698 11.3281 6.28646 11.25 6.625C11.1719 6.95833 11.1328 7.3125 11.1328 7.6875ZM20.5781 5.15625V12H18.6953V3.54688H20.4922L20.5781 5.15625ZM23.1641 3.49219L23.1484 5.24219C23.0339 5.22135 22.9089 5.20573 22.7734 5.19531C22.6432 5.1849 22.513 5.17969 22.3828 5.17969C22.0599 5.17969 21.776 5.22656 21.5312 5.32031C21.2865 5.40885 21.0807 5.53906 20.9141 5.71094C20.7526 5.8776 20.6276 6.08073 20.5391 6.32031C20.4505 6.5599 20.3984 6.82812 20.3828 7.125L19.9531 7.15625C19.9531 6.625 20.0052 6.13281 20.1094 5.67969C20.2135 5.22656 20.3698 4.82812 20.5781 4.48438C20.7917 4.14062 21.0573 3.8724 21.375 3.67969C21.6979 3.48698 22.0703 3.39062 22.4922 3.39062C22.6068 3.39062 22.7292 3.40104 22.8594 3.42188C22.9948 3.44271 23.0964 3.46615 23.1641 3.49219ZM27.9141 12.1562C27.2891 12.1562 26.724 12.0547 26.2188 11.8516C25.7188 11.6432 25.2917 11.3542 24.9375 10.9844C24.5885 10.6146 24.3203 10.1797 24.1328 9.67969C23.9453 9.17969 23.8516 8.64062 23.8516 8.0625V7.75C23.8516 7.08854 23.9479 6.48958 24.1406 5.95312C24.3333 5.41667 24.6016 4.95833 24.9453 4.57812C25.2891 4.19271 25.6953 3.89844 26.1641 3.69531C26.6328 3.49219 27.1406 3.39062 27.6875 3.39062C28.2917 3.39062 28.8203 3.49219 29.2734 3.69531C29.7266 3.89844 30.1016 4.1849 30.3984 4.55469C30.7005 4.91927 30.9245 5.35417 31.0703 5.85938C31.2214 6.36458 31.2969 6.92188 31.2969 7.53125V8.33594H24.7656V6.98438H29.4375V6.83594C29.4271 6.4974 29.3594 6.17969 29.2344 5.88281C29.1146 5.58594 28.9297 5.34635 28.6797 5.16406C28.4297 4.98177 28.0964 4.89062 27.6797 4.89062C27.3672 4.89062 27.0885 4.95833 26.8438 5.09375C26.6042 5.22396 26.4036 5.41406 26.2422 5.66406C26.0807 5.91406 25.9557 6.21615 25.8672 6.57031C25.7839 6.91927 25.7422 7.3125 25.7422 7.75V8.0625C25.7422 8.43229 25.7917 8.77604 25.8906 9.09375C25.9948 9.40625 26.1458 9.67969 26.3438 9.91406C26.5417 10.1484 26.7812 10.3333 27.0625 10.4688C27.3438 10.599 27.6641 10.6641 28.0234 10.6641C28.4766 10.6641 28.8802 10.5729 29.2344 10.3906C29.5885 10.2083 29.8958 9.95052 30.1562 9.61719L31.1484 10.5781C30.9661 10.8438 30.7292 11.099 30.4375 11.3438C30.1458 11.5833 29.7891 11.7786 29.3672 11.9297C28.9505 12.0807 28.4661 12.1562 27.9141 12.1562ZM34.6484 5.26562V12H32.7656V3.54688H34.5391L34.6484 5.26562ZM34.3438 7.46094L33.7031 7.45312C33.7031 6.86979 33.776 6.33073 33.9219 5.83594C34.0677 5.34115 34.2812 4.91146 34.5625 4.54688C34.8438 4.17708 35.1927 3.89323 35.6094 3.69531C36.0312 3.49219 36.5182 3.39062 37.0703 3.39062C37.4557 3.39062 37.8073 3.44792 38.125 3.5625C38.4479 3.67188 38.7266 3.84635 38.9609 4.08594C39.2005 4.32552 39.3828 4.63281 39.5078 5.00781C39.638 5.38281 39.7031 5.83594 39.7031 6.36719V12H37.8203V6.53125C37.8203 6.11979 37.7578 5.79688 37.6328 5.5625C37.513 5.32812 37.3385 5.16146 37.1094 5.0625C36.8854 4.95833 36.6172 4.90625 36.3047 4.90625C35.9505 4.90625 35.6484 4.97396 35.3984 5.10938C35.1536 5.24479 34.9531 5.42969 34.7969 5.66406C34.6406 5.89844 34.526 6.16927 34.4531 6.47656C34.3802 6.78385 34.3438 7.11198 34.3438 7.46094ZM39.5859 6.96094L38.7031 7.15625C38.7031 6.64583 38.7734 6.16406 38.9141 5.71094C39.0599 5.2526 39.2708 4.85156 39.5469 4.50781C39.8281 4.15885 40.1745 3.88542 40.5859 3.6875C40.9974 3.48958 41.4688 3.39062 42 3.39062C42.4323 3.39062 42.8177 3.45052 43.1562 3.57031C43.5 3.6849 43.7917 3.86719 44.0312 4.11719C44.2708 4.36719 44.4531 4.69271 44.5781 5.09375C44.7031 5.48958 44.7656 5.96875 44.7656 6.53125V12H42.875V6.52344C42.875 6.09635 42.8125 5.76562 42.6875 5.53125C42.5677 5.29688 42.3958 5.13542 42.1719 5.04688C41.9479 4.95312 41.6797 4.90625 41.3672 4.90625C41.0755 4.90625 40.8177 4.96094 40.5938 5.07031C40.375 5.17448 40.1901 5.32292 40.0391 5.51562C39.888 5.70312 39.7734 5.91927 39.6953 6.16406C39.6224 6.40885 39.5859 6.67448 39.5859 6.96094ZM52.7031 3.54688V12H50.8125V3.54688H52.7031ZM50.6875 1.32812C50.6875 1.04167 50.7812 0.804688 50.9688 0.617188C51.1615 0.424479 51.4271 0.328125 51.7656 0.328125C52.099 0.328125 52.362 0.424479 52.5547 0.617188C52.7474 0.804688 52.8438 1.04167 52.8438 1.32812C52.8438 1.60938 52.7474 1.84375 52.5547 2.03125C52.362 2.21875 52.099 2.3125 51.7656 2.3125C51.4271 2.3125 51.1615 2.21875 50.9688 2.03125C50.7812 1.84375 50.6875 1.60938 50.6875 1.32812ZM56.6562 5.17188V15.25H54.7734V3.54688H56.5078L56.6562 5.17188ZM62.1641 7.69531V7.85938C62.1641 8.47396 62.0911 9.04427 61.9453 9.57031C61.8047 10.0911 61.5938 10.5469 61.3125 10.9375C61.0365 11.3229 60.6953 11.6224 60.2891 11.8359C59.8828 12.0495 59.4141 12.1562 58.8828 12.1562C58.3568 12.1562 57.8958 12.0599 57.5 11.8672C57.1094 11.6693 56.7786 11.3906 56.5078 11.0312C56.237 10.6719 56.0182 10.25 55.8516 9.76562C55.6901 9.27604 55.5755 8.73958 55.5078 8.15625V7.52344C55.5755 6.90365 55.6901 6.34115 55.8516 5.83594C56.0182 5.33073 56.237 4.89583 56.5078 4.53125C56.7786 4.16667 57.1094 3.88542 57.5 3.6875C57.8906 3.48958 58.3464 3.39062 58.8672 3.39062C59.3984 3.39062 59.8698 3.49479 60.2812 3.70312C60.6927 3.90625 61.0391 4.19792 61.3203 4.57812C61.6016 4.95312 61.8125 5.40625 61.9531 5.9375C62.0938 6.46354 62.1641 7.04948 62.1641 7.69531ZM60.2812 7.85938V7.69531C60.2812 7.30469 60.2448 6.94271 60.1719 6.60938C60.099 6.27083 59.9844 5.97396 59.8281 5.71875C59.6719 5.46354 59.4714 5.26562 59.2266 5.125C58.987 4.97917 58.6979 4.90625 58.3594 4.90625C58.026 4.90625 57.7396 4.96354 57.5 5.07812C57.2604 5.1875 57.0599 5.34115 56.8984 5.53906C56.737 5.73698 56.612 5.96875 56.5234 6.23438C56.4349 6.49479 56.3724 6.77865 56.3359 7.08594V8.60156C56.3984 8.97656 56.5052 9.32031 56.6562 9.63281C56.8073 9.94531 57.0208 10.1953 57.2969 10.3828C57.5781 10.5651 57.9375 10.6562 58.375 10.6562C58.7135 10.6562 59.0026 10.5833 59.2422 10.4375C59.4818 10.2917 59.6771 10.0911 59.8281 9.83594C59.9844 9.57552 60.099 9.27604 60.1719 8.9375C60.2448 8.59896 60.2812 8.23958 60.2812 7.85938ZM68.5078 9.71094C68.5078 9.52344 68.4609 9.35417 68.3672 9.20312C68.2734 9.04688 68.0938 8.90625 67.8281 8.78125C67.5677 8.65625 67.1823 8.54167 66.6719 8.4375C66.224 8.33854 65.8125 8.22135 65.4375 8.08594C65.0677 7.94531 64.75 7.77604 64.4844 7.57812C64.2188 7.38021 64.013 7.14583 63.8672 6.875C63.7214 6.60417 63.6484 6.29167 63.6484 5.9375C63.6484 5.59375 63.724 5.26823 63.875 4.96094C64.026 4.65365 64.2422 4.38281 64.5234 4.14844C64.8047 3.91406 65.1458 3.72917 65.5469 3.59375C65.9531 3.45833 66.4062 3.39062 66.9062 3.39062C67.6146 3.39062 68.2214 3.51042 68.7266 3.75C69.237 3.98438 69.6276 4.30469 69.8984 4.71094C70.1693 5.11198 70.3047 5.5651 70.3047 6.07031H68.4219C68.4219 5.84635 68.3646 5.63802 68.25 5.44531C68.1406 5.2474 67.974 5.08854 67.75 4.96875C67.526 4.84375 67.2448 4.78125 66.9062 4.78125C66.5833 4.78125 66.3151 4.83333 66.1016 4.9375C65.8932 5.03646 65.737 5.16667 65.6328 5.32812C65.5339 5.48958 65.4844 5.66667 65.4844 5.85938C65.4844 6 65.5104 6.1276 65.5625 6.24219C65.6198 6.35156 65.7135 6.45312 65.8438 6.54688C65.974 6.63542 66.151 6.71875 66.375 6.79688C66.6042 6.875 66.8906 6.95052 67.2344 7.02344C67.8802 7.15885 68.4349 7.33333 68.8984 7.54688C69.3672 7.75521 69.7266 8.02604 69.9766 8.35938C70.2266 8.6875 70.3516 9.10417 70.3516 9.60938C70.3516 9.98438 70.2708 10.3281 70.1094 10.6406C69.9531 10.9479 69.724 11.2161 69.4219 11.4453C69.1198 11.6693 68.7578 11.8438 68.3359 11.9688C67.9193 12.0938 67.4505 12.1562 66.9297 12.1562C66.1641 12.1562 65.5156 12.0208 64.9844 11.75C64.4531 11.474 64.0495 11.1224 63.7734 10.6953C63.5026 10.263 63.3672 9.8151 63.3672 9.35156H65.1875C65.2083 9.70052 65.3047 9.97917 65.4766 10.1875C65.6536 10.3906 65.8724 10.5391 66.1328 10.6328C66.3984 10.7214 66.6719 10.7656 66.9531 10.7656C67.2917 10.7656 67.5755 10.7214 67.8047 10.6328C68.0339 10.5391 68.2083 10.4141 68.3281 10.2578C68.4479 10.0964 68.5078 9.91406 68.5078 9.71094ZM77.0859 10.0078V3.54688H78.9766V12H77.1953L77.0859 10.0078ZM77.3516 8.25L77.9844 8.23438C77.9844 8.80208 77.9219 9.32552 77.7969 9.80469C77.6719 10.2786 77.4792 10.6927 77.2188 11.0469C76.9583 11.3958 76.625 11.6693 76.2188 11.8672C75.8125 12.0599 75.3255 12.1562 74.7578 12.1562C74.3464 12.1562 73.9688 12.0964 73.625 11.9766C73.2812 11.8568 72.9844 11.6719 72.7344 11.4219C72.4896 11.1719 72.2995 10.8464 72.1641 10.4453C72.0286 10.0443 71.9609 9.5651 71.9609 9.00781V3.54688H73.8438V9.02344C73.8438 9.33073 73.8802 9.58854 73.9531 9.79688C74.026 10 74.125 10.1641 74.25 10.2891C74.375 10.4141 74.5208 10.5026 74.6875 10.5547C74.8542 10.6068 75.0312 10.6328 75.2188 10.6328C75.7552 10.6328 76.1771 10.5286 76.4844 10.3203C76.7969 10.1068 77.0182 9.82031 77.1484 9.46094C77.2839 9.10156 77.3516 8.69792 77.3516 8.25ZM82.7891 5.26562V12H80.9062V3.54688H82.6797L82.7891 5.26562ZM82.4844 7.46094L81.8438 7.45312C81.8438 6.86979 81.9167 6.33073 82.0625 5.83594C82.2083 5.34115 82.4219 4.91146 82.7031 4.54688C82.9844 4.17708 83.3333 3.89323 83.75 3.69531C84.1719 3.49219 84.6589 3.39062 85.2109 3.39062C85.5964 3.39062 85.9479 3.44792 86.2656 3.5625C86.5885 3.67188 86.8672 3.84635 87.1016 4.08594C87.3411 4.32552 87.5234 4.63281 87.6484 5.00781C87.7786 5.38281 87.8438 5.83594 87.8438 6.36719V12H85.9609V6.53125C85.9609 6.11979 85.8984 5.79688 85.7734 5.5625C85.6536 5.32812 85.4792 5.16146 85.25 5.0625C85.026 4.95833 84.7578 4.90625 84.4453 4.90625C84.0911 4.90625 83.7891 4.97396 83.5391 5.10938C83.2943 5.24479 83.0938 5.42969 82.9375 5.66406C82.7812 5.89844 82.6667 6.16927 82.5938 6.47656C82.5208 6.78385 82.4844 7.11198 82.4844 7.46094ZM87.7266 6.96094L86.8438 7.15625C86.8438 6.64583 86.9141 6.16406 87.0547 5.71094C87.2005 5.2526 87.4115 4.85156 87.6875 4.50781C87.9688 4.15885 88.3151 3.88542 88.7266 3.6875C89.138 3.48958 89.6094 3.39062 90.1406 3.39062C90.5729 3.39062 90.9583 3.45052 91.2969 3.57031C91.6406 3.6849 91.9323 3.86719 92.1719 4.11719C92.4115 4.36719 92.5938 4.69271 92.7188 5.09375C92.8438 5.48958 92.9062 5.96875 92.9062 6.53125V12H91.0156V6.52344C91.0156 6.09635 90.9531 5.76562 90.8281 5.53125C90.7083 5.29688 90.5365 5.13542 90.3125 5.04688C90.0885 4.95312 89.8203 4.90625 89.5078 4.90625C89.2161 4.90625 88.9583 4.96094 88.7344 5.07031C88.5156 5.17448 88.3307 5.32292 88.1797 5.51562C88.0286 5.70312 87.9141 5.91927 87.8359 6.16406C87.763 6.40885 87.7266 6.67448 87.7266 6.96094ZM103.984 10.25V0H105.875V12H104.164L103.984 10.25ZM98.4844 7.86719V7.70312C98.4844 7.0625 98.5599 6.47917 98.7109 5.95312C98.862 5.42188 99.0807 4.96615 99.3672 4.58594C99.6536 4.20052 100.003 3.90625 100.414 3.70312C100.826 3.49479 101.289 3.39062 101.805 3.39062C102.315 3.39062 102.763 3.48958 103.148 3.6875C103.534 3.88542 103.862 4.16927 104.133 4.53906C104.404 4.90365 104.62 5.34115 104.781 5.85156C104.943 6.35677 105.057 6.91927 105.125 7.53906V8.0625C105.057 8.66667 104.943 9.21875 104.781 9.71875C104.62 10.2188 104.404 10.651 104.133 11.0156C103.862 11.3802 103.531 11.6615 103.141 11.8594C102.755 12.0573 102.305 12.1562 101.789 12.1562C101.279 12.1562 100.818 12.0495 100.406 11.8359C100 11.6224 99.6536 11.3229 99.3672 10.9375C99.0807 10.5521 98.862 10.099 98.7109 9.57812C98.5599 9.05208 98.4844 8.48177 98.4844 7.86719ZM100.367 7.70312V7.86719C100.367 8.2526 100.401 8.61198 100.469 8.94531C100.542 9.27865 100.654 9.57292 100.805 9.82812C100.956 10.0781 101.151 10.276 101.391 10.4219C101.635 10.5625 101.927 10.6328 102.266 10.6328C102.693 10.6328 103.044 10.5391 103.32 10.3516C103.596 10.1641 103.812 9.91146 103.969 9.59375C104.13 9.27083 104.24 8.91146 104.297 8.51562V7.10156C104.266 6.79427 104.201 6.50781 104.102 6.24219C104.008 5.97656 103.88 5.74479 103.719 5.54688C103.557 5.34375 103.357 5.1875 103.117 5.07812C102.883 4.96354 102.604 4.90625 102.281 4.90625C101.938 4.90625 101.646 4.97917 101.406 5.125C101.167 5.27083 100.969 5.47135 100.812 5.72656C100.661 5.98177 100.549 6.27865 100.477 6.61719C100.404 6.95573 100.367 7.31771 100.367 7.70312ZM107.484 7.86719V7.6875C107.484 7.07812 107.573 6.51302 107.75 5.99219C107.927 5.46615 108.182 5.01042 108.516 4.625C108.854 4.23438 109.266 3.93229 109.75 3.71875C110.24 3.5 110.792 3.39062 111.406 3.39062C112.026 3.39062 112.578 3.5 113.062 3.71875C113.552 3.93229 113.966 4.23438 114.305 4.625C114.643 5.01042 114.901 5.46615 115.078 5.99219C115.255 6.51302 115.344 7.07812 115.344 7.6875V7.86719C115.344 8.47656 115.255 9.04167 115.078 9.5625C114.901 10.0833 114.643 10.5391 114.305 10.9297C113.966 11.3151 113.555 11.6172 113.07 11.8359C112.586 12.0495 112.036 12.1562 111.422 12.1562C110.802 12.1562 110.247 12.0495 109.758 11.8359C109.273 11.6172 108.862 11.3151 108.523 10.9297C108.185 10.5391 107.927 10.0833 107.75 9.5625C107.573 9.04167 107.484 8.47656 107.484 7.86719ZM109.367 7.6875V7.86719C109.367 8.2474 109.406 8.60677 109.484 8.94531C109.562 9.28385 109.685 9.58073 109.852 9.83594C110.018 10.0911 110.232 10.2917 110.492 10.4375C110.753 10.5833 111.062 10.6562 111.422 10.6562C111.771 10.6562 112.073 10.5833 112.328 10.4375C112.589 10.2917 112.802 10.0911 112.969 9.83594C113.135 9.58073 113.258 9.28385 113.336 8.94531C113.419 8.60677 113.461 8.2474 113.461 7.86719V7.6875C113.461 7.3125 113.419 6.95833 113.336 6.625C113.258 6.28646 113.133 5.98698 112.961 5.72656C112.794 5.46615 112.581 5.26302 112.32 5.11719C112.065 4.96615 111.76 4.89062 111.406 4.89062C111.052 4.89062 110.745 4.96615 110.484 5.11719C110.229 5.26302 110.018 5.46615 109.852 5.72656C109.685 5.98698 109.562 6.28646 109.484 6.625C109.406 6.95833 109.367 7.3125 109.367 7.6875ZM118.938 0V12H117.047V0H118.938ZM120.641 7.86719V7.6875C120.641 7.07812 120.729 6.51302 120.906 5.99219C121.083 5.46615 121.339 5.01042 121.672 4.625C122.01 4.23438 122.422 3.93229 122.906 3.71875C123.396 3.5 123.948 3.39062 124.562 3.39062C125.182 3.39062 125.734 3.5 126.219 3.71875C126.708 3.93229 127.122 4.23438 127.461 4.625C127.799 5.01042 128.057 5.46615 128.234 5.99219C128.411 6.51302 128.5 7.07812 128.5 7.6875V7.86719C128.5 8.47656 128.411 9.04167 128.234 9.5625C128.057 10.0833 127.799 10.5391 127.461 10.9297C127.122 11.3151 126.711 11.6172 126.227 11.8359C125.742 12.0495 125.193 12.1562 124.578 12.1562C123.958 12.1562 123.404 12.0495 122.914 11.8359C122.43 11.6172 122.018 11.3151 121.68 10.9297C121.341 10.5391 121.083 10.0833 120.906 9.5625C120.729 9.04167 120.641 8.47656 120.641 7.86719ZM122.523 7.6875V7.86719C122.523 8.2474 122.562 8.60677 122.641 8.94531C122.719 9.28385 122.841 9.58073 123.008 9.83594C123.174 10.0911 123.388 10.2917 123.648 10.4375C123.909 10.5833 124.219 10.6562 124.578 10.6562C124.927 10.6562 125.229 10.5833 125.484 10.4375C125.745 10.2917 125.958 10.0911 126.125 9.83594C126.292 9.58073 126.414 9.28385 126.492 8.94531C126.576 8.60677 126.617 8.2474 126.617 7.86719V7.6875C126.617 7.3125 126.576 6.95833 126.492 6.625C126.414 6.28646 126.289 5.98698 126.117 5.72656C125.951 5.46615 125.737 5.26302 125.477 5.11719C125.221 4.96615 124.917 4.89062 124.562 4.89062C124.208 4.89062 123.901 4.96615 123.641 5.11719C123.385 5.26302 123.174 5.46615 123.008 5.72656C122.841 5.98698 122.719 6.28646 122.641 6.625C122.562 6.95833 122.523 7.3125 122.523 7.6875ZM131.969 5.15625V12H130.086V3.54688H131.883L131.969 5.15625ZM134.555 3.49219L134.539 5.24219C134.424 5.22135 134.299 5.20573 134.164 5.19531C134.034 5.1849 133.904 5.17969 133.773 5.17969C133.451 5.17969 133.167 5.22656 132.922 5.32031C132.677 5.40885 132.471 5.53906 132.305 5.71094C132.143 5.8776 132.018 6.08073 131.93 6.32031C131.841 6.5599 131.789 6.82812 131.773 7.125L131.344 7.15625C131.344 6.625 131.396 6.13281 131.5 5.67969C131.604 5.22656 131.76 4.82812 131.969 4.48438C132.182 4.14062 132.448 3.8724 132.766 3.67969C133.089 3.48698 133.461 3.39062 133.883 3.39062C133.997 3.39062 134.12 3.40104 134.25 3.42188C134.385 3.44271 134.487 3.46615 134.555 3.49219ZM144.461 9.71094C144.461 9.52344 144.414 9.35417 144.32 9.20312C144.227 9.04688 144.047 8.90625 143.781 8.78125C143.521 8.65625 143.135 8.54167 142.625 8.4375C142.177 8.33854 141.766 8.22135 141.391 8.08594C141.021 7.94531 140.703 7.77604 140.438 7.57812C140.172 7.38021 139.966 7.14583 139.82 6.875C139.674 6.60417 139.602 6.29167 139.602 5.9375C139.602 5.59375 139.677 5.26823 139.828 4.96094C139.979 4.65365 140.195 4.38281 140.477 4.14844C140.758 3.91406 141.099 3.72917 141.5 3.59375C141.906 3.45833 142.359 3.39062 142.859 3.39062C143.568 3.39062 144.174 3.51042 144.68 3.75C145.19 3.98438 145.581 4.30469 145.852 4.71094C146.122 5.11198 146.258 5.5651 146.258 6.07031H144.375C144.375 5.84635 144.318 5.63802 144.203 5.44531C144.094 5.2474 143.927 5.08854 143.703 4.96875C143.479 4.84375 143.198 4.78125 142.859 4.78125C142.536 4.78125 142.268 4.83333 142.055 4.9375C141.846 5.03646 141.69 5.16667 141.586 5.32812C141.487 5.48958 141.438 5.66667 141.438 5.85938C141.438 6 141.464 6.1276 141.516 6.24219C141.573 6.35156 141.667 6.45312 141.797 6.54688C141.927 6.63542 142.104 6.71875 142.328 6.79688C142.557 6.875 142.844 6.95052 143.188 7.02344C143.833 7.15885 144.388 7.33333 144.852 7.54688C145.32 7.75521 145.68 8.02604 145.93 8.35938C146.18 8.6875 146.305 9.10417 146.305 9.60938C146.305 9.98438 146.224 10.3281 146.062 10.6406C145.906 10.9479 145.677 11.2161 145.375 11.4453C145.073 11.6693 144.711 11.8438 144.289 11.9688C143.872 12.0938 143.404 12.1562 142.883 12.1562C142.117 12.1562 141.469 12.0208 140.938 11.75C140.406 11.474 140.003 11.1224 139.727 10.6953C139.456 10.263 139.32 9.8151 139.32 9.35156H141.141C141.161 9.70052 141.258 9.97917 141.43 10.1875C141.607 10.3906 141.826 10.5391 142.086 10.6328C142.352 10.7214 142.625 10.7656 142.906 10.7656C143.245 10.7656 143.529 10.7214 143.758 10.6328C143.987 10.5391 144.161 10.4141 144.281 10.2578C144.401 10.0964 144.461 9.91406 144.461 9.71094ZM149.969 3.54688V12H148.078V3.54688H149.969ZM147.953 1.32812C147.953 1.04167 148.047 0.804688 148.234 0.617188C148.427 0.424479 148.693 0.328125 149.031 0.328125C149.365 0.328125 149.628 0.424479 149.82 0.617188C150.013 0.804688 150.109 1.04167 150.109 1.32812C150.109 1.60938 150.013 1.84375 149.82 2.03125C149.628 2.21875 149.365 2.3125 149.031 2.3125C148.693 2.3125 148.427 2.21875 148.234 2.03125C148.047 1.84375 147.953 1.60938 147.953 1.32812ZM155.906 3.54688V4.92188H151.141V3.54688H155.906ZM152.516 1.47656H154.398V9.66406C154.398 9.92448 154.435 10.125 154.508 10.2656C154.586 10.401 154.693 10.4922 154.828 10.5391C154.964 10.5859 155.122 10.6094 155.305 10.6094C155.435 10.6094 155.56 10.6016 155.68 10.5859C155.799 10.5703 155.896 10.5547 155.969 10.5391L155.977 11.9766C155.82 12.0234 155.638 12.0651 155.43 12.1016C155.227 12.138 154.992 12.1562 154.727 12.1562C154.294 12.1562 153.911 12.0807 153.578 11.9297C153.245 11.7734 152.984 11.5208 152.797 11.1719C152.609 10.8229 152.516 10.3594 152.516 9.78125V1.47656ZM166.109 10.3047V6.27344C166.109 5.97135 166.055 5.71094 165.945 5.49219C165.836 5.27344 165.669 5.10417 165.445 4.98438C165.227 4.86458 164.951 4.80469 164.617 4.80469C164.31 4.80469 164.044 4.85677 163.82 4.96094C163.596 5.0651 163.422 5.20573 163.297 5.38281C163.172 5.5599 163.109 5.76042 163.109 5.98438H161.234C161.234 5.65104 161.315 5.32812 161.477 5.01562C161.638 4.70312 161.872 4.42448 162.18 4.17969C162.487 3.9349 162.854 3.74219 163.281 3.60156C163.708 3.46094 164.188 3.39062 164.719 3.39062C165.354 3.39062 165.917 3.4974 166.406 3.71094C166.901 3.92448 167.289 4.2474 167.57 4.67969C167.857 5.10677 168 5.64323 168 6.28906V10.0469C168 10.4323 168.026 10.7786 168.078 11.0859C168.135 11.388 168.216 11.651 168.32 11.875V12H166.391C166.302 11.7969 166.232 11.5391 166.18 11.2266C166.133 10.9089 166.109 10.6016 166.109 10.3047ZM166.383 6.85938L166.398 8.02344H165.047C164.698 8.02344 164.391 8.05729 164.125 8.125C163.859 8.1875 163.638 8.28125 163.461 8.40625C163.284 8.53125 163.151 8.68229 163.062 8.85938C162.974 9.03646 162.93 9.23698 162.93 9.46094C162.93 9.6849 162.982 9.89062 163.086 10.0781C163.19 10.2604 163.341 10.4036 163.539 10.5078C163.742 10.612 163.987 10.6641 164.273 10.6641C164.659 10.6641 164.995 10.5859 165.281 10.4297C165.573 10.2682 165.802 10.0729 165.969 9.84375C166.135 9.60938 166.224 9.38802 166.234 9.17969L166.844 10.0156C166.781 10.2292 166.674 10.4583 166.523 10.7031C166.372 10.9479 166.174 11.1823 165.93 11.4062C165.69 11.625 165.401 11.8047 165.062 11.9453C164.729 12.0859 164.344 12.1562 163.906 12.1562C163.354 12.1562 162.862 12.0469 162.43 11.8281C161.997 11.6042 161.659 11.3047 161.414 10.9297C161.169 10.5495 161.047 10.1198 161.047 9.64062C161.047 9.19271 161.13 8.79688 161.297 8.45312C161.469 8.10417 161.719 7.8125 162.047 7.57812C162.38 7.34375 162.786 7.16667 163.266 7.04688C163.745 6.92188 164.292 6.85938 164.906 6.85938H166.383ZM171.852 5.26562V12H169.969V3.54688H171.742L171.852 5.26562ZM171.547 7.46094L170.906 7.45312C170.906 6.86979 170.979 6.33073 171.125 5.83594C171.271 5.34115 171.484 4.91146 171.766 4.54688C172.047 4.17708 172.396 3.89323 172.812 3.69531C173.234 3.49219 173.721 3.39062 174.273 3.39062C174.659 3.39062 175.01 3.44792 175.328 3.5625C175.651 3.67188 175.93 3.84635 176.164 4.08594C176.404 4.32552 176.586 4.63281 176.711 5.00781C176.841 5.38281 176.906 5.83594 176.906 6.36719V12H175.023V6.53125C175.023 6.11979 174.961 5.79688 174.836 5.5625C174.716 5.32812 174.542 5.16146 174.312 5.0625C174.089 4.95833 173.82 4.90625 173.508 4.90625C173.154 4.90625 172.852 4.97396 172.602 5.10938C172.357 5.24479 172.156 5.42969 172 5.66406C171.844 5.89844 171.729 6.16927 171.656 6.47656C171.583 6.78385 171.547 7.11198 171.547 7.46094ZM176.789 6.96094L175.906 7.15625C175.906 6.64583 175.977 6.16406 176.117 5.71094C176.263 5.2526 176.474 4.85156 176.75 4.50781C177.031 4.15885 177.378 3.88542 177.789 3.6875C178.201 3.48958 178.672 3.39062 179.203 3.39062C179.635 3.39062 180.021 3.45052 180.359 3.57031C180.703 3.6849 180.995 3.86719 181.234 4.11719C181.474 4.36719 181.656 4.69271 181.781 5.09375C181.906 5.48958 181.969 5.96875 181.969 6.53125V12H180.078V6.52344C180.078 6.09635 180.016 5.76562 179.891 5.53125C179.771 5.29688 179.599 5.13542 179.375 5.04688C179.151 4.95312 178.883 4.90625 178.57 4.90625C178.279 4.90625 178.021 4.96094 177.797 5.07031C177.578 5.17448 177.393 5.32292 177.242 5.51562C177.091 5.70312 176.977 5.91927 176.898 6.16406C176.826 6.40885 176.789 6.67448 176.789 6.96094ZM187.633 12.1562C187.008 12.1562 186.443 12.0547 185.938 11.8516C185.438 11.6432 185.01 11.3542 184.656 10.9844C184.307 10.6146 184.039 10.1797 183.852 9.67969C183.664 9.17969 183.57 8.64062 183.57 8.0625V7.75C183.57 7.08854 183.667 6.48958 183.859 5.95312C184.052 5.41667 184.32 4.95833 184.664 4.57812C185.008 4.19271 185.414 3.89844 185.883 3.69531C186.352 3.49219 186.859 3.39062 187.406 3.39062C188.01 3.39062 188.539 3.49219 188.992 3.69531C189.445 3.89844 189.82 4.1849 190.117 4.55469C190.419 4.91927 190.643 5.35417 190.789 5.85938C190.94 6.36458 191.016 6.92188 191.016 7.53125V8.33594H184.484V6.98438H189.156V6.83594C189.146 6.4974 189.078 6.17969 188.953 5.88281C188.833 5.58594 188.648 5.34635 188.398 5.16406C188.148 4.98177 187.815 4.89062 187.398 4.89062C187.086 4.89062 186.807 4.95833 186.562 5.09375C186.323 5.22396 186.122 5.41406 185.961 5.66406C185.799 5.91406 185.674 6.21615 185.586 6.57031C185.503 6.91927 185.461 7.3125 185.461 7.75V8.0625C185.461 8.43229 185.51 8.77604 185.609 9.09375C185.714 9.40625 185.865 9.67969 186.062 9.91406C186.26 10.1484 186.5 10.3333 186.781 10.4688C187.062 10.599 187.383 10.6641 187.742 10.6641C188.195 10.6641 188.599 10.5729 188.953 10.3906C189.307 10.2083 189.615 9.95052 189.875 9.61719L190.867 10.5781C190.685 10.8438 190.448 11.099 190.156 11.3438C189.865 11.5833 189.508 11.7786 189.086 11.9297C188.669 12.0807 188.185 12.1562 187.633 12.1562ZM196.359 3.54688V4.92188H191.594V3.54688H196.359ZM192.969 1.47656H194.852V9.66406C194.852 9.92448 194.888 10.125 194.961 10.2656C195.039 10.401 195.146 10.4922 195.281 10.5391C195.417 10.5859 195.576 10.6094 195.758 10.6094C195.888 10.6094 196.013 10.6016 196.133 10.5859C196.253 10.5703 196.349 10.5547 196.422 10.5391L196.43 11.9766C196.273 12.0234 196.091 12.0651 195.883 12.1016C195.68 12.138 195.445 12.1562 195.18 12.1562C194.747 12.1562 194.365 12.0807 194.031 11.9297C193.698 11.7734 193.438 11.5208 193.25 11.1719C193.062 10.8229 192.969 10.3594 192.969 9.78125V1.47656ZM199.578 10.1875L199.57 11.5312C199.57 12.0625 199.438 12.6094 199.172 13.1719C198.906 13.7344 198.555 14.1979 198.117 14.5625L197.109 13.9766C197.255 13.7422 197.388 13.5052 197.508 13.2656C197.628 13.026 197.724 12.7708 197.797 12.5C197.87 12.2292 197.906 11.9297 197.906 11.6016V10.1875H199.578ZM4.42188 29.6562C4.72917 29.6562 5.00521 29.5964 5.25 29.4766C5.5 29.3516 5.70052 29.1797 5.85156 28.9609C6.00781 28.7422 6.09375 28.4896 6.10938 28.2031H7.88281C7.8724 28.75 7.71094 29.2474 7.39844 29.6953C7.08594 30.1432 6.67188 30.5 6.15625 30.7656C5.64062 31.026 5.07031 31.1562 4.44531 31.1562C3.79948 31.1562 3.23698 31.0469 2.75781 30.8281C2.27865 30.6042 1.88021 30.2969 1.5625 29.9062C1.24479 29.5156 1.00521 29.0651 0.84375 28.5547C0.6875 28.0443 0.609375 27.4974 0.609375 26.9141V26.6406C0.609375 26.0573 0.6875 25.5104 0.84375 25C1.00521 24.4844 1.24479 24.0312 1.5625 23.6406C1.88021 23.25 2.27865 22.9453 2.75781 22.7266C3.23698 22.5026 3.79688 22.3906 4.4375 22.3906C5.11458 22.3906 5.70833 22.526 6.21875 22.7969C6.72917 23.0625 7.13021 23.4349 7.42188 23.9141C7.71875 24.388 7.8724 24.9401 7.88281 25.5703H6.10938C6.09375 25.2578 6.01562 24.9766 5.875 24.7266C5.73958 24.4714 5.54688 24.2682 5.29688 24.1172C5.05208 23.9661 4.75781 23.8906 4.41406 23.8906C4.03385 23.8906 3.71875 23.9688 3.46875 24.125C3.21875 24.276 3.02344 24.4844 2.88281 24.75C2.74219 25.0104 2.64062 25.3047 2.57812 25.6328C2.52083 25.9557 2.49219 26.2917 2.49219 26.6406V26.9141C2.49219 27.263 2.52083 27.6016 2.57812 27.9297C2.63542 28.2578 2.73438 28.5521 2.875 28.8125C3.02083 29.0677 3.21875 29.2734 3.46875 29.4297C3.71875 29.5807 4.03646 29.6562 4.42188 29.6562ZM8.96875 26.8672V26.6875C8.96875 26.0781 9.05729 25.513 9.23438 24.9922C9.41146 24.4661 9.66667 24.0104 10 23.625C10.3385 23.2344 10.75 22.9323 11.2344 22.7188C11.724 22.5 12.276 22.3906 12.8906 22.3906C13.5104 22.3906 14.0625 22.5 14.5469 22.7188C15.0365 22.9323 15.4505 23.2344 15.7891 23.625C16.1276 24.0104 16.3854 24.4661 16.5625 24.9922C16.7396 25.513 16.8281 26.0781 16.8281 26.6875V26.8672C16.8281 27.4766 16.7396 28.0417 16.5625 28.5625C16.3854 29.0833 16.1276 29.5391 15.7891 29.9297C15.4505 30.3151 15.0391 30.6172 14.5547 30.8359C14.0703 31.0495 13.5208 31.1562 12.9062 31.1562C12.2865 31.1562 11.7318 31.0495 11.2422 30.8359C10.7578 30.6172 10.3464 30.3151 10.0078 29.9297C9.66927 29.5391 9.41146 29.0833 9.23438 28.5625C9.05729 28.0417 8.96875 27.4766 8.96875 26.8672ZM10.8516 26.6875V26.8672C10.8516 27.2474 10.8906 27.6068 10.9688 27.9453C11.0469 28.2839 11.1693 28.5807 11.3359 28.8359C11.5026 29.0911 11.7161 29.2917 11.9766 29.4375C12.237 29.5833 12.5469 29.6562 12.9062 29.6562C13.2552 29.6562 13.5573 29.5833 13.8125 29.4375C14.0729 29.2917 14.2865 29.0911 14.4531 28.8359C14.6198 28.5807 14.7422 28.2839 14.8203 27.9453C14.9036 27.6068 14.9453 27.2474 14.9453 26.8672V26.6875C14.9453 26.3125 14.9036 25.9583 14.8203 25.625C14.7422 25.2865 14.6172 24.987 14.4453 24.7266C14.2786 24.4661 14.0651 24.263 13.8047 24.1172C13.5495 23.9661 13.2448 23.8906 12.8906 23.8906C12.5365 23.8906 12.2292 23.9661 11.9688 24.1172C11.7135 24.263 11.5026 24.4661 11.3359 24.7266C11.1693 24.987 11.0469 25.2865 10.9688 25.625C10.8906 25.9583 10.8516 26.3125 10.8516 26.6875ZM20.2734 24.3516V31H18.3906V22.5469H20.1641L20.2734 24.3516ZM19.9375 26.4609L19.3281 26.4531C19.3333 25.8542 19.4167 25.3047 19.5781 24.8047C19.7448 24.3047 19.974 23.875 20.2656 23.5156C20.5625 23.1562 20.9167 22.8802 21.3281 22.6875C21.7396 22.4896 22.1979 22.3906 22.7031 22.3906C23.1094 22.3906 23.4766 22.4479 23.8047 22.5625C24.138 22.6719 24.4219 22.8516 24.6562 23.1016C24.8958 23.3516 25.0781 23.6771 25.2031 24.0781C25.3281 24.474 25.3906 24.9609 25.3906 25.5391V31H23.5V25.5312C23.5 25.125 23.4401 24.8047 23.3203 24.5703C23.2057 24.3307 23.0365 24.1615 22.8125 24.0625C22.5938 23.9583 22.3203 23.9062 21.9922 23.9062C21.6693 23.9062 21.3802 23.974 21.125 24.1094C20.8698 24.2448 20.6536 24.4297 20.4766 24.6641C20.3047 24.8984 20.1719 25.1693 20.0781 25.4766C19.9844 25.7839 19.9375 26.112 19.9375 26.4609ZM32.0547 28.7109C32.0547 28.5234 32.0078 28.3542 31.9141 28.2031C31.8203 28.0469 31.6406 27.9062 31.375 27.7812C31.1146 27.6562 30.7292 27.5417 30.2188 27.4375C29.7708 27.3385 29.3594 27.2214 28.9844 27.0859C28.6146 26.9453 28.2969 26.776 28.0312 26.5781C27.7656 26.3802 27.5599 26.1458 27.4141 25.875C27.2682 25.6042 27.1953 25.2917 27.1953 24.9375C27.1953 24.5938 27.2708 24.2682 27.4219 23.9609C27.5729 23.6536 27.7891 23.3828 28.0703 23.1484C28.3516 22.9141 28.6927 22.7292 29.0938 22.5938C29.5 22.4583 29.9531 22.3906 30.4531 22.3906C31.1615 22.3906 31.7682 22.5104 32.2734 22.75C32.7839 22.9844 33.1745 23.3047 33.4453 23.7109C33.7161 24.112 33.8516 24.5651 33.8516 25.0703H31.9688C31.9688 24.8464 31.9115 24.638 31.7969 24.4453C31.6875 24.2474 31.5208 24.0885 31.2969 23.9688C31.0729 23.8438 30.7917 23.7812 30.4531 23.7812C30.1302 23.7812 29.862 23.8333 29.6484 23.9375C29.4401 24.0365 29.2839 24.1667 29.1797 24.3281C29.0807 24.4896 29.0312 24.6667 29.0312 24.8594C29.0312 25 29.0573 25.1276 29.1094 25.2422C29.1667 25.3516 29.2604 25.4531 29.3906 25.5469C29.5208 25.6354 29.6979 25.7188 29.9219 25.7969C30.151 25.875 30.4375 25.9505 30.7812 26.0234C31.4271 26.1589 31.9818 26.3333 32.4453 26.5469C32.9141 26.7552 33.2734 27.026 33.5234 27.3594C33.7734 27.6875 33.8984 28.1042 33.8984 28.6094C33.8984 28.9844 33.8177 29.3281 33.6562 29.6406C33.5 29.9479 33.2708 30.2161 32.9688 30.4453C32.6667 30.6693 32.3047 30.8438 31.8828 30.9688C31.4661 31.0938 30.9974 31.1562 30.4766 31.1562C29.7109 31.1562 29.0625 31.0208 28.5312 30.75C28 30.474 27.5964 30.1224 27.3203 29.6953C27.0495 29.263 26.9141 28.8151 26.9141 28.3516H28.7344C28.7552 28.7005 28.8516 28.9792 29.0234 29.1875C29.2005 29.3906 29.4193 29.5391 29.6797 29.6328C29.9453 29.7214 30.2188 29.7656 30.5 29.7656C30.8385 29.7656 31.1224 29.7214 31.3516 29.6328C31.5807 29.5391 31.7552 29.4141 31.875 29.2578C31.9948 29.0964 32.0547 28.9141 32.0547 28.7109ZM39.2734 31.1562C38.6484 31.1562 38.0833 31.0547 37.5781 30.8516C37.0781 30.6432 36.651 30.3542 36.2969 29.9844C35.9479 29.6146 35.6797 29.1797 35.4922 28.6797C35.3047 28.1797 35.2109 27.6406 35.2109 27.0625V26.75C35.2109 26.0885 35.3073 25.4896 35.5 24.9531C35.6927 24.4167 35.9609 23.9583 36.3047 23.5781C36.6484 23.1927 37.0547 22.8984 37.5234 22.6953C37.9922 22.4922 38.5 22.3906 39.0469 22.3906C39.651 22.3906 40.1797 22.4922 40.6328 22.6953C41.0859 22.8984 41.4609 23.1849 41.7578 23.5547C42.0599 23.9193 42.2839 24.3542 42.4297 24.8594C42.5807 25.3646 42.6562 25.9219 42.6562 26.5312V27.3359H36.125V25.9844H40.7969V25.8359C40.7865 25.4974 40.7188 25.1797 40.5938 24.8828C40.474 24.5859 40.2891 24.3464 40.0391 24.1641C39.7891 23.9818 39.4557 23.8906 39.0391 23.8906C38.7266 23.8906 38.4479 23.9583 38.2031 24.0938C37.9635 24.224 37.763 24.4141 37.6016 24.6641C37.4401 24.9141 37.3151 25.2161 37.2266 25.5703C37.1432 25.9193 37.1016 26.3125 37.1016 26.75V27.0625C37.1016 27.4323 37.151 27.776 37.25 28.0938C37.3542 28.4062 37.5052 28.6797 37.7031 28.9141C37.901 29.1484 38.1406 29.3333 38.4219 29.4688C38.7031 29.599 39.0234 29.6641 39.3828 29.6641C39.8359 29.6641 40.2396 29.5729 40.5938 29.3906C40.9479 29.2083 41.2552 28.9505 41.5156 28.6172L42.5078 29.5781C42.3255 29.8438 42.0885 30.099 41.7969 30.3438C41.5052 30.5833 41.1484 30.7786 40.7266 30.9297C40.3099 31.0807 39.8255 31.1562 39.2734 31.1562ZM47.5781 29.6562C47.8854 29.6562 48.1615 29.5964 48.4062 29.4766C48.6562 29.3516 48.8568 29.1797 49.0078 28.9609C49.1641 28.7422 49.25 28.4896 49.2656 28.2031H51.0391C51.0286 28.75 50.8672 29.2474 50.5547 29.6953C50.2422 30.1432 49.8281 30.5 49.3125 30.7656C48.7969 31.026 48.2266 31.1562 47.6016 31.1562C46.9557 31.1562 46.3932 31.0469 45.9141 30.8281C45.4349 30.6042 45.0365 30.2969 44.7188 29.9062C44.401 29.5156 44.1615 29.0651 44 28.5547C43.8438 28.0443 43.7656 27.4974 43.7656 26.9141V26.6406C43.7656 26.0573 43.8438 25.5104 44 25C44.1615 24.4844 44.401 24.0312 44.7188 23.6406C45.0365 23.25 45.4349 22.9453 45.9141 22.7266C46.3932 22.5026 46.9531 22.3906 47.5938 22.3906C48.2708 22.3906 48.8646 22.526 49.375 22.7969C49.8854 23.0625 50.2865 23.4349 50.5781 23.9141C50.875 24.388 51.0286 24.9401 51.0391 25.5703H49.2656C49.25 25.2578 49.1719 24.9766 49.0312 24.7266C48.8958 24.4714 48.7031 24.2682 48.4531 24.1172C48.2083 23.9661 47.9141 23.8906 47.5703 23.8906C47.1901 23.8906 46.875 23.9688 46.625 24.125C46.375 24.276 46.1797 24.4844 46.0391 24.75C45.8984 25.0104 45.7969 25.3047 45.7344 25.6328C45.6771 25.9557 45.6484 26.2917 45.6484 26.6406V26.9141C45.6484 27.263 45.6771 27.6016 45.7344 27.9297C45.7917 28.2578 45.8906 28.5521 46.0312 28.8125C46.1771 29.0677 46.375 29.2734 46.625 29.4297C46.875 29.5807 47.1927 29.6562 47.5781 29.6562ZM56.3594 22.5469V23.9219H51.5938V22.5469H56.3594ZM52.9688 20.4766H54.8516V28.6641C54.8516 28.9245 54.888 29.125 54.9609 29.2656C55.0391 29.401 55.1458 29.4922 55.2812 29.5391C55.4167 29.5859 55.5755 29.6094 55.7578 29.6094C55.888 29.6094 56.013 29.6016 56.1328 29.5859C56.2526 29.5703 56.349 29.5547 56.4219 29.5391L56.4297 30.9766C56.2734 31.0234 56.0911 31.0651 55.8828 31.1016C55.6797 31.138 55.4453 31.1562 55.1797 31.1562C54.7474 31.1562 54.3646 31.0807 54.0312 30.9297C53.6979 30.7734 53.4375 30.5208 53.25 30.1719C53.0625 29.8229 52.9688 29.3594 52.9688 28.7812V20.4766ZM61.5391 31.1562C60.9141 31.1562 60.349 31.0547 59.8438 30.8516C59.3438 30.6432 58.9167 30.3542 58.5625 29.9844C58.2135 29.6146 57.9453 29.1797 57.7578 28.6797C57.5703 28.1797 57.4766 27.6406 57.4766 27.0625V26.75C57.4766 26.0885 57.5729 25.4896 57.7656 24.9531C57.9583 24.4167 58.2266 23.9583 58.5703 23.5781C58.9141 23.1927 59.3203 22.8984 59.7891 22.6953C60.2578 22.4922 60.7656 22.3906 61.3125 22.3906C61.9167 22.3906 62.4453 22.4922 62.8984 22.6953C63.3516 22.8984 63.7266 23.1849 64.0234 23.5547C64.3255 23.9193 64.5495 24.3542 64.6953 24.8594C64.8464 25.3646 64.9219 25.9219 64.9219 26.5312V27.3359H58.3906V25.9844H63.0625V25.8359C63.0521 25.4974 62.9844 25.1797 62.8594 24.8828C62.7396 24.5859 62.5547 24.3464 62.3047 24.1641C62.0547 23.9818 61.7214 23.8906 61.3047 23.8906C60.9922 23.8906 60.7135 23.9583 60.4688 24.0938C60.2292 24.224 60.0286 24.4141 59.8672 24.6641C59.7057 24.9141 59.5807 25.2161 59.4922 25.5703C59.4089 25.9193 59.3672 26.3125 59.3672 26.75V27.0625C59.3672 27.4323 59.4167 27.776 59.5156 28.0938C59.6198 28.4062 59.7708 28.6797 59.9688 28.9141C60.1667 29.1484 60.4062 29.3333 60.6875 29.4688C60.9688 29.599 61.2891 29.6641 61.6484 29.6641C62.1016 29.6641 62.5052 29.5729 62.8594 29.3906C63.2135 29.2083 63.5208 28.9505 63.7812 28.6172L64.7734 29.5781C64.5911 29.8438 64.3542 30.099 64.0625 30.3438C63.7708 30.5833 63.4141 30.7786 62.9922 30.9297C62.5755 31.0807 62.0911 31.1562 61.5391 31.1562ZM70.2656 22.5469V23.9219H65.5V22.5469H70.2656ZM66.875 20.4766H68.7578V28.6641C68.7578 28.9245 68.7943 29.125 68.8672 29.2656C68.9453 29.401 69.0521 29.4922 69.1875 29.5391C69.3229 29.5859 69.4818 29.6094 69.6641 29.6094C69.7943 29.6094 69.9193 29.6016 70.0391 29.5859C70.1589 29.5703 70.2552 29.5547 70.3281 29.5391L70.3359 30.9766C70.1797 31.0234 69.9974 31.0651 69.7891 31.1016C69.5859 31.138 69.3516 31.1562 69.0859 31.1562C68.6536 31.1562 68.2708 31.0807 67.9375 30.9297C67.6042 30.7734 67.3438 30.5208 67.1562 30.1719C66.9688 29.8229 66.875 29.3594 66.875 28.7812V20.4766ZM76.8047 29.0078V22.5469H78.6953V31H76.9141L76.8047 29.0078ZM77.0703 27.25L77.7031 27.2344C77.7031 27.8021 77.6406 28.3255 77.5156 28.8047C77.3906 29.2786 77.1979 29.6927 76.9375 30.0469C76.6771 30.3958 76.3438 30.6693 75.9375 30.8672C75.5312 31.0599 75.0443 31.1562 74.4766 31.1562C74.0651 31.1562 73.6875 31.0964 73.3438 30.9766C73 30.8568 72.7031 30.6719 72.4531 30.4219C72.2083 30.1719 72.0182 29.8464 71.8828 29.4453C71.7474 29.0443 71.6797 28.5651 71.6797 28.0078V22.5469H73.5625V28.0234C73.5625 28.3307 73.599 28.5885 73.6719 28.7969C73.7448 29 73.8438 29.1641 73.9688 29.2891C74.0938 29.4141 74.2396 29.5026 74.4062 29.5547C74.5729 29.6068 74.75 29.6328 74.9375 29.6328C75.474 29.6328 75.8958 29.5286 76.2031 29.3203C76.5156 29.1068 76.737 28.8203 76.8672 28.4609C77.0026 28.1016 77.0703 27.6979 77.0703 27.25ZM82.5156 24.1562V31H80.6328V22.5469H82.4297L82.5156 24.1562ZM85.1016 22.4922L85.0859 24.2422C84.9714 24.2214 84.8464 24.2057 84.7109 24.1953C84.5807 24.1849 84.4505 24.1797 84.3203 24.1797C83.9974 24.1797 83.7135 24.2266 83.4688 24.3203C83.224 24.4089 83.0182 24.5391 82.8516 24.7109C82.6901 24.8776 82.5651 25.0807 82.4766 25.3203C82.388 25.5599 82.3359 25.8281 82.3203 26.125L81.8906 26.1562C81.8906 25.625 81.9427 25.1328 82.0469 24.6797C82.151 24.2266 82.3073 23.8281 82.5156 23.4844C82.7292 23.1406 82.9948 22.8724 83.3125 22.6797C83.6354 22.487 84.0078 22.3906 84.4297 22.3906C84.5443 22.3906 84.6667 22.401 84.7969 22.4219C84.9323 22.4427 85.0339 22.4661 85.1016 22.4922ZM95.0312 29.3047V25.2734C95.0312 24.9714 94.9766 24.7109 94.8672 24.4922C94.7578 24.2734 94.5911 24.1042 94.3672 23.9844C94.1484 23.8646 93.8724 23.8047 93.5391 23.8047C93.2318 23.8047 92.9661 23.8568 92.7422 23.9609C92.5182 24.0651 92.3438 24.2057 92.2188 24.3828C92.0938 24.5599 92.0312 24.7604 92.0312 24.9844H90.1562C90.1562 24.651 90.237 24.3281 90.3984 24.0156C90.5599 23.7031 90.7943 23.4245 91.1016 23.1797C91.4089 22.9349 91.776 22.7422 92.2031 22.6016C92.6302 22.4609 93.1094 22.3906 93.6406 22.3906C94.276 22.3906 94.8385 22.4974 95.3281 22.7109C95.8229 22.9245 96.2109 23.2474 96.4922 23.6797C96.7786 24.1068 96.9219 24.6432 96.9219 25.2891V29.0469C96.9219 29.4323 96.9479 29.7786 97 30.0859C97.0573 30.388 97.138 30.651 97.2422 30.875V31H95.3125C95.224 30.7969 95.1536 30.5391 95.1016 30.2266C95.0547 29.9089 95.0312 29.6016 95.0312 29.3047ZM95.3047 25.8594L95.3203 27.0234H93.9688C93.6198 27.0234 93.3125 27.0573 93.0469 27.125C92.7812 27.1875 92.5599 27.2812 92.3828 27.4062C92.2057 27.5312 92.0729 27.6823 91.9844 27.8594C91.8958 28.0365 91.8516 28.237 91.8516 28.4609C91.8516 28.6849 91.9036 28.8906 92.0078 29.0781C92.112 29.2604 92.263 29.4036 92.4609 29.5078C92.6641 29.612 92.9089 29.6641 93.1953 29.6641C93.5807 29.6641 93.9167 29.5859 94.2031 29.4297C94.4948 29.2682 94.724 29.0729 94.8906 28.8438C95.0573 28.6094 95.1458 28.388 95.1562 28.1797L95.7656 29.0156C95.7031 29.2292 95.5964 29.4583 95.4453 29.7031C95.2943 29.9479 95.0964 30.1823 94.8516 30.4062C94.612 30.625 94.3229 30.8047 93.9844 30.9453C93.651 31.0859 93.2656 31.1562 92.8281 31.1562C92.276 31.1562 91.7839 31.0469 91.3516 30.8281C90.9193 30.6042 90.5807 30.3047 90.3359 29.9297C90.0911 29.5495 89.9688 29.1198 89.9688 28.6406C89.9688 28.1927 90.0521 27.7969 90.2188 27.4531C90.3906 27.1042 90.6406 26.8125 90.9688 26.5781C91.3021 26.3438 91.7083 26.1667 92.1875 26.0469C92.6667 25.9219 93.2135 25.8594 93.8281 25.8594H95.3047ZM104.047 29.25V19H105.938V31H104.227L104.047 29.25ZM98.5469 26.8672V26.7031C98.5469 26.0625 98.6224 25.4792 98.7734 24.9531C98.9245 24.4219 99.1432 23.9661 99.4297 23.5859C99.7161 23.2005 100.065 22.9062 100.477 22.7031C100.888 22.4948 101.352 22.3906 101.867 22.3906C102.378 22.3906 102.826 22.4896 103.211 22.6875C103.596 22.8854 103.924 23.1693 104.195 23.5391C104.466 23.9036 104.682 24.3411 104.844 24.8516C105.005 25.3568 105.12 25.9193 105.188 26.5391V27.0625C105.12 27.6667 105.005 28.2188 104.844 28.7188C104.682 29.2188 104.466 29.651 104.195 30.0156C103.924 30.3802 103.594 30.6615 103.203 30.8594C102.818 31.0573 102.367 31.1562 101.852 31.1562C101.341 31.1562 100.88 31.0495 100.469 30.8359C100.062 30.6224 99.7161 30.3229 99.4297 29.9375C99.1432 29.5521 98.9245 29.099 98.7734 28.5781C98.6224 28.0521 98.5469 27.4818 98.5469 26.8672ZM100.43 26.7031V26.8672C100.43 27.2526 100.464 27.612 100.531 27.9453C100.604 28.2786 100.716 28.5729 100.867 28.8281C101.018 29.0781 101.214 29.276 101.453 29.4219C101.698 29.5625 101.99 29.6328 102.328 29.6328C102.755 29.6328 103.107 29.5391 103.383 29.3516C103.659 29.1641 103.875 28.9115 104.031 28.5938C104.193 28.2708 104.302 27.9115 104.359 27.5156V26.1016C104.328 25.7943 104.263 25.5078 104.164 25.2422C104.07 24.9766 103.943 24.7448 103.781 24.5469C103.62 24.3438 103.419 24.1875 103.18 24.0781C102.945 23.9635 102.667 23.9062 102.344 23.9062C102 23.9062 101.708 23.9792 101.469 24.125C101.229 24.2708 101.031 24.4714 100.875 24.7266C100.724 24.9818 100.612 25.2786 100.539 25.6172C100.466 25.9557 100.43 26.3177 100.43 26.7031ZM109.922 22.5469V31H108.031V22.5469H109.922ZM107.906 20.3281C107.906 20.0417 108 19.8047 108.188 19.6172C108.38 19.4245 108.646 19.3281 108.984 19.3281C109.318 19.3281 109.581 19.4245 109.773 19.6172C109.966 19.8047 110.062 20.0417 110.062 20.3281C110.062 20.6094 109.966 20.8438 109.773 21.0312C109.581 21.2188 109.318 21.3125 108.984 21.3125C108.646 21.3125 108.38 21.2188 108.188 21.0312C108 20.8438 107.906 20.6094 107.906 20.3281ZM113.875 24.1719V34.25H111.992V22.5469H113.727L113.875 24.1719ZM119.383 26.6953V26.8594C119.383 27.474 119.31 28.0443 119.164 28.5703C119.023 29.0911 118.812 29.5469 118.531 29.9375C118.255 30.3229 117.914 30.6224 117.508 30.8359C117.102 31.0495 116.633 31.1562 116.102 31.1562C115.576 31.1562 115.115 31.0599 114.719 30.8672C114.328 30.6693 113.997 30.3906 113.727 30.0312C113.456 29.6719 113.237 29.25 113.07 28.7656C112.909 28.276 112.794 27.7396 112.727 27.1562V26.5234C112.794 25.9036 112.909 25.3411 113.07 24.8359C113.237 24.3307 113.456 23.8958 113.727 23.5312C113.997 23.1667 114.328 22.8854 114.719 22.6875C115.109 22.4896 115.565 22.3906 116.086 22.3906C116.617 22.3906 117.089 22.4948 117.5 22.7031C117.911 22.9062 118.258 23.1979 118.539 23.5781C118.82 23.9531 119.031 24.4062 119.172 24.9375C119.312 25.4635 119.383 26.0495 119.383 26.6953ZM117.5 26.8594V26.6953C117.5 26.3047 117.464 25.9427 117.391 25.6094C117.318 25.2708 117.203 24.974 117.047 24.7188C116.891 24.4635 116.69 24.2656 116.445 24.125C116.206 23.9792 115.917 23.9062 115.578 23.9062C115.245 23.9062 114.958 23.9635 114.719 24.0781C114.479 24.1875 114.279 24.3411 114.117 24.5391C113.956 24.737 113.831 24.9688 113.742 25.2344C113.654 25.4948 113.591 25.7786 113.555 26.0859V27.6016C113.617 27.9766 113.724 28.3203 113.875 28.6328C114.026 28.9453 114.24 29.1953 114.516 29.3828C114.797 29.5651 115.156 29.6562 115.594 29.6562C115.932 29.6562 116.221 29.5833 116.461 29.4375C116.701 29.2917 116.896 29.0911 117.047 28.8359C117.203 28.5755 117.318 28.276 117.391 27.9375C117.464 27.599 117.5 27.2396 117.5 26.8594ZM123 22.5469V31H121.109V22.5469H123ZM120.984 20.3281C120.984 20.0417 121.078 19.8047 121.266 19.6172C121.458 19.4245 121.724 19.3281 122.062 19.3281C122.396 19.3281 122.659 19.4245 122.852 19.6172C123.044 19.8047 123.141 20.0417 123.141 20.3281C123.141 20.6094 123.044 20.8438 122.852 21.0312C122.659 21.2188 122.396 21.3125 122.062 21.3125C121.724 21.3125 121.458 21.2188 121.266 21.0312C121.078 20.8438 120.984 20.6094 120.984 20.3281ZM129.805 28.7109C129.805 28.5234 129.758 28.3542 129.664 28.2031C129.57 28.0469 129.391 27.9062 129.125 27.7812C128.865 27.6562 128.479 27.5417 127.969 27.4375C127.521 27.3385 127.109 27.2214 126.734 27.0859C126.365 26.9453 126.047 26.776 125.781 26.5781C125.516 26.3802 125.31 26.1458 125.164 25.875C125.018 25.6042 124.945 25.2917 124.945 24.9375C124.945 24.5938 125.021 24.2682 125.172 23.9609C125.323 23.6536 125.539 23.3828 125.82 23.1484C126.102 22.9141 126.443 22.7292 126.844 22.5938C127.25 22.4583 127.703 22.3906 128.203 22.3906C128.911 22.3906 129.518 22.5104 130.023 22.75C130.534 22.9844 130.924 23.3047 131.195 23.7109C131.466 24.112 131.602 24.5651 131.602 25.0703H129.719C129.719 24.8464 129.661 24.638 129.547 24.4453C129.438 24.2474 129.271 24.0885 129.047 23.9688C128.823 23.8438 128.542 23.7812 128.203 23.7812C127.88 23.7812 127.612 23.8333 127.398 23.9375C127.19 24.0365 127.034 24.1667 126.93 24.3281C126.831 24.4896 126.781 24.6667 126.781 24.8594C126.781 25 126.807 25.1276 126.859 25.2422C126.917 25.3516 127.01 25.4531 127.141 25.5469C127.271 25.6354 127.448 25.7188 127.672 25.7969C127.901 25.875 128.188 25.9505 128.531 26.0234C129.177 26.1589 129.732 26.3333 130.195 26.5469C130.664 26.7552 131.023 27.026 131.273 27.3594C131.523 27.6875 131.648 28.1042 131.648 28.6094C131.648 28.9844 131.568 29.3281 131.406 29.6406C131.25 29.9479 131.021 30.2161 130.719 30.4453C130.417 30.6693 130.055 30.8438 129.633 30.9688C129.216 31.0938 128.747 31.1562 128.227 31.1562C127.461 31.1562 126.812 31.0208 126.281 30.75C125.75 30.474 125.346 30.1224 125.07 29.6953C124.799 29.263 124.664 28.8151 124.664 28.3516H126.484C126.505 28.7005 126.602 28.9792 126.773 29.1875C126.951 29.3906 127.169 29.5391 127.43 29.6328C127.695 29.7214 127.969 29.7656 128.25 29.7656C128.589 29.7656 128.872 29.7214 129.102 29.6328C129.331 29.5391 129.505 29.4141 129.625 29.2578C129.745 29.0964 129.805 28.9141 129.805 28.7109ZM136.75 29.6562C137.057 29.6562 137.333 29.5964 137.578 29.4766C137.828 29.3516 138.029 29.1797 138.18 28.9609C138.336 28.7422 138.422 28.4896 138.438 28.2031H140.211C140.201 28.75 140.039 29.2474 139.727 29.6953C139.414 30.1432 139 30.5 138.484 30.7656C137.969 31.026 137.398 31.1562 136.773 31.1562C136.128 31.1562 135.565 31.0469 135.086 30.8281C134.607 30.6042 134.208 30.2969 133.891 29.9062C133.573 29.5156 133.333 29.0651 133.172 28.5547C133.016 28.0443 132.938 27.4974 132.938 26.9141V26.6406C132.938 26.0573 133.016 25.5104 133.172 25C133.333 24.4844 133.573 24.0312 133.891 23.6406C134.208 23.25 134.607 22.9453 135.086 22.7266C135.565 22.5026 136.125 22.3906 136.766 22.3906C137.443 22.3906 138.036 22.526 138.547 22.7969C139.057 23.0625 139.458 23.4349 139.75 23.9141C140.047 24.388 140.201 24.9401 140.211 25.5703H138.438C138.422 25.2578 138.344 24.9766 138.203 24.7266C138.068 24.4714 137.875 24.2682 137.625 24.1172C137.38 23.9661 137.086 23.8906 136.742 23.8906C136.362 23.8906 136.047 23.9688 135.797 24.125C135.547 24.276 135.352 24.4844 135.211 24.75C135.07 25.0104 134.969 25.3047 134.906 25.6328C134.849 25.9557 134.82 26.2917 134.82 26.6406V26.9141C134.82 27.263 134.849 27.6016 134.906 27.9297C134.964 28.2578 135.062 28.5521 135.203 28.8125C135.349 29.0677 135.547 29.2734 135.797 29.4297C136.047 29.5807 136.365 29.6562 136.75 29.6562ZM143.672 22.5469V31H141.781V22.5469H143.672ZM141.656 20.3281C141.656 20.0417 141.75 19.8047 141.938 19.6172C142.13 19.4245 142.396 19.3281 142.734 19.3281C143.068 19.3281 143.331 19.4245 143.523 19.6172C143.716 19.8047 143.812 20.0417 143.812 20.3281C143.812 20.6094 143.716 20.8438 143.523 21.0312C143.331 21.2188 143.068 21.3125 142.734 21.3125C142.396 21.3125 142.13 21.2188 141.938 21.0312C141.75 20.8438 141.656 20.6094 141.656 20.3281ZM147.602 24.3516V31H145.719V22.5469H147.492L147.602 24.3516ZM147.266 26.4609L146.656 26.4531C146.661 25.8542 146.745 25.3047 146.906 24.8047C147.073 24.3047 147.302 23.875 147.594 23.5156C147.891 23.1562 148.245 22.8802 148.656 22.6875C149.068 22.4896 149.526 22.3906 150.031 22.3906C150.438 22.3906 150.805 22.4479 151.133 22.5625C151.466 22.6719 151.75 22.8516 151.984 23.1016C152.224 23.3516 152.406 23.6771 152.531 24.0781C152.656 24.474 152.719 24.9609 152.719 25.5391V31H150.828V25.5312C150.828 25.125 150.768 24.8047 150.648 24.5703C150.534 24.3307 150.365 24.1615 150.141 24.0625C149.922 23.9583 149.648 23.9062 149.32 23.9062C148.997 23.9062 148.708 23.974 148.453 24.1094C148.198 24.2448 147.982 24.4297 147.805 24.6641C147.633 24.8984 147.5 25.1693 147.406 25.4766C147.312 25.7839 147.266 26.112 147.266 26.4609ZM160.055 22.5469H161.766V30.7656C161.766 31.526 161.604 32.1719 161.281 32.7031C160.958 33.2344 160.508 33.638 159.93 33.9141C159.352 34.1953 158.682 34.3359 157.922 34.3359C157.599 34.3359 157.24 34.2891 156.844 34.1953C156.453 34.1016 156.073 33.9505 155.703 33.7422C155.339 33.5391 155.034 33.2708 154.789 32.9375L155.672 31.8281C155.974 32.1875 156.307 32.4505 156.672 32.6172C157.036 32.7839 157.419 32.8672 157.82 32.8672C158.253 32.8672 158.62 32.7865 158.922 32.625C159.229 32.4688 159.466 32.237 159.633 31.9297C159.799 31.6224 159.883 31.2474 159.883 30.8047V24.4609L160.055 22.5469ZM154.312 26.8672V26.7031C154.312 26.0625 154.391 25.4792 154.547 24.9531C154.703 24.4219 154.927 23.9661 155.219 23.5859C155.51 23.2005 155.865 22.9062 156.281 22.7031C156.698 22.4948 157.169 22.3906 157.695 22.3906C158.242 22.3906 158.708 22.4896 159.094 22.6875C159.484 22.8854 159.81 23.1693 160.07 23.5391C160.331 23.9036 160.534 24.3411 160.68 24.8516C160.831 25.3568 160.943 25.9193 161.016 26.5391V27.0625C160.948 27.6667 160.833 28.2188 160.672 28.7188C160.51 29.2188 160.297 29.651 160.031 30.0156C159.766 30.3802 159.438 30.6615 159.047 30.8594C158.661 31.0573 158.206 31.1562 157.68 31.1562C157.164 31.1562 156.698 31.0495 156.281 30.8359C155.87 30.6224 155.516 30.3229 155.219 29.9375C154.927 29.5521 154.703 29.099 154.547 28.5781C154.391 28.0521 154.312 27.4818 154.312 26.8672ZM156.195 26.7031V26.8672C156.195 27.2526 156.232 27.612 156.305 27.9453C156.383 28.2786 156.5 28.5729 156.656 28.8281C156.818 29.0781 157.021 29.276 157.266 29.4219C157.516 29.5625 157.81 29.6328 158.148 29.6328C158.591 29.6328 158.953 29.5391 159.234 29.3516C159.521 29.1641 159.74 28.9115 159.891 28.5938C160.047 28.2708 160.156 27.9115 160.219 27.5156V26.1016C160.188 25.7943 160.122 25.5078 160.023 25.2422C159.93 24.9766 159.802 24.7448 159.641 24.5469C159.479 24.3438 159.276 24.1875 159.031 24.0781C158.786 23.9635 158.497 23.9062 158.164 23.9062C157.826 23.9062 157.531 23.9792 157.281 24.125C157.031 24.2708 156.826 24.4714 156.664 24.7266C156.508 24.9818 156.391 25.2786 156.312 25.6172C156.234 25.9557 156.195 26.3177 156.195 26.7031ZM171.43 31.1562C170.805 31.1562 170.24 31.0547 169.734 30.8516C169.234 30.6432 168.807 30.3542 168.453 29.9844C168.104 29.6146 167.836 29.1797 167.648 28.6797C167.461 28.1797 167.367 27.6406 167.367 27.0625V26.75C167.367 26.0885 167.464 25.4896 167.656 24.9531C167.849 24.4167 168.117 23.9583 168.461 23.5781C168.805 23.1927 169.211 22.8984 169.68 22.6953C170.148 22.4922 170.656 22.3906 171.203 22.3906C171.807 22.3906 172.336 22.4922 172.789 22.6953C173.242 22.8984 173.617 23.1849 173.914 23.5547C174.216 23.9193 174.44 24.3542 174.586 24.8594C174.737 25.3646 174.812 25.9219 174.812 26.5312V27.3359H168.281V25.9844H172.953V25.8359C172.943 25.4974 172.875 25.1797 172.75 24.8828C172.63 24.5859 172.445 24.3464 172.195 24.1641C171.945 23.9818 171.612 23.8906 171.195 23.8906C170.883 23.8906 170.604 23.9583 170.359 24.0938C170.12 24.224 169.919 24.4141 169.758 24.6641C169.596 24.9141 169.471 25.2161 169.383 25.5703C169.299 25.9193 169.258 26.3125 169.258 26.75V27.0625C169.258 27.4323 169.307 27.776 169.406 28.0938C169.51 28.4062 169.661 28.6797 169.859 28.9141C170.057 29.1484 170.297 29.3333 170.578 29.4688C170.859 29.599 171.18 29.6641 171.539 29.6641C171.992 29.6641 172.396 29.5729 172.75 29.3906C173.104 29.2083 173.411 28.9505 173.672 28.6172L174.664 29.5781C174.482 29.8438 174.245 30.099 173.953 30.3438C173.661 30.5833 173.305 30.7786 172.883 30.9297C172.466 31.0807 171.982 31.1562 171.43 31.1562ZM178.297 19V31H176.406V19H178.297ZM182.375 22.5469V31H180.484V22.5469H182.375ZM180.359 20.3281C180.359 20.0417 180.453 19.8047 180.641 19.6172C180.833 19.4245 181.099 19.3281 181.438 19.3281C181.771 19.3281 182.034 19.4245 182.227 19.6172C182.419 19.8047 182.516 20.0417 182.516 20.3281C182.516 20.6094 182.419 20.8438 182.227 21.0312C182.034 21.2188 181.771 21.3125 181.438 21.3125C181.099 21.3125 180.833 21.2188 180.641 21.0312C180.453 20.8438 180.359 20.6094 180.359 20.3281ZM188.312 22.5469V23.9219H183.547V22.5469H188.312ZM184.922 20.4766H186.805V28.6641C186.805 28.9245 186.841 29.125 186.914 29.2656C186.992 29.401 187.099 29.4922 187.234 29.5391C187.37 29.5859 187.529 29.6094 187.711 29.6094C187.841 29.6094 187.966 29.6016 188.086 29.5859C188.206 29.5703 188.302 29.5547 188.375 29.5391L188.383 30.9766C188.227 31.0234 188.044 31.0651 187.836 31.1016C187.633 31.138 187.398 31.1562 187.133 31.1562C186.701 31.1562 186.318 31.0807 185.984 30.9297C185.651 30.7734 185.391 30.5208 185.203 30.1719C185.016 29.8229 184.922 29.3594 184.922 28.7812V20.4766ZM191.531 29.1875L191.523 30.5312C191.523 31.0625 191.391 31.6094 191.125 32.1719C190.859 32.7344 190.508 33.1979 190.07 33.5625L189.062 32.9766C189.208 32.7422 189.341 32.5052 189.461 32.2656C189.581 32.026 189.677 31.7708 189.75 31.5C189.823 31.2292 189.859 30.9297 189.859 30.6016V29.1875H191.531ZM6.125 48.25V38H8.01562V50H6.30469L6.125 48.25ZM0.625 45.8672V45.7031C0.625 45.0625 0.700521 44.4792 0.851562 43.9531C1.0026 43.4219 1.22135 42.9661 1.50781 42.5859C1.79427 42.2005 2.14323 41.9062 2.55469 41.7031C2.96615 41.4948 3.42969 41.3906 3.94531 41.3906C4.45573 41.3906 4.90365 41.4896 5.28906 41.6875C5.67448 41.8854 6.0026 42.1693 6.27344 42.5391C6.54427 42.9036 6.76042 43.3411 6.92188 43.8516C7.08333 44.3568 7.19792 44.9193 7.26562 45.5391V46.0625C7.19792 46.6667 7.08333 47.2188 6.92188 47.7188C6.76042 48.2188 6.54427 48.651 6.27344 49.0156C6.0026 49.3802 5.67188 49.6615 5.28125 49.8594C4.89583 50.0573 4.44531 50.1562 3.92969 50.1562C3.41927 50.1562 2.95833 50.0495 2.54688 49.8359C2.14062 49.6224 1.79427 49.3229 1.50781 48.9375C1.22135 48.5521 1.0026 48.099 0.851562 47.5781C0.700521 47.0521 0.625 46.4818 0.625 45.8672ZM2.50781 45.7031V45.8672C2.50781 46.2526 2.54167 46.612 2.60938 46.9453C2.68229 47.2786 2.79427 47.5729 2.94531 47.8281C3.09635 48.0781 3.29167 48.276 3.53125 48.4219C3.77604 48.5625 4.06771 48.6328 4.40625 48.6328C4.83333 48.6328 5.1849 48.5391 5.46094 48.3516C5.73698 48.1641 5.95312 47.9115 6.10938 47.5938C6.27083 47.2708 6.38021 46.9115 6.4375 46.5156V45.1016C6.40625 44.7943 6.34115 44.5078 6.24219 44.2422C6.14844 43.9766 6.02083 43.7448 5.85938 43.5469C5.69792 43.3438 5.4974 43.1875 5.25781 43.0781C5.02344 42.9635 4.74479 42.9062 4.42188 42.9062C4.07812 42.9062 3.78646 42.9792 3.54688 43.125C3.30729 43.2708 3.10938 43.4714 2.95312 43.7266C2.80208 43.9818 2.6901 44.2786 2.61719 44.6172C2.54427 44.9557 2.50781 45.3177 2.50781 45.7031ZM9.625 45.8672V45.6875C9.625 45.0781 9.71354 44.513 9.89062 43.9922C10.0677 43.4661 10.3229 43.0104 10.6562 42.625C10.9948 42.2344 11.4062 41.9323 11.8906 41.7188C12.3802 41.5 12.9323 41.3906 13.5469 41.3906C14.1667 41.3906 14.7188 41.5 15.2031 41.7188C15.6927 41.9323 16.1068 42.2344 16.4453 42.625C16.7839 43.0104 17.0417 43.4661 17.2188 43.9922C17.3958 44.513 17.4844 45.0781 17.4844 45.6875V45.8672C17.4844 46.4766 17.3958 47.0417 17.2188 47.5625C17.0417 48.0833 16.7839 48.5391 16.4453 48.9297C16.1068 49.3151 15.6953 49.6172 15.2109 49.8359C14.7266 50.0495 14.1771 50.1562 13.5625 50.1562C12.9427 50.1562 12.388 50.0495 11.8984 49.8359C11.4141 49.6172 11.0026 49.3151 10.6641 48.9297C10.3255 48.5391 10.0677 48.0833 9.89062 47.5625C9.71354 47.0417 9.625 46.4766 9.625 45.8672ZM11.5078 45.6875V45.8672C11.5078 46.2474 11.5469 46.6068 11.625 46.9453C11.7031 47.2839 11.8255 47.5807 11.9922 47.8359C12.1589 48.0911 12.3724 48.2917 12.6328 48.4375C12.8932 48.5833 13.2031 48.6562 13.5625 48.6562C13.9115 48.6562 14.2135 48.5833 14.4688 48.4375C14.7292 48.2917 14.9427 48.0911 15.1094 47.8359C15.276 47.5807 15.3984 47.2839 15.4766 46.9453C15.5599 46.6068 15.6016 46.2474 15.6016 45.8672V45.6875C15.6016 45.3125 15.5599 44.9583 15.4766 44.625C15.3984 44.2865 15.2734 43.987 15.1016 43.7266C14.9349 43.4661 14.7214 43.263 14.4609 43.1172C14.2057 42.9661 13.901 42.8906 13.5469 42.8906C13.1927 42.8906 12.8854 42.9661 12.625 43.1172C12.3698 43.263 12.1589 43.4661 11.9922 43.7266C11.8255 43.987 11.7031 44.2865 11.625 44.625C11.5469 44.9583 11.5078 45.3125 11.5078 45.6875ZM21.0781 38V50H19.1875V38H21.0781ZM22.7812 45.8672V45.6875C22.7812 45.0781 22.8698 44.513 23.0469 43.9922C23.224 43.4661 23.4792 43.0104 23.8125 42.625C24.151 42.2344 24.5625 41.9323 25.0469 41.7188C25.5365 41.5 26.0885 41.3906 26.7031 41.3906C27.3229 41.3906 27.875 41.5 28.3594 41.7188C28.849 41.9323 29.263 42.2344 29.6016 42.625C29.9401 43.0104 30.1979 43.4661 30.375 43.9922C30.5521 44.513 30.6406 45.0781 30.6406 45.6875V45.8672C30.6406 46.4766 30.5521 47.0417 30.375 47.5625C30.1979 48.0833 29.9401 48.5391 29.6016 48.9297C29.263 49.3151 28.8516 49.6172 28.3672 49.8359C27.8828 50.0495 27.3333 50.1562 26.7188 50.1562C26.099 50.1562 25.5443 50.0495 25.0547 49.8359C24.5703 49.6172 24.1589 49.3151 23.8203 48.9297C23.4818 48.5391 23.224 48.0833 23.0469 47.5625C22.8698 47.0417 22.7812 46.4766 22.7812 45.8672ZM24.6641 45.6875V45.8672C24.6641 46.2474 24.7031 46.6068 24.7812 46.9453C24.8594 47.2839 24.9818 47.5807 25.1484 47.8359C25.3151 48.0911 25.5286 48.2917 25.7891 48.4375C26.0495 48.5833 26.3594 48.6562 26.7188 48.6562C27.0677 48.6562 27.3698 48.5833 27.625 48.4375C27.8854 48.2917 28.099 48.0911 28.2656 47.8359C28.4323 47.5807 28.5547 47.2839 28.6328 46.9453C28.7161 46.6068 28.7578 46.2474 28.7578 45.8672V45.6875C28.7578 45.3125 28.7161 44.9583 28.6328 44.625C28.5547 44.2865 28.4297 43.987 28.2578 43.7266C28.0911 43.4661 27.8776 43.263 27.6172 43.1172C27.362 42.9661 27.0573 42.8906 26.7031 42.8906C26.349 42.8906 26.0417 42.9661 25.7812 43.1172C25.526 43.263 25.3151 43.4661 25.1484 43.7266C24.9818 43.987 24.8594 44.2865 24.7812 44.625C24.7031 44.9583 24.6641 45.3125 24.6641 45.6875ZM34.1094 43.1562V50H32.2266V41.5469H34.0234L34.1094 43.1562ZM36.6953 41.4922L36.6797 43.2422C36.5651 43.2214 36.4401 43.2057 36.3047 43.1953C36.1745 43.1849 36.0443 43.1797 35.9141 43.1797C35.5911 43.1797 35.3073 43.2266 35.0625 43.3203C34.8177 43.4089 34.612 43.5391 34.4453 43.7109C34.2839 43.8776 34.1589 44.0807 34.0703 44.3203C33.9818 44.5599 33.9297 44.8281 33.9141 45.125L33.4844 45.1562C33.4844 44.625 33.5365 44.1328 33.6406 43.6797C33.7448 43.2266 33.901 42.8281 34.1094 42.4844C34.3229 42.1406 34.5885 41.8724 34.9062 41.6797C35.2292 41.487 35.6016 41.3906 36.0234 41.3906C36.138 41.3906 36.2604 41.401 36.3906 41.4219C36.526 41.4427 36.6276 41.4661 36.6953 41.4922ZM41.4453 50.1562C40.8203 50.1562 40.2552 50.0547 39.75 49.8516C39.25 49.6432 38.8229 49.3542 38.4688 48.9844C38.1198 48.6146 37.8516 48.1797 37.6641 47.6797C37.4766 47.1797 37.3828 46.6406 37.3828 46.0625V45.75C37.3828 45.0885 37.4792 44.4896 37.6719 43.9531C37.8646 43.4167 38.1328 42.9583 38.4766 42.5781C38.8203 42.1927 39.2266 41.8984 39.6953 41.6953C40.1641 41.4922 40.6719 41.3906 41.2188 41.3906C41.8229 41.3906 42.3516 41.4922 42.8047 41.6953C43.2578 41.8984 43.6328 42.1849 43.9297 42.5547C44.2318 42.9193 44.4557 43.3542 44.6016 43.8594C44.7526 44.3646 44.8281 44.9219 44.8281 45.5312V46.3359H38.2969V44.9844H42.9688V44.8359C42.9583 44.4974 42.8906 44.1797 42.7656 43.8828C42.6458 43.5859 42.4609 43.3464 42.2109 43.1641C41.9609 42.9818 41.6276 42.8906 41.2109 42.8906C40.8984 42.8906 40.6198 42.9583 40.375 43.0938C40.1354 43.224 39.9349 43.4141 39.7734 43.6641C39.612 43.9141 39.487 44.2161 39.3984 44.5703C39.3151 44.9193 39.2734 45.3125 39.2734 45.75V46.0625C39.2734 46.4323 39.3229 46.776 39.4219 47.0938C39.526 47.4062 39.6771 47.6797 39.875 47.9141C40.0729 48.1484 40.3125 48.3333 40.5938 48.4688C40.875 48.599 41.1953 48.6641 41.5547 48.6641C42.0078 48.6641 42.4115 48.5729 42.7656 48.3906C43.1198 48.2083 43.4271 47.9505 43.6875 47.6172L44.6797 48.5781C44.4974 48.8438 44.2604 49.099 43.9688 49.3438C43.6771 49.5833 43.3203 49.7786 42.8984 49.9297C42.4818 50.0807 41.9974 50.1562 41.4453 50.1562ZM52.1641 43.2656V50H50.2812V41.5469H52.0547L52.1641 43.2656ZM51.8594 45.4609L51.2188 45.4531C51.2188 44.8698 51.2917 44.3307 51.4375 43.8359C51.5833 43.3411 51.7969 42.9115 52.0781 42.5469C52.3594 42.1771 52.7083 41.8932 53.125 41.6953C53.5469 41.4922 54.0339 41.3906 54.5859 41.3906C54.9714 41.3906 55.3229 41.4479 55.6406 41.5625C55.9635 41.6719 56.2422 41.8464 56.4766 42.0859C56.7161 42.3255 56.8984 42.6328 57.0234 43.0078C57.1536 43.3828 57.2188 43.8359 57.2188 44.3672V50H55.3359V44.5312C55.3359 44.1198 55.2734 43.7969 55.1484 43.5625C55.0286 43.3281 54.8542 43.1615 54.625 43.0625C54.401 42.9583 54.1328 42.9062 53.8203 42.9062C53.4661 42.9062 53.1641 42.974 52.9141 43.1094C52.6693 43.2448 52.4688 43.4297 52.3125 43.6641C52.1562 43.8984 52.0417 44.1693 51.9688 44.4766C51.8958 44.7839 51.8594 45.112 51.8594 45.4609ZM57.1016 44.9609L56.2188 45.1562C56.2188 44.6458 56.2891 44.1641 56.4297 43.7109C56.5755 43.2526 56.7865 42.8516 57.0625 42.5078C57.3438 42.1589 57.6901 41.8854 58.1016 41.6875C58.513 41.4896 58.9844 41.3906 59.5156 41.3906C59.9479 41.3906 60.3333 41.4505 60.6719 41.5703C61.0156 41.6849 61.3073 41.8672 61.5469 42.1172C61.7865 42.3672 61.9688 42.6927 62.0938 43.0938C62.2188 43.4896 62.2812 43.9688 62.2812 44.5312V50H60.3906V44.5234C60.3906 44.0964 60.3281 43.7656 60.2031 43.5312C60.0833 43.2969 59.9115 43.1354 59.6875 43.0469C59.4635 42.9531 59.1953 42.9062 58.8828 42.9062C58.5911 42.9062 58.3333 42.9609 58.1094 43.0703C57.8906 43.1745 57.7057 43.3229 57.5547 43.5156C57.4036 43.7031 57.2891 43.9193 57.2109 44.1641C57.138 44.4089 57.1016 44.6745 57.1016 44.9609ZM68.9844 48.3047V44.2734C68.9844 43.9714 68.9297 43.7109 68.8203 43.4922C68.7109 43.2734 68.5443 43.1042 68.3203 42.9844C68.1016 42.8646 67.8255 42.8047 67.4922 42.8047C67.1849 42.8047 66.9193 42.8568 66.6953 42.9609C66.4714 43.0651 66.2969 43.2057 66.1719 43.3828C66.0469 43.5599 65.9844 43.7604 65.9844 43.9844H64.1094C64.1094 43.651 64.1901 43.3281 64.3516 43.0156C64.513 42.7031 64.7474 42.4245 65.0547 42.1797C65.362 41.9349 65.7292 41.7422 66.1562 41.6016C66.5833 41.4609 67.0625 41.3906 67.5938 41.3906C68.2292 41.3906 68.7917 41.4974 69.2812 41.7109C69.776 41.9245 70.1641 42.2474 70.4453 42.6797C70.7318 43.1068 70.875 43.6432 70.875 44.2891V48.0469C70.875 48.4323 70.901 48.7786 70.9531 49.0859C71.0104 49.388 71.0911 49.651 71.1953 49.875V50H69.2656C69.1771 49.7969 69.1068 49.5391 69.0547 49.2266C69.0078 48.9089 68.9844 48.6016 68.9844 48.3047ZM69.2578 44.8594L69.2734 46.0234H67.9219C67.5729 46.0234 67.2656 46.0573 67 46.125C66.7344 46.1875 66.513 46.2812 66.3359 46.4062C66.1589 46.5312 66.026 46.6823 65.9375 46.8594C65.849 47.0365 65.8047 47.237 65.8047 47.4609C65.8047 47.6849 65.8568 47.8906 65.9609 48.0781C66.0651 48.2604 66.2161 48.4036 66.4141 48.5078C66.6172 48.612 66.862 48.6641 67.1484 48.6641C67.5339 48.6641 67.8698 48.5859 68.1562 48.4297C68.4479 48.2682 68.6771 48.0729 68.8438 47.8438C69.0104 47.6094 69.099 47.388 69.1094 47.1797L69.7188 48.0156C69.6562 48.2292 69.5495 48.4583 69.3984 48.7031C69.2474 48.9479 69.0495 49.1823 68.8047 49.4062C68.5651 49.625 68.276 49.8047 67.9375 49.9453C67.6042 50.0859 67.2188 50.1562 66.7812 50.1562C66.2292 50.1562 65.737 50.0469 65.3047 49.8281C64.8724 49.6042 64.5339 49.3047 64.2891 48.9297C64.0443 48.5495 63.9219 48.1198 63.9219 47.6406C63.9219 47.1927 64.0052 46.7969 64.1719 46.4531C64.3438 46.1042 64.5938 45.8125 64.9219 45.5781C65.2552 45.3438 65.6615 45.1667 66.1406 45.0469C66.6198 44.9219 67.1667 44.8594 67.7812 44.8594H69.2578ZM78.2578 41.5469H79.9688V49.7656C79.9688 50.526 79.8073 51.1719 79.4844 51.7031C79.1615 52.2344 78.7109 52.638 78.1328 52.9141C77.5547 53.1953 76.8854 53.3359 76.125 53.3359C75.8021 53.3359 75.4427 53.2891 75.0469 53.1953C74.6562 53.1016 74.276 52.9505 73.9062 52.7422C73.5417 52.5391 73.237 52.2708 72.9922 51.9375L73.875 50.8281C74.1771 51.1875 74.5104 51.4505 74.875 51.6172C75.2396 51.7839 75.6224 51.8672 76.0234 51.8672C76.4557 51.8672 76.8229 51.7865 77.125 51.625C77.4323 51.4688 77.6693 51.237 77.8359 50.9297C78.0026 50.6224 78.0859 50.2474 78.0859 49.8047V43.4609L78.2578 41.5469ZM72.5156 45.8672V45.7031C72.5156 45.0625 72.5938 44.4792 72.75 43.9531C72.9062 43.4219 73.1302 42.9661 73.4219 42.5859C73.7135 42.2005 74.0677 41.9062 74.4844 41.7031C74.901 41.4948 75.3724 41.3906 75.8984 41.3906C76.4453 41.3906 76.9115 41.4896 77.2969 41.6875C77.6875 41.8854 78.013 42.1693 78.2734 42.5391C78.5339 42.9036 78.737 43.3411 78.8828 43.8516C79.0339 44.3568 79.1458 44.9193 79.2188 45.5391V46.0625C79.151 46.6667 79.0365 47.2188 78.875 47.7188C78.7135 48.2188 78.5 48.651 78.2344 49.0156C77.9688 49.3802 77.6406 49.6615 77.25 49.8594C76.8646 50.0573 76.4089 50.1562 75.8828 50.1562C75.3672 50.1562 74.901 50.0495 74.4844 49.8359C74.0729 49.6224 73.7188 49.3229 73.4219 48.9375C73.1302 48.5521 72.9062 48.099 72.75 47.5781C72.5938 47.0521 72.5156 46.4818 72.5156 45.8672ZM74.3984 45.7031V45.8672C74.3984 46.2526 74.4349 46.612 74.5078 46.9453C74.5859 47.2786 74.7031 47.5729 74.8594 47.8281C75.0208 48.0781 75.224 48.276 75.4688 48.4219C75.7188 48.5625 76.013 48.6328 76.3516 48.6328C76.7943 48.6328 77.1562 48.5391 77.4375 48.3516C77.724 48.1641 77.9427 47.9115 78.0938 47.5938C78.25 47.2708 78.3594 46.9115 78.4219 46.5156V45.1016C78.3906 44.7943 78.3255 44.5078 78.2266 44.2422C78.1328 43.9766 78.0052 43.7448 77.8438 43.5469C77.6823 43.3438 77.4792 43.1875 77.2344 43.0781C76.9896 42.9635 76.7005 42.9062 76.3672 42.9062C76.0286 42.9062 75.7344 42.9792 75.4844 43.125C75.2344 43.2708 75.0286 43.4714 74.8672 43.7266C74.7109 43.9818 74.5938 44.2786 74.5156 44.6172C74.4375 44.9557 74.3984 45.3177 74.3984 45.7031ZM83.7891 43.3516V50H81.9062V41.5469H83.6797L83.7891 43.3516ZM83.4531 45.4609L82.8438 45.4531C82.849 44.8542 82.9323 44.3047 83.0938 43.8047C83.2604 43.3047 83.4896 42.875 83.7812 42.5156C84.0781 42.1562 84.4323 41.8802 84.8438 41.6875C85.2552 41.4896 85.7135 41.3906 86.2188 41.3906C86.625 41.3906 86.9922 41.4479 87.3203 41.5625C87.6536 41.6719 87.9375 41.8516 88.1719 42.1016C88.4115 42.3516 88.5938 42.6771 88.7188 43.0781C88.8438 43.474 88.9062 43.9609 88.9062 44.5391V50H87.0156V44.5312C87.0156 44.125 86.9557 43.8047 86.8359 43.5703C86.7214 43.3307 86.5521 43.1615 86.3281 43.0625C86.1094 42.9583 85.8359 42.9062 85.5078 42.9062C85.1849 42.9062 84.8958 42.974 84.6406 43.1094C84.3854 43.2448 84.1693 43.4297 83.9922 43.6641C83.8203 43.8984 83.6875 44.1693 83.5938 44.4766C83.5 44.7839 83.4531 45.112 83.4531 45.4609ZM95.5938 48.3047V44.2734C95.5938 43.9714 95.5391 43.7109 95.4297 43.4922C95.3203 43.2734 95.1536 43.1042 94.9297 42.9844C94.7109 42.8646 94.4349 42.8047 94.1016 42.8047C93.7943 42.8047 93.5286 42.8568 93.3047 42.9609C93.0807 43.0651 92.9062 43.2057 92.7812 43.3828C92.6562 43.5599 92.5938 43.7604 92.5938 43.9844H90.7188C90.7188 43.651 90.7995 43.3281 90.9609 43.0156C91.1224 42.7031 91.3568 42.4245 91.6641 42.1797C91.9714 41.9349 92.3385 41.7422 92.7656 41.6016C93.1927 41.4609 93.6719 41.3906 94.2031 41.3906C94.8385 41.3906 95.401 41.4974 95.8906 41.7109C96.3854 41.9245 96.7734 42.2474 97.0547 42.6797C97.3411 43.1068 97.4844 43.6432 97.4844 44.2891V48.0469C97.4844 48.4323 97.5104 48.7786 97.5625 49.0859C97.6198 49.388 97.7005 49.651 97.8047 49.875V50H95.875C95.7865 49.7969 95.7161 49.5391 95.6641 49.2266C95.6172 48.9089 95.5938 48.6016 95.5938 48.3047ZM95.8672 44.8594L95.8828 46.0234H94.5312C94.1823 46.0234 93.875 46.0573 93.6094 46.125C93.3438 46.1875 93.1224 46.2812 92.9453 46.4062C92.7682 46.5312 92.6354 46.6823 92.5469 46.8594C92.4583 47.0365 92.4141 47.237 92.4141 47.4609C92.4141 47.6849 92.4661 47.8906 92.5703 48.0781C92.6745 48.2604 92.8255 48.4036 93.0234 48.5078C93.2266 48.612 93.4714 48.6641 93.7578 48.6641C94.1432 48.6641 94.4792 48.5859 94.7656 48.4297C95.0573 48.2682 95.2865 48.0729 95.4531 47.8438C95.6198 47.6094 95.7083 47.388 95.7188 47.1797L96.3281 48.0156C96.2656 48.2292 96.1589 48.4583 96.0078 48.7031C95.8568 48.9479 95.6589 49.1823 95.4141 49.4062C95.1745 49.625 94.8854 49.8047 94.5469 49.9453C94.2135 50.0859 93.8281 50.1562 93.3906 50.1562C92.8385 50.1562 92.3464 50.0469 91.9141 49.8281C91.4818 49.6042 91.1432 49.3047 90.8984 48.9297C90.6536 48.5495 90.5312 48.1198 90.5312 47.6406C90.5312 47.1927 90.6146 46.7969 90.7812 46.4531C90.9531 46.1042 91.2031 45.8125 91.5312 45.5781C91.8646 45.3438 92.2708 45.1667 92.75 45.0469C93.2292 44.9219 93.776 44.8594 94.3906 44.8594H95.8672ZM108.203 48.3047V44.2734C108.203 43.9714 108.148 43.7109 108.039 43.4922C107.93 43.2734 107.763 43.1042 107.539 42.9844C107.32 42.8646 107.044 42.8047 106.711 42.8047C106.404 42.8047 106.138 42.8568 105.914 42.9609C105.69 43.0651 105.516 43.2057 105.391 43.3828C105.266 43.5599 105.203 43.7604 105.203 43.9844H103.328C103.328 43.651 103.409 43.3281 103.57 43.0156C103.732 42.7031 103.966 42.4245 104.273 42.1797C104.581 41.9349 104.948 41.7422 105.375 41.6016C105.802 41.4609 106.281 41.3906 106.812 41.3906C107.448 41.3906 108.01 41.4974 108.5 41.7109C108.995 41.9245 109.383 42.2474 109.664 42.6797C109.951 43.1068 110.094 43.6432 110.094 44.2891V48.0469C110.094 48.4323 110.12 48.7786 110.172 49.0859C110.229 49.388 110.31 49.651 110.414 49.875V50H108.484C108.396 49.7969 108.326 49.5391 108.273 49.2266C108.227 48.9089 108.203 48.6016 108.203 48.3047ZM108.477 44.8594L108.492 46.0234H107.141C106.792 46.0234 106.484 46.0573 106.219 46.125C105.953 46.1875 105.732 46.2812 105.555 46.4062C105.378 46.5312 105.245 46.6823 105.156 46.8594C105.068 47.0365 105.023 47.237 105.023 47.4609C105.023 47.6849 105.076 47.8906 105.18 48.0781C105.284 48.2604 105.435 48.4036 105.633 48.5078C105.836 48.612 106.081 48.6641 106.367 48.6641C106.753 48.6641 107.089 48.5859 107.375 48.4297C107.667 48.2682 107.896 48.0729 108.062 47.8438C108.229 47.6094 108.318 47.388 108.328 47.1797L108.938 48.0156C108.875 48.2292 108.768 48.4583 108.617 48.7031C108.466 48.9479 108.268 49.1823 108.023 49.4062C107.784 49.625 107.495 49.8047 107.156 49.9453C106.823 50.0859 106.438 50.1562 106 50.1562C105.448 50.1562 104.956 50.0469 104.523 49.8281C104.091 49.6042 103.753 49.3047 103.508 48.9297C103.263 48.5495 103.141 48.1198 103.141 47.6406C103.141 47.1927 103.224 46.7969 103.391 46.4531C103.562 46.1042 103.812 45.8125 104.141 45.5781C104.474 45.3438 104.88 45.1667 105.359 45.0469C105.839 44.9219 106.385 44.8594 107 44.8594H108.477ZM114.078 38V50H112.188V38H114.078ZM118.156 41.5469V50H116.266V41.5469H118.156ZM116.141 39.3281C116.141 39.0417 116.234 38.8047 116.422 38.6172C116.615 38.4245 116.88 38.3281 117.219 38.3281C117.552 38.3281 117.815 38.4245 118.008 38.6172C118.201 38.8047 118.297 39.0417 118.297 39.3281C118.297 39.6094 118.201 39.8438 118.008 40.0312C117.815 40.2188 117.552 40.3125 117.219 40.3125C116.88 40.3125 116.615 40.2188 116.422 40.0312C116.234 39.8438 116.141 39.6094 116.141 39.3281ZM125.367 53.25V43.2266L125.586 41.5469H127.266V53.25H125.367ZM119.875 45.8594V45.6953C119.875 45.0547 119.948 44.4714 120.094 43.9453C120.24 43.4141 120.456 42.9583 120.742 42.5781C121.029 42.1979 121.378 41.9062 121.789 41.7031C122.201 41.4948 122.674 41.3906 123.211 41.3906C123.732 41.3906 124.185 41.4896 124.57 41.6875C124.961 41.8854 125.289 42.1693 125.555 42.5391C125.826 42.9036 126.042 43.3385 126.203 43.8438C126.365 44.349 126.482 44.9115 126.555 45.5312V46.0547C126.487 46.6589 126.372 47.2109 126.211 47.7109C126.049 48.2109 125.833 48.6432 125.562 49.0078C125.292 49.3724 124.961 49.6562 124.57 49.8594C124.18 50.0573 123.721 50.1562 123.195 50.1562C122.669 50.1562 122.201 50.0495 121.789 49.8359C121.378 49.6224 121.029 49.3229 120.742 48.9375C120.461 48.5469 120.245 48.0911 120.094 47.5703C119.948 47.0443 119.875 46.474 119.875 45.8594ZM121.758 45.6953V45.8594C121.758 46.2448 121.792 46.6068 121.859 46.9453C121.932 47.2786 122.047 47.5755 122.203 47.8359C122.359 48.0911 122.557 48.2917 122.797 48.4375C123.036 48.5833 123.326 48.6562 123.664 48.6562C124.107 48.6562 124.469 48.5599 124.75 48.3672C125.036 48.1745 125.255 47.9167 125.406 47.5938C125.562 47.2656 125.672 46.9036 125.734 46.5078V45.0938C125.698 44.7865 125.633 44.5 125.539 44.2344C125.445 43.9635 125.315 43.7292 125.148 43.5312C124.987 43.3281 124.784 43.1719 124.539 43.0625C124.299 42.9479 124.013 42.8906 123.68 42.8906C123.341 42.8906 123.049 42.9635 122.805 43.1094C122.56 43.2552 122.359 43.4583 122.203 43.7188C122.052 43.974 121.94 44.2708 121.867 44.6094C121.794 44.9479 121.758 45.3099 121.758 45.6953ZM134.367 48.0078V41.5469H136.258V50H134.477L134.367 48.0078ZM134.633 46.25L135.266 46.2344C135.266 46.8021 135.203 47.3255 135.078 47.8047C134.953 48.2786 134.76 48.6927 134.5 49.0469C134.24 49.3958 133.906 49.6693 133.5 49.8672C133.094 50.0599 132.607 50.1562 132.039 50.1562C131.628 50.1562 131.25 50.0964 130.906 49.9766C130.562 49.8568 130.266 49.6719 130.016 49.4219C129.771 49.1719 129.581 48.8464 129.445 48.4453C129.31 48.0443 129.242 47.5651 129.242 47.0078V41.5469H131.125V47.0234C131.125 47.3307 131.161 47.5885 131.234 47.7969C131.307 48 131.406 48.1641 131.531 48.2891C131.656 48.4141 131.802 48.5026 131.969 48.5547C132.135 48.6068 132.312 48.6328 132.5 48.6328C133.036 48.6328 133.458 48.5286 133.766 48.3203C134.078 48.1068 134.299 47.8203 134.43 47.4609C134.565 47.1016 134.633 46.6979 134.633 46.25ZM142.953 48.3047V44.2734C142.953 43.9714 142.898 43.7109 142.789 43.4922C142.68 43.2734 142.513 43.1042 142.289 42.9844C142.07 42.8646 141.794 42.8047 141.461 42.8047C141.154 42.8047 140.888 42.8568 140.664 42.9609C140.44 43.0651 140.266 43.2057 140.141 43.3828C140.016 43.5599 139.953 43.7604 139.953 43.9844H138.078C138.078 43.651 138.159 43.3281 138.32 43.0156C138.482 42.7031 138.716 42.4245 139.023 42.1797C139.331 41.9349 139.698 41.7422 140.125 41.6016C140.552 41.4609 141.031 41.3906 141.562 41.3906C142.198 41.3906 142.76 41.4974 143.25 41.7109C143.745 41.9245 144.133 42.2474 144.414 42.6797C144.701 43.1068 144.844 43.6432 144.844 44.2891V48.0469C144.844 48.4323 144.87 48.7786 144.922 49.0859C144.979 49.388 145.06 49.651 145.164 49.875V50H143.234C143.146 49.7969 143.076 49.5391 143.023 49.2266C142.977 48.9089 142.953 48.6016 142.953 48.3047ZM143.227 44.8594L143.242 46.0234H141.891C141.542 46.0234 141.234 46.0573 140.969 46.125C140.703 46.1875 140.482 46.2812 140.305 46.4062C140.128 46.5312 139.995 46.6823 139.906 46.8594C139.818 47.0365 139.773 47.237 139.773 47.4609C139.773 47.6849 139.826 47.8906 139.93 48.0781C140.034 48.2604 140.185 48.4036 140.383 48.5078C140.586 48.612 140.831 48.6641 141.117 48.6641C141.503 48.6641 141.839 48.5859 142.125 48.4297C142.417 48.2682 142.646 48.0729 142.812 47.8438C142.979 47.6094 143.068 47.388 143.078 47.1797L143.688 48.0156C143.625 48.2292 143.518 48.4583 143.367 48.7031C143.216 48.9479 143.018 49.1823 142.773 49.4062C142.534 49.625 142.245 49.8047 141.906 49.9453C141.573 50.0859 141.188 50.1562 140.75 50.1562C140.198 50.1562 139.706 50.0469 139.273 49.8281C138.841 49.6042 138.503 49.3047 138.258 48.9297C138.013 48.5495 137.891 48.1198 137.891 47.6406C137.891 47.1927 137.974 46.7969 138.141 46.4531C138.312 46.1042 138.562 45.8125 138.891 45.5781C139.224 45.3438 139.63 45.1667 140.109 45.0469C140.589 44.9219 141.135 44.8594 141.75 44.8594H143.227ZM146.891 49.0625C146.891 48.7708 146.99 48.526 147.188 48.3281C147.385 48.125 147.654 48.0234 147.992 48.0234C148.336 48.0234 148.604 48.125 148.797 48.3281C148.995 48.526 149.094 48.7708 149.094 49.0625C149.094 49.3542 148.995 49.599 148.797 49.7969C148.604 49.9948 148.336 50.0938 147.992 50.0938C147.654 50.0938 147.385 49.9948 147.188 49.7969C146.99 49.599 146.891 49.3542 146.891 49.0625Z" fill="black"/>
</svg>
