<svg width="176" height="208" viewBox="0 0 176 208" fill="none" xmlns="http://www.w3.org/2000/svg">
<path d="M4.875 4.9375V22H1.93359V4.9375H4.875ZM11.0508 12.0273V22H8.22656V9.32031H10.8867L11.0508 12.0273ZM10.5469 15.1914L9.63281 15.1797C9.64062 14.2812 9.76562 13.457 10.0078 12.707C10.2578 11.957 10.6016 11.3125 11.0391 10.7734C11.4844 10.2344 12.0156 9.82031 12.6328 9.53125C13.25 9.23438 13.9375 9.08594 14.6953 9.08594C15.3047 9.08594 15.8555 9.17188 16.3477 9.34375C16.8477 9.50781 17.2734 9.77734 17.625 10.1523C17.9844 10.5273 18.2578 11.0156 18.4453 11.6172C18.6328 12.2109 18.7266 12.9414 18.7266 13.8086V22H15.8906V13.7969C15.8906 13.1875 15.8008 12.707 15.6211 12.3555C15.4492 11.9961 15.1953 11.7422 14.8594 11.5938C14.5312 11.4375 14.1211 11.3594 13.6289 11.3594C13.1445 11.3594 12.7109 11.4609 12.3281 11.6641C11.9453 11.8672 11.6211 12.1445 11.3555 12.4961C11.0977 12.8477 10.8984 13.2539 10.7578 13.7148C10.6172 14.1758 10.5469 14.668 10.5469 15.1914ZM24.668 9.32031V22H21.8438V9.32031H24.668ZM21.8672 7.63281L24.1523 4.10547H27.3398L24.1523 7.63281H21.8672ZM33.0703 19.9844C33.5312 19.9844 33.9453 19.8945 34.3125 19.7148C34.6875 19.5273 34.9883 19.2695 35.2148 18.9414C35.4492 18.6133 35.5781 18.2344 35.6016 17.8047H38.2617C38.2461 18.625 38.0039 19.3711 37.5352 20.043C37.0664 20.7148 36.4453 21.25 35.6719 21.6484C34.8984 22.0391 34.043 22.2344 33.1055 22.2344C32.1367 22.2344 31.293 22.0703 30.5742 21.7422C29.8555 21.4062 29.2578 20.9453 28.7812 20.3594C28.3047 19.7734 27.9453 19.0977 27.7031 18.332C27.4688 17.5664 27.3516 16.7461 27.3516 15.8711V15.4609C27.3516 14.5859 27.4688 13.7656 27.7031 13C27.9453 12.2266 28.3047 11.5469 28.7812 10.9609C29.2578 10.375 29.8555 9.91797 30.5742 9.58984C31.293 9.25391 32.1328 9.08594 33.0938 9.08594C34.1094 9.08594 35 9.28906 35.7656 9.69531C36.5312 10.0938 37.1328 10.6523 37.5703 11.3711C38.0156 12.082 38.2461 12.9102 38.2617 13.8555H35.6016C35.5781 13.3867 35.4609 12.9648 35.25 12.5898C35.0469 12.207 34.7578 11.9023 34.3828 11.6758C34.0156 11.4492 33.5742 11.3359 33.0586 11.3359C32.4883 11.3359 32.0156 11.4531 31.6406 11.6875C31.2656 11.9141 30.9727 12.2266 30.7617 12.625C30.5508 13.0156 30.3984 13.457 30.3047 13.9492C30.2188 14.4336 30.1758 14.9375 30.1758 15.4609V15.8711C30.1758 16.3945 30.2188 16.9023 30.3047 17.3945C30.3906 17.8867 30.5391 18.3281 30.75 18.7188C30.9688 19.1016 31.2656 19.4102 31.6406 19.6445C32.0156 19.8711 32.4922 19.9844 33.0703 19.9844ZM43.4531 9.32031V22H40.6172V9.32031H43.4531ZM40.4297 5.99219C40.4297 5.5625 40.5703 5.20703 40.8516 4.92578C41.1406 4.63672 41.5391 4.49219 42.0469 4.49219C42.5469 4.49219 42.9414 4.63672 43.2305 4.92578C43.5195 5.20703 43.6641 5.5625 43.6641 5.99219C43.6641 6.41406 43.5195 6.76562 43.2305 7.04688C42.9414 7.32812 42.5469 7.46875 42.0469 7.46875C41.5391 7.46875 41.1406 7.32812 40.8516 7.04688C40.5703 6.76562 40.4297 6.41406 40.4297 5.99219ZM46.0078 15.8008V15.5312C46.0078 14.6172 46.1406 13.7695 46.4062 12.9883C46.6719 12.1992 47.0547 11.5156 47.5547 10.9375C48.0625 10.3516 48.6797 9.89844 49.4062 9.57812C50.1406 9.25 50.9688 9.08594 51.8906 9.08594C52.8203 9.08594 53.6484 9.25 54.375 9.57812C55.1094 9.89844 55.7305 10.3516 56.2383 10.9375C56.7461 11.5156 57.1328 12.1992 57.3984 12.9883C57.6641 13.7695 57.7969 14.6172 57.7969 15.5312V15.8008C57.7969 16.7148 57.6641 17.5625 57.3984 18.3438C57.1328 19.125 56.7461 19.8086 56.2383 20.3945C55.7305 20.9727 55.1133 21.4258 54.3867 21.7539C53.6602 22.0742 52.8359 22.2344 51.9141 22.2344C50.9844 22.2344 50.1523 22.0742 49.418 21.7539C48.6914 21.4258 48.0742 20.9727 47.5664 20.3945C47.0586 19.8086 46.6719 19.125 46.4062 18.3438C46.1406 17.5625 46.0078 16.7148 46.0078 15.8008ZM48.832 15.5312V15.8008C48.832 16.3711 48.8906 16.9102 49.0078 17.418C49.125 17.9258 49.3086 18.3711 49.5586 18.7539C49.8086 19.1367 50.1289 19.4375 50.5195 19.6562C50.9102 19.875 51.375 19.9844 51.9141 19.9844C52.4375 19.9844 52.8906 19.875 53.2734 19.6562C53.6641 19.4375 53.9844 19.1367 54.2344 18.7539C54.4844 18.3711 54.668 17.9258 54.7852 17.418C54.9102 16.9102 54.9727 16.3711 54.9727 15.8008V15.5312C54.9727 14.9688 54.9102 14.4375 54.7852 13.9375C54.668 13.4297 54.4805 12.9805 54.2227 12.5898C53.9727 12.1992 53.6523 11.8945 53.2617 11.6758C52.8789 11.4492 52.4219 11.3359 51.8906 11.3359C51.3594 11.3359 50.8984 11.4492 50.5078 11.6758C50.125 11.8945 49.8086 12.1992 49.5586 12.5898C49.3086 12.9805 49.125 13.4297 49.0078 13.9375C48.8906 14.4375 48.832 14.9688 48.832 15.5312Z" fill="black"/>
<path d="M11.8125 76.4453H14.7422C14.6484 77.5625 14.3359 78.5586 13.8047 79.4336C13.2734 80.3008 12.5273 80.9844 11.5664 81.4844C10.6055 81.9844 9.4375 82.2344 8.0625 82.2344C7.00781 82.2344 6.05859 82.0469 5.21484 81.6719C4.37109 81.2891 3.64844 80.75 3.04688 80.0547C2.44531 79.3516 1.98438 78.5039 1.66406 77.5117C1.35156 76.5195 1.19531 75.4102 1.19531 74.1836V72.7656C1.19531 71.5391 1.35547 70.4297 1.67578 69.4375C2.00391 68.4453 2.47266 67.5977 3.08203 66.8945C3.69141 66.1836 4.42188 65.6406 5.27344 65.2656C6.13281 64.8906 7.09766 64.7031 8.16797 64.7031C9.52734 64.7031 10.6758 64.9531 11.6133 65.4531C12.5508 65.9531 13.2773 66.6445 13.793 67.5273C14.3164 68.4102 14.6367 69.4219 14.7539 70.5625H11.8242C11.7461 69.8281 11.5742 69.1992 11.3086 68.6758C11.0508 68.1523 10.668 67.7539 10.1602 67.4805C9.65234 67.1992 8.98828 67.0586 8.16797 67.0586C7.49609 67.0586 6.91016 67.1836 6.41016 67.4336C5.91016 67.6836 5.49219 68.0508 5.15625 68.5352C4.82031 69.0195 4.56641 69.6172 4.39453 70.3281C4.23047 71.0312 4.14844 71.8359 4.14844 72.7422V74.1836C4.14844 75.043 4.22266 75.8242 4.37109 76.5273C4.52734 77.2227 4.76172 77.8203 5.07422 78.3203C5.39453 78.8203 5.80078 79.207 6.29297 79.4805C6.78516 79.7539 7.375 79.8906 8.0625 79.8906C8.89844 79.8906 9.57422 79.7578 10.0898 79.4922C10.6133 79.2266 11.0078 78.8398 11.2734 78.332C11.5469 77.8164 11.7266 77.1875 11.8125 76.4453ZM24.7617 79.0117V69.3203H27.5977V82H24.9258L24.7617 79.0117ZM25.1602 76.375L26.1094 76.3516C26.1094 77.2031 26.0156 77.9883 25.8281 78.707C25.6406 79.418 25.3516 80.0391 24.9609 80.5703C24.5703 81.0938 24.0703 81.5039 23.4609 81.8008C22.8516 82.0898 22.1211 82.2344 21.2695 82.2344C20.6523 82.2344 20.0859 82.1445 19.5703 81.9648C19.0547 81.7852 18.6094 81.5078 18.2344 81.1328C17.8672 80.7578 17.582 80.2695 17.3789 79.668C17.1758 79.0664 17.0742 78.3477 17.0742 77.5117V69.3203H19.8984V77.5352C19.8984 77.9961 19.9531 78.3828 20.0625 78.6953C20.1719 79 20.3203 79.2461 20.5078 79.4336C20.6953 79.6211 20.9141 79.7539 21.1641 79.832C21.4141 79.9102 21.6797 79.9492 21.9609 79.9492C22.7656 79.9492 23.3984 79.793 23.8594 79.4805C24.3281 79.1602 24.6602 78.7305 24.8555 78.1914C25.0586 77.6523 25.1602 77.0469 25.1602 76.375ZM33.3281 71.7344V82H30.5039V69.3203H33.1992L33.3281 71.7344ZM37.207 69.2383L37.1836 71.8633C37.0117 71.832 36.8242 71.8086 36.6211 71.793C36.4258 71.7773 36.2305 71.7695 36.0352 71.7695C35.5508 71.7695 35.125 71.8398 34.7578 71.9805C34.3906 72.1133 34.082 72.3086 33.832 72.5664C33.5898 72.8164 33.4023 73.1211 33.2695 73.4805C33.1367 73.8398 33.0586 74.2422 33.0352 74.6875L32.3906 74.7344C32.3906 73.9375 32.4688 73.1992 32.625 72.5195C32.7812 71.8398 33.0156 71.2422 33.3281 70.7266C33.6484 70.2109 34.0469 69.8086 34.5234 69.5195C35.0078 69.2305 35.5664 69.0859 36.1992 69.0859C36.3711 69.0859 36.5547 69.1016 36.75 69.1328C36.9531 69.1641 37.1055 69.1992 37.207 69.2383ZM46.0898 78.5664C46.0898 78.2852 46.0195 78.0312 45.8789 77.8047C45.7383 77.5703 45.4688 77.3594 45.0703 77.1719C44.6797 76.9844 44.1016 76.8125 43.3359 76.6562C42.6641 76.5078 42.0469 76.332 41.4844 76.1289C40.9297 75.918 40.4531 75.6641 40.0547 75.3672C39.6562 75.0703 39.3477 74.7188 39.1289 74.3125C38.9102 73.9062 38.8008 73.4375 38.8008 72.9062C38.8008 72.3906 38.9141 71.9023 39.1406 71.4414C39.3672 70.9805 39.6914 70.5742 40.1133 70.2227C40.5352 69.8711 41.0469 69.5938 41.6484 69.3906C42.2578 69.1875 42.9375 69.0859 43.6875 69.0859C44.75 69.0859 45.6602 69.2656 46.418 69.625C47.1836 69.9766 47.7695 70.457 48.1758 71.0664C48.582 71.668 48.7852 72.3477 48.7852 73.1055H45.9609C45.9609 72.7695 45.875 72.457 45.7031 72.168C45.5391 71.8711 45.2891 71.6328 44.9531 71.4531C44.6172 71.2656 44.1953 71.1719 43.6875 71.1719C43.2031 71.1719 42.8008 71.25 42.4805 71.4062C42.168 71.5547 41.9336 71.75 41.7773 71.9922C41.6289 72.2344 41.5547 72.5 41.5547 72.7891C41.5547 73 41.5938 73.1914 41.6719 73.3633C41.7578 73.5273 41.8984 73.6797 42.0938 73.8203C42.2891 73.9531 42.5547 74.0781 42.8906 74.1953C43.2344 74.3125 43.6641 74.4258 44.1797 74.5352C45.1484 74.7383 45.9805 75 46.6758 75.3203C47.3789 75.6328 47.918 76.0391 48.293 76.5391C48.668 77.0312 48.8555 77.6562 48.8555 78.4141C48.8555 78.9766 48.7344 79.4922 48.4922 79.9609C48.2578 80.4219 47.9141 80.8242 47.4609 81.168C47.0078 81.5039 46.4648 81.7656 45.832 81.9531C45.207 82.1406 44.5039 82.2344 43.7227 82.2344C42.5742 82.2344 41.6016 82.0312 40.8047 81.625C40.0078 81.2109 39.4023 80.6836 38.9883 80.043C38.582 79.3945 38.3789 78.7227 38.3789 78.0273H41.1094C41.1406 78.5508 41.2852 78.9688 41.543 79.2812C41.8086 79.5859 42.1367 79.8086 42.5273 79.9492C42.9258 80.082 43.3359 80.1484 43.7578 80.1484C44.2656 80.1484 44.6914 80.082 45.0352 79.9492C45.3789 79.8086 45.6406 79.6211 45.8203 79.3867C46 79.1445 46.0898 78.8711 46.0898 78.5664ZM50.7891 75.8008V75.5312C50.7891 74.6172 50.9219 73.7695 51.1875 72.9883C51.4531 72.1992 51.8359 71.5156 52.3359 70.9375C52.8438 70.3516 53.4609 69.8984 54.1875 69.5781C54.9219 69.25 55.75 69.0859 56.6719 69.0859C57.6016 69.0859 58.4297 69.25 59.1562 69.5781C59.8906 69.8984 60.5117 70.3516 61.0195 70.9375C61.5273 71.5156 61.9141 72.1992 62.1797 72.9883C62.4453 73.7695 62.5781 74.6172 62.5781 75.5312V75.8008C62.5781 76.7148 62.4453 77.5625 62.1797 78.3438C61.9141 79.125 61.5273 79.8086 61.0195 80.3945C60.5117 80.9727 59.8945 81.4258 59.168 81.7539C58.4414 82.0742 57.6172 82.2344 56.6953 82.2344C55.7656 82.2344 54.9336 82.0742 54.1992 81.7539C53.4727 81.4258 52.8555 80.9727 52.3477 80.3945C51.8398 79.8086 51.4531 79.125 51.1875 78.3438C50.9219 77.5625 50.7891 76.7148 50.7891 75.8008ZM53.6133 75.5312V75.8008C53.6133 76.3711 53.6719 76.9102 53.7891 77.418C53.9062 77.9258 54.0898 78.3711 54.3398 78.7539C54.5898 79.1367 54.9102 79.4375 55.3008 79.6562C55.6914 79.875 56.1562 79.9844 56.6953 79.9844C57.2188 79.9844 57.6719 79.875 58.0547 79.6562C58.4453 79.4375 58.7656 79.1367 59.0156 78.7539C59.2656 78.3711 59.4492 77.9258 59.5664 77.418C59.6914 76.9102 59.7539 76.3711 59.7539 75.8008V75.5312C59.7539 74.9688 59.6914 74.4375 59.5664 73.9375C59.4492 73.4297 59.2617 72.9805 59.0039 72.5898C58.7539 72.1992 58.4336 71.8945 58.043 71.6758C57.6602 71.4492 57.2031 71.3359 56.6719 71.3359C56.1406 71.3359 55.6797 71.4492 55.2891 71.6758C54.9062 71.8945 54.5898 72.1992 54.3398 72.5898C54.0898 72.9805 53.9062 73.4297 53.7891 73.9375C53.6719 74.4375 53.6133 74.9688 53.6133 75.5312ZM72.0586 78.5664C72.0586 78.2852 71.9883 78.0312 71.8477 77.8047C71.707 77.5703 71.4375 77.3594 71.0391 77.1719C70.6484 76.9844 70.0703 76.8125 69.3047 76.6562C68.6328 76.5078 68.0156 76.332 67.4531 76.1289C66.8984 75.918 66.4219 75.6641 66.0234 75.3672C65.625 75.0703 65.3164 74.7188 65.0977 74.3125C64.8789 73.9062 64.7695 73.4375 64.7695 72.9062C64.7695 72.3906 64.8828 71.9023 65.1094 71.4414C65.3359 70.9805 65.6602 70.5742 66.082 70.2227C66.5039 69.8711 67.0156 69.5938 67.6172 69.3906C68.2266 69.1875 68.9062 69.0859 69.6562 69.0859C70.7188 69.0859 71.6289 69.2656 72.3867 69.625C73.1523 69.9766 73.7383 70.457 74.1445 71.0664C74.5508 71.668 74.7539 72.3477 74.7539 73.1055H71.9297C71.9297 72.7695 71.8438 72.457 71.6719 72.168C71.5078 71.8711 71.2578 71.6328 70.9219 71.4531C70.5859 71.2656 70.1641 71.1719 69.6562 71.1719C69.1719 71.1719 68.7695 71.25 68.4492 71.4062C68.1367 71.5547 67.9023 71.75 67.7461 71.9922C67.5977 72.2344 67.5234 72.5 67.5234 72.7891C67.5234 73 67.5625 73.1914 67.6406 73.3633C67.7266 73.5273 67.8672 73.6797 68.0625 73.8203C68.2578 73.9531 68.5234 74.0781 68.8594 74.1953C69.2031 74.3125 69.6328 74.4258 70.1484 74.5352C71.1172 74.7383 71.9492 75 72.6445 75.3203C73.3477 75.6328 73.8867 76.0391 74.2617 76.5391C74.6367 77.0312 74.8242 77.6562 74.8242 78.4141C74.8242 78.9766 74.7031 79.4922 74.4609 79.9609C74.2266 80.4219 73.8828 80.8242 73.4297 81.168C72.9766 81.5039 72.4336 81.7656 71.8008 81.9531C71.1758 82.1406 70.4727 82.2344 69.6914 82.2344C68.543 82.2344 67.5703 82.0312 66.7734 81.625C65.9766 81.2109 65.3711 80.6836 64.957 80.043C64.5508 79.3945 64.3477 78.7227 64.3477 78.0273H67.0781C67.1094 78.5508 67.2539 78.9688 67.5117 79.2812C67.7773 79.5859 68.1055 79.8086 68.4961 79.9492C68.8945 80.082 69.3047 80.1484 69.7266 80.1484C70.2344 80.1484 70.6602 80.082 71.0039 79.9492C71.3477 79.8086 71.6094 79.6211 71.7891 79.3867C71.9688 79.1445 72.0586 78.8711 72.0586 78.5664Z" fill="black"/>
<path d="M12.9023 139.668V142H3.84375V139.668H12.9023ZM4.67578 124.938V142H1.73438V124.938H4.67578ZM11.7188 132.062V134.359H3.84375V132.062H11.7188ZM12.8438 124.938V127.281H3.84375V124.938H12.8438ZM18.8438 139.762L21.9492 129.32H24.8789L20.4727 142H18.6445L18.8438 139.762ZM16.4648 129.32L19.6289 139.809L19.7812 142H17.9531L13.5234 129.32H16.4648ZM32.0508 142.234C31.1133 142.234 30.2656 142.082 29.5078 141.777C28.7578 141.465 28.1172 141.031 27.5859 140.477C27.0625 139.922 26.6602 139.27 26.3789 138.52C26.0977 137.77 25.957 136.961 25.957 136.094V135.625C25.957 134.633 26.1016 133.734 26.3906 132.93C26.6797 132.125 27.082 131.438 27.5977 130.867C28.1133 130.289 28.7227 129.848 29.4258 129.543C30.1289 129.238 30.8906 129.086 31.7109 129.086C32.6172 129.086 33.4102 129.238 34.0898 129.543C34.7695 129.848 35.332 130.277 35.7773 130.832C36.2305 131.379 36.5664 132.031 36.7852 132.789C37.0117 133.547 37.125 134.383 37.125 135.297V136.504H27.3281V134.477H34.3359V134.254C34.3203 133.746 34.2188 133.27 34.0312 132.824C33.8516 132.379 33.5742 132.02 33.1992 131.746C32.8242 131.473 32.3242 131.336 31.6992 131.336C31.2305 131.336 30.8125 131.438 30.4453 131.641C30.0859 131.836 29.7852 132.121 29.543 132.496C29.3008 132.871 29.1133 133.324 28.9805 133.855C28.8555 134.379 28.793 134.969 28.793 135.625V136.094C28.793 136.648 28.8672 137.164 29.0156 137.641C29.1719 138.109 29.3984 138.52 29.6953 138.871C29.9922 139.223 30.3516 139.5 30.7734 139.703C31.1953 139.898 31.6758 139.996 32.2148 139.996C32.8945 139.996 33.5 139.859 34.0312 139.586C34.5625 139.312 35.0234 138.926 35.4141 138.426L36.9023 139.867C36.6289 140.266 36.2734 140.648 35.8359 141.016C35.3984 141.375 34.8633 141.668 34.2305 141.895C33.6055 142.121 32.8789 142.234 32.0508 142.234ZM42.1289 132.027V142H39.3047V129.32H41.9648L42.1289 132.027ZM41.625 135.191L40.7109 135.18C40.7188 134.281 40.8438 133.457 41.0859 132.707C41.3359 131.957 41.6797 131.312 42.1172 130.773C42.5625 130.234 43.0938 129.82 43.7109 129.531C44.3281 129.234 45.0156 129.086 45.7734 129.086C46.3828 129.086 46.9336 129.172 47.4258 129.344C47.9258 129.508 48.3516 129.777 48.7031 130.152C49.0625 130.527 49.3359 131.016 49.5234 131.617C49.7109 132.211 49.8047 132.941 49.8047 133.809V142H46.9688V133.797C46.9688 133.188 46.8789 132.707 46.6992 132.355C46.5273 131.996 46.2734 131.742 45.9375 131.594C45.6094 131.438 45.1992 131.359 44.707 131.359C44.2227 131.359 43.7891 131.461 43.4062 131.664C43.0234 131.867 42.6992 132.145 42.4336 132.496C42.1758 132.848 41.9766 133.254 41.8359 133.715C41.6953 134.176 41.625 134.668 41.625 135.191ZM58.5 129.32V131.383H51.3516V129.32H58.5ZM53.4141 126.215H56.2383V138.496C56.2383 138.887 56.293 139.188 56.4023 139.398C56.5195 139.602 56.6797 139.738 56.8828 139.809C57.0859 139.879 57.3242 139.914 57.5977 139.914C57.793 139.914 57.9805 139.902 58.1602 139.879C58.3398 139.855 58.4844 139.832 58.5938 139.809L58.6055 141.965C58.3711 142.035 58.0977 142.098 57.7852 142.152C57.4805 142.207 57.1289 142.234 56.7305 142.234C56.082 142.234 55.5078 142.121 55.0078 141.895C54.5078 141.66 54.1172 141.281 53.8359 140.758C53.5547 140.234 53.4141 139.539 53.4141 138.672V126.215ZM59.8594 135.801V135.531C59.8594 134.617 59.9922 133.77 60.2578 132.988C60.5234 132.199 60.9062 131.516 61.4062 130.938C61.9141 130.352 62.5312 129.898 63.2578 129.578C63.9922 129.25 64.8203 129.086 65.7422 129.086C66.6719 129.086 67.5 129.25 68.2266 129.578C68.9609 129.898 69.582 130.352 70.0898 130.938C70.5977 131.516 70.9844 132.199 71.25 132.988C71.5156 133.77 71.6484 134.617 71.6484 135.531V135.801C71.6484 136.715 71.5156 137.562 71.25 138.344C70.9844 139.125 70.5977 139.809 70.0898 140.395C69.582 140.973 68.9648 141.426 68.2383 141.754C67.5117 142.074 66.6875 142.234 65.7656 142.234C64.8359 142.234 64.0039 142.074 63.2695 141.754C62.543 141.426 61.9258 140.973 61.418 140.395C60.9102 139.809 60.5234 139.125 60.2578 138.344C59.9922 137.562 59.8594 136.715 59.8594 135.801ZM62.6836 135.531V135.801C62.6836 136.371 62.7422 136.91 62.8594 137.418C62.9766 137.926 63.1602 138.371 63.4102 138.754C63.6602 139.137 63.9805 139.438 64.3711 139.656C64.7617 139.875 65.2266 139.984 65.7656 139.984C66.2891 139.984 66.7422 139.875 67.125 139.656C67.5156 139.438 67.8359 139.137 68.0859 138.754C68.3359 138.371 68.5195 137.926 68.6367 137.418C68.7617 136.91 68.8242 136.371 68.8242 135.801V135.531C68.8242 134.969 68.7617 134.438 68.6367 133.938C68.5195 133.43 68.332 132.98 68.0742 132.59C67.8242 132.199 67.5039 131.895 67.1133 131.676C66.7305 131.449 66.2734 131.336 65.7422 131.336C65.2109 131.336 64.75 131.449 64.3594 131.676C63.9766 131.895 63.6602 132.199 63.4102 132.59C63.1602 132.98 62.9766 133.43 62.8594 133.938C62.7422 134.438 62.6836 134.969 62.6836 135.531ZM81.1289 138.566C81.1289 138.285 81.0586 138.031 80.918 137.805C80.7773 137.57 80.5078 137.359 80.1094 137.172C79.7188 136.984 79.1406 136.812 78.375 136.656C77.7031 136.508 77.0859 136.332 76.5234 136.129C75.9688 135.918 75.4922 135.664 75.0938 135.367C74.6953 135.07 74.3867 134.719 74.168 134.312C73.9492 133.906 73.8398 133.438 73.8398 132.906C73.8398 132.391 73.9531 131.902 74.1797 131.441C74.4062 130.98 74.7305 130.574 75.1523 130.223C75.5742 129.871 76.0859 129.594 76.6875 129.391C77.2969 129.188 77.9766 129.086 78.7266 129.086C79.7891 129.086 80.6992 129.266 81.457 129.625C82.2227 129.977 82.8086 130.457 83.2148 131.066C83.6211 131.668 83.8242 132.348 83.8242 133.105H81C81 132.77 80.9141 132.457 80.7422 132.168C80.5781 131.871 80.3281 131.633 79.9922 131.453C79.6562 131.266 79.2344 131.172 78.7266 131.172C78.2422 131.172 77.8398 131.25 77.5195 131.406C77.207 131.555 76.9727 131.75 76.8164 131.992C76.668 132.234 76.5938 132.5 76.5938 132.789C76.5938 133 76.6328 133.191 76.7109 133.363C76.7969 133.527 76.9375 133.68 77.1328 133.82C77.3281 133.953 77.5938 134.078 77.9297 134.195C78.2734 134.312 78.7031 134.426 79.2188 134.535C80.1875 134.738 81.0195 135 81.7148 135.32C82.418 135.633 82.957 136.039 83.332 136.539C83.707 137.031 83.8945 137.656 83.8945 138.414C83.8945 138.977 83.7734 139.492 83.5312 139.961C83.2969 140.422 82.9531 140.824 82.5 141.168C82.0469 141.504 81.5039 141.766 80.8711 141.953C80.2461 142.141 79.543 142.234 78.7617 142.234C77.6133 142.234 76.6406 142.031 75.8438 141.625C75.0469 141.211 74.4414 140.684 74.0273 140.043C73.6211 139.395 73.418 138.723 73.418 138.027H76.1484C76.1797 138.551 76.3242 138.969 76.582 139.281C76.8477 139.586 77.1758 139.809 77.5664 139.949C77.9648 140.082 78.375 140.148 78.7969 140.148C79.3047 140.148 79.7305 140.082 80.0742 139.949C80.418 139.809 80.6797 139.621 80.8594 139.387C81.0391 139.145 81.1289 138.871 81.1289 138.566Z" fill="black"/>
<path d="M11.8125 196.445H14.7422C14.6484 197.562 14.3359 198.559 13.8047 199.434C13.2734 200.301 12.5273 200.984 11.5664 201.484C10.6055 201.984 9.4375 202.234 8.0625 202.234C7.00781 202.234 6.05859 202.047 5.21484 201.672C4.37109 201.289 3.64844 200.75 3.04688 200.055C2.44531 199.352 1.98438 198.504 1.66406 197.512C1.35156 196.52 1.19531 195.41 1.19531 194.184V192.766C1.19531 191.539 1.35547 190.43 1.67578 189.438C2.00391 188.445 2.47266 187.598 3.08203 186.895C3.69141 186.184 4.42188 185.641 5.27344 185.266C6.13281 184.891 7.09766 184.703 8.16797 184.703C9.52734 184.703 10.6758 184.953 11.6133 185.453C12.5508 185.953 13.2773 186.645 13.793 187.527C14.3164 188.41 14.6367 189.422 14.7539 190.562H11.8242C11.7461 189.828 11.5742 189.199 11.3086 188.676C11.0508 188.152 10.668 187.754 10.1602 187.48C9.65234 187.199 8.98828 187.059 8.16797 187.059C7.49609 187.059 6.91016 187.184 6.41016 187.434C5.91016 187.684 5.49219 188.051 5.15625 188.535C4.82031 189.02 4.56641 189.617 4.39453 190.328C4.23047 191.031 4.14844 191.836 4.14844 192.742V194.184C4.14844 195.043 4.22266 195.824 4.37109 196.527C4.52734 197.223 4.76172 197.82 5.07422 198.32C5.39453 198.82 5.80078 199.207 6.29297 199.48C6.78516 199.754 7.375 199.891 8.0625 199.891C8.89844 199.891 9.57422 199.758 10.0898 199.492C10.6133 199.227 11.0078 198.84 11.2734 198.332C11.5469 197.816 11.7266 197.188 11.8125 196.445ZM16.5938 195.801V195.531C16.5938 194.617 16.7266 193.77 16.9922 192.988C17.2578 192.199 17.6406 191.516 18.1406 190.938C18.6484 190.352 19.2656 189.898 19.9922 189.578C20.7266 189.25 21.5547 189.086 22.4766 189.086C23.4062 189.086 24.2344 189.25 24.9609 189.578C25.6953 189.898 26.3164 190.352 26.8242 190.938C27.332 191.516 27.7188 192.199 27.9844 192.988C28.25 193.77 28.3828 194.617 28.3828 195.531V195.801C28.3828 196.715 28.25 197.562 27.9844 198.344C27.7188 199.125 27.332 199.809 26.8242 200.395C26.3164 200.973 25.6992 201.426 24.9727 201.754C24.2461 202.074 23.4219 202.234 22.5 202.234C21.5703 202.234 20.7383 202.074 20.0039 201.754C19.2773 201.426 18.6602 200.973 18.1523 200.395C17.6445 199.809 17.2578 199.125 16.9922 198.344C16.7266 197.562 16.5938 196.715 16.5938 195.801ZM19.418 195.531V195.801C19.418 196.371 19.4766 196.91 19.5938 197.418C19.7109 197.926 19.8945 198.371 20.1445 198.754C20.3945 199.137 20.7148 199.438 21.1055 199.656C21.4961 199.875 21.9609 199.984 22.5 199.984C23.0234 199.984 23.4766 199.875 23.8594 199.656C24.25 199.438 24.5703 199.137 24.8203 198.754C25.0703 198.371 25.2539 197.926 25.3711 197.418C25.4961 196.91 25.5586 196.371 25.5586 195.801V195.531C25.5586 194.969 25.4961 194.438 25.3711 193.938C25.2539 193.43 25.0664 192.98 24.8086 192.59C24.5586 192.199 24.2383 191.895 23.8477 191.676C23.4648 191.449 23.0078 191.336 22.4766 191.336C21.9453 191.336 21.4844 191.449 21.0938 191.676C20.7109 191.895 20.3945 192.199 20.1445 192.59C19.8945 192.98 19.7109 193.43 19.5938 193.938C19.4766 194.438 19.418 194.969 19.418 195.531ZM33.5508 192.027V202H30.7266V189.32H33.3867L33.5508 192.027ZM33.0469 195.191L32.1328 195.18C32.1406 194.281 32.2656 193.457 32.5078 192.707C32.7578 191.957 33.1016 191.312 33.5391 190.773C33.9844 190.234 34.5156 189.82 35.1328 189.531C35.75 189.234 36.4375 189.086 37.1953 189.086C37.8047 189.086 38.3555 189.172 38.8477 189.344C39.3477 189.508 39.7734 189.777 40.125 190.152C40.4844 190.527 40.7578 191.016 40.9453 191.617C41.1328 192.211 41.2266 192.941 41.2266 193.809V202H38.3906V193.797C38.3906 193.188 38.3008 192.707 38.1211 192.355C37.9492 191.996 37.6953 191.742 37.3594 191.594C37.0312 191.438 36.6211 191.359 36.1289 191.359C35.6445 191.359 35.2109 191.461 34.8281 191.664C34.4453 191.867 34.1211 192.145 33.8555 192.496C33.5977 192.848 33.3984 193.254 33.2578 193.715C33.1172 194.176 33.0469 194.668 33.0469 195.191ZM49.9219 189.32V191.383H42.7734V189.32H49.9219ZM44.8359 186.215H47.6602V198.496C47.6602 198.887 47.7148 199.188 47.8242 199.398C47.9414 199.602 48.1016 199.738 48.3047 199.809C48.5078 199.879 48.7461 199.914 49.0195 199.914C49.2148 199.914 49.4023 199.902 49.582 199.879C49.7617 199.855 49.9062 199.832 50.0156 199.809L50.0273 201.965C49.793 202.035 49.5195 202.098 49.207 202.152C48.9023 202.207 48.5508 202.234 48.1523 202.234C47.5039 202.234 46.9297 202.121 46.4297 201.895C45.9297 201.66 45.5391 201.281 45.2578 200.758C44.9766 200.234 44.8359 199.539 44.8359 198.672V186.215ZM59.25 199.457V193.41C59.25 192.957 59.168 192.566 59.0039 192.238C58.8398 191.91 58.5898 191.656 58.2539 191.477C57.9258 191.297 57.5117 191.207 57.0117 191.207C56.5508 191.207 56.1523 191.285 55.8164 191.441C55.4805 191.598 55.2188 191.809 55.0312 192.074C54.8438 192.34 54.75 192.641 54.75 192.977H51.9375C51.9375 192.477 52.0586 191.992 52.3008 191.523C52.543 191.055 52.8945 190.637 53.3555 190.27C53.8164 189.902 54.3672 189.613 55.0078 189.402C55.6484 189.191 56.3672 189.086 57.1641 189.086C58.1172 189.086 58.9609 189.246 59.6953 189.566C60.4375 189.887 61.0195 190.371 61.4414 191.02C61.8711 191.66 62.0859 192.465 62.0859 193.434V199.07C62.0859 199.648 62.125 200.168 62.2031 200.629C62.2891 201.082 62.4102 201.477 62.5664 201.812V202H59.6719C59.5391 201.695 59.4336 201.309 59.3555 200.84C59.2852 200.363 59.25 199.902 59.25 199.457ZM59.6602 194.289L59.6836 196.035H57.6562C57.1328 196.035 56.6719 196.086 56.2734 196.188C55.875 196.281 55.543 196.422 55.2773 196.609C55.0117 196.797 54.8125 197.023 54.6797 197.289C54.5469 197.555 54.4805 197.855 54.4805 198.191C54.4805 198.527 54.5586 198.836 54.7148 199.117C54.8711 199.391 55.0977 199.605 55.3945 199.762C55.6992 199.918 56.0664 199.996 56.4961 199.996C57.0742 199.996 57.5781 199.879 58.0078 199.645C58.4453 199.402 58.7891 199.109 59.0391 198.766C59.2891 198.414 59.4219 198.082 59.4375 197.77L60.3516 199.023C60.2578 199.344 60.0977 199.688 59.8711 200.055C59.6445 200.422 59.3477 200.773 58.9805 201.109C58.6211 201.438 58.1875 201.707 57.6797 201.918C57.1797 202.129 56.6016 202.234 55.9453 202.234C55.1172 202.234 54.3789 202.07 53.7305 201.742C53.082 201.406 52.5742 200.957 52.207 200.395C51.8398 199.824 51.6562 199.18 51.6562 198.461C51.6562 197.789 51.7812 197.195 52.0312 196.68C52.2891 196.156 52.6641 195.719 53.1562 195.367C53.6562 195.016 54.2656 194.75 54.9844 194.57C55.7031 194.383 56.5234 194.289 57.4453 194.289H59.6602ZM70.8516 189.32V191.383H63.7031V189.32H70.8516ZM65.7656 186.215H68.5898V198.496C68.5898 198.887 68.6445 199.188 68.7539 199.398C68.8711 199.602 69.0312 199.738 69.2344 199.809C69.4375 199.879 69.6758 199.914 69.9492 199.914C70.1445 199.914 70.332 199.902 70.5117 199.879C70.6914 199.855 70.8359 199.832 70.9453 199.809L70.957 201.965C70.7227 202.035 70.4492 202.098 70.1367 202.152C69.832 202.207 69.4805 202.234 69.082 202.234C68.4336 202.234 67.8594 202.121 67.3594 201.895C66.8594 201.66 66.4688 201.281 66.1875 200.758C65.9062 200.234 65.7656 199.539 65.7656 198.672V186.215ZM72.2109 195.801V195.531C72.2109 194.617 72.3438 193.77 72.6094 192.988C72.875 192.199 73.2578 191.516 73.7578 190.938C74.2656 190.352 74.8828 189.898 75.6094 189.578C76.3438 189.25 77.1719 189.086 78.0938 189.086C79.0234 189.086 79.8516 189.25 80.5781 189.578C81.3125 189.898 81.9336 190.352 82.4414 190.938C82.9492 191.516 83.3359 192.199 83.6016 192.988C83.8672 193.77 84 194.617 84 195.531V195.801C84 196.715 83.8672 197.562 83.6016 198.344C83.3359 199.125 82.9492 199.809 82.4414 200.395C81.9336 200.973 81.3164 201.426 80.5898 201.754C79.8633 202.074 79.0391 202.234 78.1172 202.234C77.1875 202.234 76.3555 202.074 75.6211 201.754C74.8945 201.426 74.2773 200.973 73.7695 200.395C73.2617 199.809 72.875 199.125 72.6094 198.344C72.3438 197.562 72.2109 196.715 72.2109 195.801ZM75.0352 195.531V195.801C75.0352 196.371 75.0938 196.91 75.2109 197.418C75.3281 197.926 75.5117 198.371 75.7617 198.754C76.0117 199.137 76.332 199.438 76.7227 199.656C77.1133 199.875 77.5781 199.984 78.1172 199.984C78.6406 199.984 79.0938 199.875 79.4766 199.656C79.8672 199.438 80.1875 199.137 80.4375 198.754C80.6875 198.371 80.8711 197.926 80.9883 197.418C81.1133 196.91 81.1758 196.371 81.1758 195.801V195.531C81.1758 194.969 81.1133 194.438 80.9883 193.938C80.8711 193.43 80.6836 192.98 80.4258 192.59C80.1758 192.199 79.8555 191.895 79.4648 191.676C79.082 191.449 78.625 191.336 78.0938 191.336C77.5625 191.336 77.1016 191.449 76.7109 191.676C76.3281 191.895 76.0117 192.199 75.7617 192.59C75.5117 192.98 75.3281 193.43 75.2109 193.938C75.0938 194.438 75.0352 194.969 75.0352 195.531Z" fill="black"/>
</svg>
