<svg width="229" height="52" viewBox="0 0 229 52" fill="none" xmlns="http://www.w3.org/2000/svg">
<g filter="url(#filter0_d_2_1837)">
<rect x="1" y="1" width="223" height="46" fill="#ED4D1B" stroke="black" stroke-width="2"/>
<path d="M44.2871 29.1055L48.0274 32.0742L46.4356 33.4707L42.7637 30.5312L44.2871 29.1055ZM48.0567 23.5V24.2812C48.0567 25.3555 47.9167 26.319 47.6367 27.1719C47.3568 28.0247 46.9564 28.7507 46.4356 29.3496C45.9147 29.9486 45.293 30.4076 44.5703 30.7266C43.8477 31.0391 43.0469 31.1953 42.168 31.1953C41.2956 31.1953 40.4981 31.0391 39.7754 30.7266C39.0593 30.4076 38.4375 29.9486 37.9102 29.3496C37.3828 28.7507 36.9727 28.0247 36.6797 27.1719C36.3933 26.319 36.25 25.3555 36.25 24.2812V23.5C36.25 22.4258 36.3933 21.4655 36.6797 20.6191C36.9662 19.7663 37.3698 19.0404 37.8906 18.4414C38.418 17.8359 39.0397 17.377 39.7559 17.0645C40.4785 16.7454 41.2761 16.5859 42.1485 16.5859C43.0274 16.5859 43.8281 16.7454 44.5508 17.0645C45.28 17.377 45.905 17.8359 46.4258 18.4414C46.9466 19.0404 47.347 19.7663 47.627 20.6191C47.9134 21.4655 48.0567 22.4258 48.0567 23.5ZM45.5957 24.2812V23.4805C45.5957 22.6862 45.5176 21.9863 45.3614 21.3809C45.2116 20.7689 44.987 20.2578 44.6875 19.8477C44.3946 19.431 44.0332 19.1185 43.6035 18.9102C43.1804 18.6953 42.6953 18.5879 42.1485 18.5879C41.6146 18.5879 41.1361 18.6953 40.7129 18.9102C40.2897 19.1185 39.9284 19.431 39.6289 19.8477C39.3294 20.2578 39.1016 20.7689 38.9453 21.3809C38.7891 21.9863 38.711 22.6862 38.711 23.4805V24.2812C38.711 25.0755 38.7891 25.7786 38.9453 26.3906C39.1016 27.0026 39.3294 27.5202 39.6289 27.9434C39.9349 28.36 40.2995 28.6758 40.7227 28.8906C41.1524 29.099 41.6341 29.2031 42.168 29.2031C42.7149 29.2031 43.1999 29.099 43.6231 28.8906C44.0462 28.6758 44.4043 28.36 44.6973 27.9434C44.9903 27.5202 45.2116 27.0026 45.3614 26.3906C45.5176 25.7786 45.5957 25.0755 45.5957 24.2812ZM58.5254 16.7812H60.9668V26.2832C60.9668 27.3639 60.7324 28.2689 60.2637 28.998C59.7949 29.7272 59.1569 30.2773 58.3496 30.6484C57.5489 31.013 56.6537 31.1953 55.6641 31.1953C54.6419 31.1953 53.7305 31.013 52.9297 30.6484C52.1289 30.2773 51.4974 29.7272 51.0352 28.998C50.5794 28.2689 50.3516 27.3639 50.3516 26.2832V16.7812H52.793V26.2832C52.793 26.9668 52.9102 27.5299 53.1446 27.9727C53.3789 28.4089 53.711 28.7311 54.1406 28.9395C54.5703 29.1478 55.0781 29.252 55.6641 29.252C56.25 29.252 56.7546 29.1478 57.1778 28.9395C57.6074 28.7311 57.9395 28.4089 58.1739 27.9727C58.4082 27.5299 58.5254 26.9668 58.5254 26.2832V16.7812ZM72.9395 29.0566V31H65.3906V29.0566H72.9395ZM66.084 16.7812V31H63.6328V16.7812H66.084ZM71.9531 22.7188V24.6328H65.3906V22.7188H71.9531ZM72.8906 16.7812V18.7344H65.3906V16.7812H72.8906ZM74.9414 16.7812H79.9707C81.0515 16.7812 81.9727 16.944 82.7344 17.2695C83.4961 17.5951 84.0788 18.0768 84.4824 18.7148C84.8926 19.3464 85.0977 20.1276 85.0977 21.0586C85.0977 21.7682 84.9675 22.3932 84.7071 22.9336C84.4466 23.474 84.0788 23.9297 83.6035 24.3008C83.1283 24.6654 82.5619 24.9486 81.9043 25.1504L81.1621 25.5117H76.6406L76.6211 23.5684H80.0098C80.5957 23.5684 81.084 23.4642 81.4746 23.2559C81.8653 23.0475 82.1582 22.7643 82.3535 22.4062C82.5554 22.0417 82.6563 21.6315 82.6563 21.1758C82.6563 20.681 82.5586 20.2513 82.3633 19.8867C82.1745 19.5156 81.8815 19.2324 81.4844 19.0371C81.0873 18.8353 80.5827 18.7344 79.9707 18.7344H77.3926V31H74.9414V16.7812ZM83.0567 31L79.7168 24.6133L82.2852 24.6035L85.6739 30.873V31H83.0567ZM98.877 23.5V24.2812C98.877 25.3555 98.737 26.319 98.4571 27.1719C98.1771 28.0247 97.7767 28.7507 97.2559 29.3496C96.7416 29.9486 96.1231 30.4076 95.4004 30.7266C94.6778 31.0391 93.877 31.1953 92.9981 31.1953C92.1257 31.1953 91.3281 31.0391 90.6055 30.7266C89.8893 30.4076 89.2676 29.9486 88.7403 29.3496C88.2129 28.7507 87.8028 28.0247 87.5098 27.1719C87.2233 26.319 87.0801 25.3555 87.0801 24.2812V23.5C87.0801 22.4258 87.2233 21.4655 87.5098 20.6191C87.7962 19.7663 88.1999 19.0404 88.7207 18.4414C89.2481 17.8359 89.8698 17.377 90.586 17.0645C91.3086 16.7454 92.1061 16.5859 92.9785 16.5859C93.8574 16.5859 94.6582 16.7454 95.3809 17.0645C96.1035 17.377 96.7253 17.8359 97.2461 18.4414C97.7669 19.0404 98.1673 19.7663 98.4473 20.6191C98.7337 21.4655 98.877 22.4258 98.877 23.5ZM96.4258 24.2812V23.4805C96.4258 22.6862 96.3477 21.9863 96.1914 21.3809C96.0417 20.7689 95.8171 20.2578 95.5176 19.8477C95.2246 19.431 94.8633 19.1185 94.4336 18.9102C94.0039 18.6953 93.5189 18.5879 92.9785 18.5879C92.4382 18.5879 91.9564 18.6953 91.5332 18.9102C91.11 19.1185 90.7487 19.431 90.4492 19.8477C90.1563 20.2578 89.9317 20.7689 89.7754 21.3809C89.6192 21.9863 89.541 22.6862 89.541 23.4805V24.2812C89.541 25.0755 89.6192 25.7786 89.7754 26.3906C89.9317 27.0026 90.1595 27.5202 90.459 27.9434C90.765 28.36 91.1296 28.6758 91.5528 28.8906C91.9759 29.099 92.4577 29.2031 92.9981 29.2031C93.5449 29.2031 94.03 29.099 94.4531 28.8906C94.8763 28.6758 95.2344 28.36 95.5274 27.9434C95.8203 27.5202 96.0417 27.0026 96.1914 26.3906C96.3477 25.7786 96.4258 25.0755 96.4258 24.2812ZM106.309 16.7812H111.338C112.419 16.7812 113.34 16.944 114.102 17.2695C114.863 17.5951 115.446 18.0768 115.85 18.7148C116.26 19.3464 116.465 20.1276 116.465 21.0586C116.465 21.7682 116.335 22.3932 116.074 22.9336C115.814 23.474 115.446 23.9297 114.971 24.3008C114.495 24.6654 113.929 24.9486 113.272 25.1504L112.529 25.5117H108.008L107.988 23.5684H111.377C111.963 23.5684 112.451 23.4642 112.842 23.2559C113.232 23.0475 113.525 22.7643 113.721 22.4062C113.923 22.0417 114.023 21.6315 114.023 21.1758C114.023 20.681 113.926 20.2513 113.73 19.8867C113.542 19.5156 113.249 19.2324 112.852 19.0371C112.454 18.8353 111.95 18.7344 111.338 18.7344H108.76V31H106.309V16.7812ZM114.424 31L111.084 24.6133L113.652 24.6035L117.041 30.873V31H114.424ZM128.213 29.0566V31H120.664V29.0566H128.213ZM121.357 16.7812V31H118.906V16.7812H121.357ZM127.227 22.7188V24.6328H120.664V22.7188H127.227ZM128.164 16.7812V18.7344H120.664V16.7812H128.164ZM138.613 26.3711H141.055C140.977 27.3021 140.716 28.1322 140.273 28.8613C139.831 29.584 139.209 30.1536 138.408 30.5703C137.607 30.987 136.634 31.1953 135.488 31.1953C134.609 31.1953 133.818 31.0391 133.115 30.7266C132.412 30.4076 131.81 29.9583 131.309 29.3789C130.807 28.793 130.423 28.0866 130.156 27.2598C129.896 26.4329 129.766 25.5085 129.766 24.4863V23.3047C129.766 22.2826 129.899 21.3581 130.166 20.5312C130.439 19.7044 130.83 18.998 131.338 18.4121C131.846 17.8197 132.454 17.3672 133.164 17.0547C133.88 16.7422 134.684 16.5859 135.576 16.5859C136.709 16.5859 137.666 16.7943 138.447 17.2109C139.229 17.6276 139.834 18.2038 140.264 18.9395C140.7 19.6751 140.967 20.5182 141.064 21.4688H138.623C138.558 20.8568 138.415 20.3327 138.193 19.8965C137.979 19.4603 137.66 19.1283 137.236 18.9004C136.813 18.666 136.26 18.5488 135.576 18.5488C135.016 18.5488 134.528 18.653 134.111 18.8613C133.695 19.0697 133.346 19.3757 133.066 19.7793C132.786 20.1829 132.575 20.681 132.432 21.2734C132.295 21.8594 132.227 22.5299 132.227 23.2852V24.4863C132.227 25.2025 132.288 25.8535 132.412 26.4395C132.542 27.0189 132.738 27.5169 132.998 27.9336C133.265 28.3503 133.604 28.6725 134.014 28.9004C134.424 29.1283 134.915 29.2422 135.488 29.2422C136.185 29.2422 136.748 29.1315 137.178 28.9102C137.614 28.6888 137.943 28.3665 138.164 27.9434C138.392 27.5137 138.542 26.9896 138.613 26.3711ZM152.588 29.0566V31H145.039V29.0566H152.588ZM145.732 16.7812V31H143.281V16.7812H145.732ZM151.602 22.7188V24.6328H145.039V22.7188H151.602ZM152.539 16.7812V18.7344H145.039V16.7812H152.539ZM159.922 24.5742H156.299L156.279 22.7871H159.443C159.977 22.7871 160.43 22.709 160.801 22.5527C161.178 22.39 161.465 22.1589 161.66 21.8594C161.855 21.5534 161.953 21.1855 161.953 20.7559C161.953 20.2806 161.862 19.8932 161.68 19.5938C161.497 19.2943 161.217 19.0762 160.84 18.9395C160.469 18.8027 159.994 18.7344 159.414 18.7344H157.041V31H154.59V16.7812H159.414C160.195 16.7812 160.892 16.8561 161.504 17.0059C162.122 17.1556 162.647 17.39 163.076 17.709C163.512 18.0215 163.841 18.4186 164.063 18.9004C164.29 19.3822 164.404 19.9551 164.404 20.6191C164.404 21.2051 164.264 21.7422 163.984 22.2305C163.704 22.7122 163.291 23.1061 162.744 23.4121C162.197 23.7181 161.517 23.9004 160.703 23.959L159.922 24.5742ZM159.814 31H155.527L156.631 29.0566H159.814C160.368 29.0566 160.83 28.9655 161.201 28.7832C161.572 28.5944 161.849 28.3372 162.031 28.0117C162.22 27.6797 162.314 27.2923 162.314 26.8496C162.314 26.3874 162.233 25.987 162.07 25.6484C161.908 25.3034 161.65 25.0397 161.299 24.8574C160.947 24.6686 160.488 24.5742 159.922 24.5742H157.168L157.188 22.7871H160.772L161.328 23.4609C162.109 23.487 162.751 23.6595 163.252 23.9785C163.76 24.2975 164.137 24.7109 164.385 25.2188C164.632 25.7266 164.756 26.2734 164.756 26.8594C164.756 27.7643 164.557 28.5228 164.16 29.1348C163.77 29.7467 163.206 30.2122 162.471 30.5312C161.735 30.8438 160.85 31 159.814 31ZM176.533 29.0566V31H168.984V29.0566H176.533ZM169.678 16.7812V31H167.227V16.7812H169.678ZM175.547 22.7188V24.6328H168.984V22.7188H175.547ZM176.484 16.7812V18.7344H168.984V16.7812H176.484ZM178.535 16.7812H183.564C184.645 16.7812 185.566 16.944 186.328 17.2695C187.09 17.5951 187.673 18.0768 188.076 18.7148C188.486 19.3464 188.691 20.1276 188.691 21.0586C188.691 21.7682 188.561 22.3932 188.301 22.9336C188.04 23.474 187.673 23.9297 187.197 24.3008C186.722 24.6654 186.156 24.9486 185.498 25.1504L184.756 25.5117H180.234L180.215 23.5684H183.604C184.189 23.5684 184.678 23.4642 185.068 23.2559C185.459 23.0475 185.752 22.7643 185.947 22.4062C186.149 22.0417 186.25 21.6315 186.25 21.1758C186.25 20.681 186.152 20.2513 185.957 19.8867C185.768 19.5156 185.475 19.2324 185.078 19.0371C184.681 18.8353 184.176 18.7344 183.564 18.7344H180.986V31H178.535V16.7812ZM186.65 31L183.311 24.6133L185.879 24.6035L189.268 30.873V31H186.65Z" fill="black"/>
</g>
<defs>
<filter id="filter0_d_2_1837" x="0" y="0" width="229" height="52" filterUnits="userSpaceOnUse" color-interpolation-filters="sRGB">
<feFlood flood-opacity="0" result="BackgroundImageFix"/>
<feColorMatrix in="SourceAlpha" type="matrix" values="0 0 0 0 0 0 0 0 0 0 0 0 0 0 0 0 0 0 127 0" result="hardAlpha"/>
<feOffset dx="4" dy="4"/>
<feComposite in2="hardAlpha" operator="out"/>
<feColorMatrix type="matrix" values="0 0 0 0 0.117647 0 0 0 0 0.117647 0 0 0 0 0.117647 0 0 0 1 0"/>
<feBlend mode="normal" in2="BackgroundImageFix" result="effect1_dropShadow_2_1837"/>
<feBlend mode="normal" in="SourceGraphic" in2="effect1_dropShadow_2_1837" result="shape"/>
</filter>
</defs>
</svg>
