<svg width="429" height="23" viewBox="0 0 429 23" fill="none" xmlns="http://www.w3.org/2000/svg">
<path d="M0.734375 0.9375H6.76953C8.06641 0.9375 9.17188 1.13281 10.0859 1.52344C11 1.91406 11.6992 2.49219 12.1836 3.25781C12.6758 4.01562 12.9219 4.95312 12.9219 6.07031C12.9219 6.92188 12.7656 7.67188 12.4531 8.32031C12.1406 8.96875 11.6992 9.51562 11.1289 9.96094C10.5586 10.3984 9.87891 10.7383 9.08984 10.9805L8.19922 11.4141H2.77344L2.75 9.08203H6.81641C7.51953 9.08203 8.10547 8.95703 8.57422 8.70703C9.04297 8.45703 9.39453 8.11719 9.62891 7.6875C9.87109 7.25 9.99219 6.75781 9.99219 6.21094C9.99219 5.61719 9.875 5.10156 9.64062 4.66406C9.41406 4.21875 9.0625 3.87891 8.58594 3.64453C8.10938 3.40234 7.50391 3.28125 6.76953 3.28125H3.67578V18H0.734375V0.9375ZM10.4727 18L6.46484 10.3359L9.54688 10.3242L13.6133 17.8477V18H10.4727ZM21.1602 18.2344C20.2227 18.2344 19.375 18.082 18.6172 17.7773C17.8672 17.4648 17.2266 17.0312 16.6953 16.4766C16.1719 15.9219 15.7695 15.2695 15.4883 14.5195C15.207 13.7695 15.0664 12.9609 15.0664 12.0938V11.625C15.0664 10.6328 15.2109 9.73438 15.5 8.92969C15.7891 8.125 16.1914 7.4375 16.707 6.86719C17.2227 6.28906 17.832 5.84766 18.5352 5.54297C19.2383 5.23828 20 5.08594 20.8203 5.08594C21.7266 5.08594 22.5195 5.23828 23.1992 5.54297C23.8789 5.84766 24.4414 6.27734 24.8867 6.83203C25.3398 7.37891 25.6758 8.03125 25.8945 8.78906C26.1211 9.54688 26.2344 10.3828 26.2344 11.2969V12.5039H16.4375V10.4766H23.4453V10.2539C23.4297 9.74609 23.3281 9.26953 23.1406 8.82422C22.9609 8.37891 22.6836 8.01953 22.3086 7.74609C21.9336 7.47266 21.4336 7.33594 20.8086 7.33594C20.3398 7.33594 19.9219 7.4375 19.5547 7.64062C19.1953 7.83594 18.8945 8.12109 18.6523 8.49609C18.4102 8.87109 18.2227 9.32422 18.0898 9.85547C17.9648 10.3789 17.9023 10.9688 17.9023 11.625V12.0938C17.9023 12.6484 17.9766 13.1641 18.125 13.6406C18.2812 14.1094 18.5078 14.5195 18.8047 14.8711C19.1016 15.2227 19.4609 15.5 19.8828 15.7031C20.3047 15.8984 20.7852 15.9961 21.3242 15.9961C22.0039 15.9961 22.6094 15.8594 23.1406 15.5859C23.6719 15.3125 24.1328 14.9258 24.5234 14.4258L26.0117 15.8672C25.7383 16.2656 25.3828 16.6484 24.9453 17.0156C24.5078 17.375 23.9727 17.668 23.3398 17.8945C22.7148 18.1211 21.9883 18.2344 21.1602 18.2344ZM33.6172 15.9844C34.0781 15.9844 34.4922 15.8945 34.8594 15.7148C35.2344 15.5273 35.5352 15.2695 35.7617 14.9414C35.9961 14.6133 36.125 14.2344 36.1484 13.8047H38.8086C38.793 14.625 38.5508 15.3711 38.082 16.043C37.6133 16.7148 36.9922 17.25 36.2188 17.6484C35.4453 18.0391 34.5898 18.2344 33.6523 18.2344C32.6836 18.2344 31.8398 18.0703 31.1211 17.7422C30.4023 17.4062 29.8047 16.9453 29.3281 16.3594C28.8516 15.7734 28.4922 15.0977 28.25 14.332C28.0156 13.5664 27.8984 12.7461 27.8984 11.8711V11.4609C27.8984 10.5859 28.0156 9.76562 28.25 9C28.4922 8.22656 28.8516 7.54688 29.3281 6.96094C29.8047 6.375 30.4023 5.91797 31.1211 5.58984C31.8398 5.25391 32.6797 5.08594 33.6406 5.08594C34.6562 5.08594 35.5469 5.28906 36.3125 5.69531C37.0781 6.09375 37.6797 6.65234 38.1172 7.37109C38.5625 8.08203 38.793 8.91016 38.8086 9.85547H36.1484C36.125 9.38672 36.0078 8.96484 35.7969 8.58984C35.5938 8.20703 35.3047 7.90234 34.9297 7.67578C34.5625 7.44922 34.1211 7.33594 33.6055 7.33594C33.0352 7.33594 32.5625 7.45312 32.1875 7.6875C31.8125 7.91406 31.5195 8.22656 31.3086 8.625C31.0977 9.01562 30.9453 9.45703 30.8516 9.94922C30.7656 10.4336 30.7227 10.9375 30.7227 11.4609V11.8711C30.7227 12.3945 30.7656 12.9023 30.8516 13.3945C30.9375 13.8867 31.0859 14.3281 31.2969 14.7188C31.5156 15.1016 31.8125 15.4102 32.1875 15.6445C32.5625 15.8711 33.0391 15.9844 33.6172 15.9844ZM46.5664 18.2344C45.6289 18.2344 44.7812 18.082 44.0234 17.7773C43.2734 17.4648 42.6328 17.0312 42.1016 16.4766C41.5781 15.9219 41.1758 15.2695 40.8945 14.5195C40.6133 13.7695 40.4727 12.9609 40.4727 12.0938V11.625C40.4727 10.6328 40.6172 9.73438 40.9062 8.92969C41.1953 8.125 41.5977 7.4375 42.1133 6.86719C42.6289 6.28906 43.2383 5.84766 43.9414 5.54297C44.6445 5.23828 45.4062 5.08594 46.2266 5.08594C47.1328 5.08594 47.9258 5.23828 48.6055 5.54297C49.2852 5.84766 49.8477 6.27734 50.293 6.83203C50.7461 7.37891 51.082 8.03125 51.3008 8.78906C51.5273 9.54688 51.6406 10.3828 51.6406 11.2969V12.5039H41.8438V10.4766H48.8516V10.2539C48.8359 9.74609 48.7344 9.26953 48.5469 8.82422C48.3672 8.37891 48.0898 8.01953 47.7148 7.74609C47.3398 7.47266 46.8398 7.33594 46.2148 7.33594C45.7461 7.33594 45.3281 7.4375 44.9609 7.64062C44.6016 7.83594 44.3008 8.12109 44.0586 8.49609C43.8164 8.87109 43.6289 9.32422 43.4961 9.85547C43.3711 10.3789 43.3086 10.9688 43.3086 11.625V12.0938C43.3086 12.6484 43.3828 13.1641 43.5312 13.6406C43.6875 14.1094 43.9141 14.5195 44.2109 14.8711C44.5078 15.2227 44.8672 15.5 45.2891 15.7031C45.7109 15.8984 46.1914 15.9961 46.7305 15.9961C47.4102 15.9961 48.0156 15.8594 48.5469 15.5859C49.0781 15.3125 49.5391 14.9258 49.9297 14.4258L51.418 15.8672C51.1445 16.2656 50.7891 16.6484 50.3516 17.0156C49.9141 17.375 49.3789 17.668 48.7461 17.8945C48.1211 18.1211 47.3945 18.2344 46.5664 18.2344ZM53.8555 0H56.6797V15.293L56.4102 18H53.8555V0ZM64.9531 11.543V11.7891C64.9531 12.7266 64.8477 13.5898 64.6367 14.3789C64.4336 15.1602 64.1211 15.8398 63.6992 16.418C63.2852 16.9961 62.7695 17.4453 62.1523 17.7656C61.543 18.0781 60.8359 18.2344 60.0312 18.2344C59.2422 18.2344 58.5547 18.0859 57.9688 17.7891C57.3828 17.4922 56.8906 17.0703 56.4922 16.5234C56.1016 15.9766 55.7852 15.3242 55.543 14.5664C55.3008 13.8086 55.1289 12.9727 55.0273 12.0586V11.2734C55.1289 10.3516 55.3008 9.51562 55.543 8.76562C55.7852 8.00781 56.1016 7.35547 56.4922 6.80859C56.8906 6.25391 57.3789 5.82812 57.957 5.53125C58.543 5.23438 59.2266 5.08594 60.0078 5.08594C60.8203 5.08594 61.5352 5.24219 62.1523 5.55469C62.7773 5.86719 63.2969 6.3125 63.7109 6.89062C64.125 7.46094 64.4336 8.14062 64.6367 8.92969C64.8477 9.71875 64.9531 10.5898 64.9531 11.543ZM62.1289 11.7891V11.543C62.1289 10.9727 62.082 10.4375 61.9883 9.9375C61.8945 9.42969 61.7383 8.98438 61.5195 8.60156C61.3086 8.21875 61.0195 7.91797 60.6523 7.69922C60.293 7.47266 59.8438 7.35938 59.3047 7.35938C58.8047 7.35938 58.375 7.44531 58.0156 7.61719C57.6562 7.78906 57.3555 8.02344 57.1133 8.32031C56.8711 8.61719 56.6797 8.96094 56.5391 9.35156C56.4062 9.74219 56.3164 10.1641 56.2695 10.6172V12.7383C56.3398 13.3242 56.4883 13.8633 56.7148 14.3555C56.9492 14.8398 57.2773 15.2305 57.6992 15.5273C58.1211 15.8164 58.6641 15.9609 59.3281 15.9609C59.8516 15.9609 60.293 15.8555 60.6523 15.6445C61.0117 15.4336 61.2969 15.1406 61.5078 14.7656C61.7266 14.3828 61.8828 13.9375 61.9766 13.4297C62.0781 12.9219 62.1289 12.375 62.1289 11.7891ZM74.4922 15.457V9.41016C74.4922 8.95703 74.4102 8.56641 74.2461 8.23828C74.082 7.91016 73.832 7.65625 73.4961 7.47656C73.168 7.29688 72.7539 7.20703 72.2539 7.20703C71.793 7.20703 71.3945 7.28516 71.0586 7.44141C70.7227 7.59766 70.4609 7.80859 70.2734 8.07422C70.0859 8.33984 69.9922 8.64062 69.9922 8.97656H67.1797C67.1797 8.47656 67.3008 7.99219 67.543 7.52344C67.7852 7.05469 68.1367 6.63672 68.5977 6.26953C69.0586 5.90234 69.6094 5.61328 70.25 5.40234C70.8906 5.19141 71.6094 5.08594 72.4062 5.08594C73.3594 5.08594 74.2031 5.24609 74.9375 5.56641C75.6797 5.88672 76.2617 6.37109 76.6836 7.01953C77.1133 7.66016 77.3281 8.46484 77.3281 9.43359V15.0703C77.3281 15.6484 77.3672 16.168 77.4453 16.6289C77.5312 17.082 77.6523 17.4766 77.8086 17.8125V18H74.9141C74.7812 17.6953 74.6758 17.3086 74.5977 16.8398C74.5273 16.3633 74.4922 15.9023 74.4922 15.457ZM74.9023 10.2891L74.9258 12.0352H72.8984C72.375 12.0352 71.9141 12.0859 71.5156 12.1875C71.1172 12.2812 70.7852 12.4219 70.5195 12.6094C70.2539 12.7969 70.0547 13.0234 69.9219 13.2891C69.7891 13.5547 69.7227 13.8555 69.7227 14.1914C69.7227 14.5273 69.8008 14.8359 69.957 15.1172C70.1133 15.3906 70.3398 15.6055 70.6367 15.7617C70.9414 15.918 71.3086 15.9961 71.7383 15.9961C72.3164 15.9961 72.8203 15.8789 73.25 15.6445C73.6875 15.4023 74.0312 15.1094 74.2812 14.7656C74.5312 14.4141 74.6641 14.082 74.6797 13.7695L75.5938 15.0234C75.5 15.3438 75.3398 15.6875 75.1133 16.0547C74.8867 16.4219 74.5898 16.7734 74.2227 17.1094C73.8633 17.4375 73.4297 17.707 72.9219 17.918C72.4219 18.1289 71.8438 18.2344 71.1875 18.2344C70.3594 18.2344 69.6211 18.0703 68.9727 17.7422C68.3242 17.4062 67.8164 16.957 67.4492 16.3945C67.082 15.8242 66.8984 15.1797 66.8984 14.4609C66.8984 13.7891 67.0234 13.1953 67.2734 12.6797C67.5312 12.1562 67.9062 11.7188 68.3984 11.3672C68.8984 11.0156 69.5078 10.75 70.2266 10.5703C70.9453 10.3828 71.7656 10.2891 72.6875 10.2891H74.9023ZM89.082 7.89844V18H86.2578V5.32031H88.918L89.082 7.89844ZM88.625 11.1914L87.6641 11.1797C87.6641 10.3047 87.7734 9.49609 87.9922 8.75391C88.2109 8.01172 88.5312 7.36719 88.9531 6.82031C89.375 6.26562 89.8984 5.83984 90.5234 5.54297C91.1562 5.23828 91.8867 5.08594 92.7148 5.08594C93.293 5.08594 93.8203 5.17188 94.2969 5.34375C94.7812 5.50781 95.1992 5.76953 95.5508 6.12891C95.9102 6.48828 96.1836 6.94922 96.3711 7.51172C96.5664 8.07422 96.6641 8.75391 96.6641 9.55078V18H93.8398V9.79688C93.8398 9.17969 93.7461 8.69531 93.5586 8.34375C93.3789 7.99219 93.1172 7.74219 92.7734 7.59375C92.4375 7.4375 92.0352 7.35938 91.5664 7.35938C91.0352 7.35938 90.582 7.46094 90.207 7.66406C89.8398 7.86719 89.5391 8.14453 89.3047 8.49609C89.0703 8.84766 88.8984 9.25391 88.7891 9.71484C88.6797 10.1758 88.625 10.668 88.625 11.1914ZM96.4883 10.4414L95.1641 10.7344C95.1641 9.96875 95.2695 9.24609 95.4805 8.56641C95.6992 7.87891 96.0156 7.27734 96.4297 6.76172C96.8516 6.23828 97.3711 5.82812 97.9883 5.53125C98.6055 5.23438 99.3125 5.08594 100.109 5.08594C100.758 5.08594 101.336 5.17578 101.844 5.35547C102.359 5.52734 102.797 5.80078 103.156 6.17578C103.516 6.55078 103.789 7.03906 103.977 7.64062C104.164 8.23438 104.258 8.95312 104.258 9.79688V18H101.422V9.78516C101.422 9.14453 101.328 8.64844 101.141 8.29688C100.961 7.94531 100.703 7.70312 100.367 7.57031C100.031 7.42969 99.6289 7.35938 99.1602 7.35938C98.7227 7.35938 98.3359 7.44141 98 7.60547C97.6719 7.76172 97.3945 7.98438 97.168 8.27344C96.9414 8.55469 96.7695 8.87891 96.6523 9.24609C96.543 9.61328 96.4883 10.0117 96.4883 10.4414ZM114.312 15.457V9.41016C114.312 8.95703 114.23 8.56641 114.066 8.23828C113.902 7.91016 113.652 7.65625 113.316 7.47656C112.988 7.29688 112.574 7.20703 112.074 7.20703C111.613 7.20703 111.215 7.28516 110.879 7.44141C110.543 7.59766 110.281 7.80859 110.094 8.07422C109.906 8.33984 109.812 8.64062 109.812 8.97656H107C107 8.47656 107.121 7.99219 107.363 7.52344C107.605 7.05469 107.957 6.63672 108.418 6.26953C108.879 5.90234 109.43 5.61328 110.07 5.40234C110.711 5.19141 111.43 5.08594 112.227 5.08594C113.18 5.08594 114.023 5.24609 114.758 5.56641C115.5 5.88672 116.082 6.37109 116.504 7.01953C116.934 7.66016 117.148 8.46484 117.148 9.43359V15.0703C117.148 15.6484 117.188 16.168 117.266 16.6289C117.352 17.082 117.473 17.4766 117.629 17.8125V18H114.734C114.602 17.6953 114.496 17.3086 114.418 16.8398C114.348 16.3633 114.312 15.9023 114.312 15.457ZM114.723 10.2891L114.746 12.0352H112.719C112.195 12.0352 111.734 12.0859 111.336 12.1875C110.938 12.2812 110.605 12.4219 110.34 12.6094C110.074 12.7969 109.875 13.0234 109.742 13.2891C109.609 13.5547 109.543 13.8555 109.543 14.1914C109.543 14.5273 109.621 14.8359 109.777 15.1172C109.934 15.3906 110.16 15.6055 110.457 15.7617C110.762 15.918 111.129 15.9961 111.559 15.9961C112.137 15.9961 112.641 15.8789 113.07 15.6445C113.508 15.4023 113.852 15.1094 114.102 14.7656C114.352 14.4141 114.484 14.082 114.5 13.7695L115.414 15.0234C115.32 15.3438 115.16 15.6875 114.934 16.0547C114.707 16.4219 114.41 16.7734 114.043 17.1094C113.684 17.4375 113.25 17.707 112.742 17.918C112.242 18.1289 111.664 18.2344 111.008 18.2344C110.18 18.2344 109.441 18.0703 108.793 17.7422C108.145 17.4062 107.637 16.957 107.27 16.3945C106.902 15.8242 106.719 15.1797 106.719 14.4609C106.719 13.7891 106.844 13.1953 107.094 12.6797C107.352 12.1562 107.727 11.7188 108.219 11.3672C108.719 11.0156 109.328 10.75 110.047 10.5703C110.766 10.3828 111.586 10.2891 112.508 10.2891H114.723ZM125.914 5.32031V7.38281H118.766V5.32031H125.914ZM120.828 2.21484H123.652V14.4961C123.652 14.8867 123.707 15.1875 123.816 15.3984C123.934 15.6016 124.094 15.7383 124.297 15.8086C124.5 15.8789 124.738 15.9141 125.012 15.9141C125.207 15.9141 125.395 15.9023 125.574 15.8789C125.754 15.8555 125.898 15.832 126.008 15.8086L126.02 17.9648C125.785 18.0352 125.512 18.0977 125.199 18.1523C124.895 18.207 124.543 18.2344 124.145 18.2344C123.496 18.2344 122.922 18.1211 122.422 17.8945C121.922 17.6602 121.531 17.2812 121.25 16.7578C120.969 16.2344 120.828 15.5391 120.828 14.6719V2.21484ZM133.684 18.2344C132.746 18.2344 131.898 18.082 131.141 17.7773C130.391 17.4648 129.75 17.0312 129.219 16.4766C128.695 15.9219 128.293 15.2695 128.012 14.5195C127.73 13.7695 127.59 12.9609 127.59 12.0938V11.625C127.59 10.6328 127.734 9.73438 128.023 8.92969C128.312 8.125 128.715 7.4375 129.23 6.86719C129.746 6.28906 130.355 5.84766 131.059 5.54297C131.762 5.23828 132.523 5.08594 133.344 5.08594C134.25 5.08594 135.043 5.23828 135.723 5.54297C136.402 5.84766 136.965 6.27734 137.41 6.83203C137.863 7.37891 138.199 8.03125 138.418 8.78906C138.645 9.54688 138.758 10.3828 138.758 11.2969V12.5039H128.961V10.4766H135.969V10.2539C135.953 9.74609 135.852 9.26953 135.664 8.82422C135.484 8.37891 135.207 8.01953 134.832 7.74609C134.457 7.47266 133.957 7.33594 133.332 7.33594C132.863 7.33594 132.445 7.4375 132.078 7.64062C131.719 7.83594 131.418 8.12109 131.176 8.49609C130.934 8.87109 130.746 9.32422 130.613 9.85547C130.488 10.3789 130.426 10.9688 130.426 11.625V12.0938C130.426 12.6484 130.5 13.1641 130.648 13.6406C130.805 14.1094 131.031 14.5195 131.328 14.8711C131.625 15.2227 131.984 15.5 132.406 15.7031C132.828 15.8984 133.309 15.9961 133.848 15.9961C134.527 15.9961 135.133 15.8594 135.664 15.5859C136.195 15.3125 136.656 14.9258 137.047 14.4258L138.535 15.8672C138.262 16.2656 137.906 16.6484 137.469 17.0156C137.031 17.375 136.496 17.668 135.863 17.8945C135.238 18.1211 134.512 18.2344 133.684 18.2344ZM143.797 7.73438V18H140.973V5.32031H143.668L143.797 7.73438ZM147.676 5.23828L147.652 7.86328C147.48 7.83203 147.293 7.80859 147.09 7.79297C146.895 7.77734 146.699 7.76953 146.504 7.76953C146.02 7.76953 145.594 7.83984 145.227 7.98047C144.859 8.11328 144.551 8.30859 144.301 8.56641C144.059 8.81641 143.871 9.12109 143.738 9.48047C143.605 9.83984 143.527 10.2422 143.504 10.6875L142.859 10.7344C142.859 9.9375 142.938 9.19922 143.094 8.51953C143.25 7.83984 143.484 7.24219 143.797 6.72656C144.117 6.21094 144.516 5.80859 144.992 5.51953C145.477 5.23047 146.035 5.08594 146.668 5.08594C146.84 5.08594 147.023 5.10156 147.219 5.13281C147.422 5.16406 147.574 5.19922 147.676 5.23828ZM152.469 5.32031V18H149.633V5.32031H152.469ZM149.445 1.99219C149.445 1.5625 149.586 1.20703 149.867 0.925781C150.156 0.636719 150.555 0.492188 151.062 0.492188C151.562 0.492188 151.957 0.636719 152.246 0.925781C152.535 1.20703 152.68 1.5625 152.68 1.99219C152.68 2.41406 152.535 2.76562 152.246 3.04688C151.957 3.32812 151.562 3.46875 151.062 3.46875C150.555 3.46875 150.156 3.32812 149.867 3.04688C149.586 2.76562 149.445 2.41406 149.445 1.99219ZM162.711 15.457V9.41016C162.711 8.95703 162.629 8.56641 162.465 8.23828C162.301 7.91016 162.051 7.65625 161.715 7.47656C161.387 7.29688 160.973 7.20703 160.473 7.20703C160.012 7.20703 159.613 7.28516 159.277 7.44141C158.941 7.59766 158.68 7.80859 158.492 8.07422C158.305 8.33984 158.211 8.64062 158.211 8.97656H155.398C155.398 8.47656 155.52 7.99219 155.762 7.52344C156.004 7.05469 156.355 6.63672 156.816 6.26953C157.277 5.90234 157.828 5.61328 158.469 5.40234C159.109 5.19141 159.828 5.08594 160.625 5.08594C161.578 5.08594 162.422 5.24609 163.156 5.56641C163.898 5.88672 164.48 6.37109 164.902 7.01953C165.332 7.66016 165.547 8.46484 165.547 9.43359V15.0703C165.547 15.6484 165.586 16.168 165.664 16.6289C165.75 17.082 165.871 17.4766 166.027 17.8125V18H163.133C163 17.6953 162.895 17.3086 162.816 16.8398C162.746 16.3633 162.711 15.9023 162.711 15.457ZM163.121 10.2891L163.145 12.0352H161.117C160.594 12.0352 160.133 12.0859 159.734 12.1875C159.336 12.2812 159.004 12.4219 158.738 12.6094C158.473 12.7969 158.273 13.0234 158.141 13.2891C158.008 13.5547 157.941 13.8555 157.941 14.1914C157.941 14.5273 158.02 14.8359 158.176 15.1172C158.332 15.3906 158.559 15.6055 158.855 15.7617C159.16 15.918 159.527 15.9961 159.957 15.9961C160.535 15.9961 161.039 15.8789 161.469 15.6445C161.906 15.4023 162.25 15.1094 162.5 14.7656C162.75 14.4141 162.883 14.082 162.898 13.7695L163.812 15.0234C163.719 15.3438 163.559 15.6875 163.332 16.0547C163.105 16.4219 162.809 16.7734 162.441 17.1094C162.082 17.4375 161.648 17.707 161.141 17.918C160.641 18.1289 160.062 18.2344 159.406 18.2344C158.578 18.2344 157.84 18.0703 157.191 17.7422C156.543 17.4062 156.035 16.957 155.668 16.3945C155.301 15.8242 155.117 15.1797 155.117 14.4609C155.117 13.7891 155.242 13.1953 155.492 12.6797C155.75 12.1562 156.125 11.7188 156.617 11.3672C157.117 11.0156 157.727 10.75 158.445 10.5703C159.164 10.3828 159.984 10.2891 160.906 10.2891H163.121ZM171.523 5.32031V18H168.688V5.32031H171.523ZM168.5 1.99219C168.5 1.5625 168.641 1.20703 168.922 0.925781C169.211 0.636719 169.609 0.492188 170.117 0.492188C170.617 0.492188 171.012 0.636719 171.301 0.925781C171.59 1.20703 171.734 1.5625 171.734 1.99219C171.734 2.41406 171.59 2.76562 171.301 3.04688C171.012 3.32812 170.617 3.46875 170.117 3.46875C169.609 3.46875 169.211 3.32812 168.922 3.04688C168.641 2.76562 168.5 2.41406 168.5 1.99219ZM181.73 14.5664C181.73 14.2852 181.66 14.0312 181.52 13.8047C181.379 13.5703 181.109 13.3594 180.711 13.1719C180.32 12.9844 179.742 12.8125 178.977 12.6562C178.305 12.5078 177.688 12.332 177.125 12.1289C176.57 11.918 176.094 11.6641 175.695 11.3672C175.297 11.0703 174.988 10.7188 174.77 10.3125C174.551 9.90625 174.441 9.4375 174.441 8.90625C174.441 8.39062 174.555 7.90234 174.781 7.44141C175.008 6.98047 175.332 6.57422 175.754 6.22266C176.176 5.87109 176.688 5.59375 177.289 5.39062C177.898 5.1875 178.578 5.08594 179.328 5.08594C180.391 5.08594 181.301 5.26562 182.059 5.625C182.824 5.97656 183.41 6.45703 183.816 7.06641C184.223 7.66797 184.426 8.34766 184.426 9.10547H181.602C181.602 8.76953 181.516 8.45703 181.344 8.16797C181.18 7.87109 180.93 7.63281 180.594 7.45312C180.258 7.26562 179.836 7.17188 179.328 7.17188C178.844 7.17188 178.441 7.25 178.121 7.40625C177.809 7.55469 177.574 7.75 177.418 7.99219C177.27 8.23438 177.195 8.5 177.195 8.78906C177.195 9 177.234 9.19141 177.312 9.36328C177.398 9.52734 177.539 9.67969 177.734 9.82031C177.93 9.95312 178.195 10.0781 178.531 10.1953C178.875 10.3125 179.305 10.4258 179.82 10.5352C180.789 10.7383 181.621 11 182.316 11.3203C183.02 11.6328 183.559 12.0391 183.934 12.5391C184.309 13.0312 184.496 13.6562 184.496 14.4141C184.496 14.9766 184.375 15.4922 184.133 15.9609C183.898 16.4219 183.555 16.8242 183.102 17.168C182.648 17.5039 182.105 17.7656 181.473 17.9531C180.848 18.1406 180.145 18.2344 179.363 18.2344C178.215 18.2344 177.242 18.0312 176.445 17.625C175.648 17.2109 175.043 16.6836 174.629 16.043C174.223 15.3945 174.02 14.7227 174.02 14.0273H176.75C176.781 14.5508 176.926 14.9688 177.184 15.2812C177.449 15.5859 177.777 15.8086 178.168 15.9492C178.566 16.082 178.977 16.1484 179.398 16.1484C179.906 16.1484 180.332 16.082 180.676 15.9492C181.02 15.8086 181.281 15.6211 181.461 15.3867C181.641 15.1445 181.73 14.8711 181.73 14.5664ZM201.066 5.32031H203.633V17.6484C203.633 18.7891 203.391 19.7578 202.906 20.5547C202.422 21.3516 201.746 21.957 200.879 22.3711C200.012 22.793 199.008 23.0039 197.867 23.0039C197.383 23.0039 196.844 22.9336 196.25 22.793C195.664 22.6523 195.094 22.4258 194.539 22.1133C193.992 21.8086 193.535 21.4062 193.168 20.9062L194.492 19.2422C194.945 19.7812 195.445 20.1758 195.992 20.4258C196.539 20.6758 197.113 20.8008 197.715 20.8008C198.363 20.8008 198.914 20.6797 199.367 20.4375C199.828 20.2031 200.184 19.8555 200.434 19.3945C200.684 18.9336 200.809 18.3711 200.809 17.707V8.19141L201.066 5.32031ZM192.453 11.8008V11.5547C192.453 10.5938 192.57 9.71875 192.805 8.92969C193.039 8.13281 193.375 7.44922 193.812 6.87891C194.25 6.30078 194.781 5.85938 195.406 5.55469C196.031 5.24219 196.738 5.08594 197.527 5.08594C198.348 5.08594 199.047 5.23438 199.625 5.53125C200.211 5.82812 200.699 6.25391 201.09 6.80859C201.48 7.35547 201.785 8.01172 202.004 8.77734C202.23 9.53516 202.398 10.3789 202.508 11.3086V12.0938C202.406 13 202.234 13.8281 201.992 14.5781C201.75 15.3281 201.43 15.9766 201.031 16.5234C200.633 17.0703 200.141 17.4922 199.555 17.7891C198.977 18.0859 198.293 18.2344 197.504 18.2344C196.73 18.2344 196.031 18.0742 195.406 17.7539C194.789 17.4336 194.258 16.9844 193.812 16.4062C193.375 15.8281 193.039 15.1484 192.805 14.3672C192.57 13.5781 192.453 12.7227 192.453 11.8008ZM195.277 11.5547V11.8008C195.277 12.3789 195.332 12.918 195.441 13.418C195.559 13.918 195.734 14.3594 195.969 14.7422C196.211 15.1172 196.516 15.4141 196.883 15.6328C197.258 15.8438 197.699 15.9492 198.207 15.9492C198.871 15.9492 199.414 15.8086 199.836 15.5273C200.266 15.2461 200.594 14.8672 200.82 14.3906C201.055 13.9062 201.219 13.3672 201.312 12.7734V10.6523C201.266 10.1914 201.168 9.76172 201.02 9.36328C200.879 8.96484 200.688 8.61719 200.445 8.32031C200.203 8.01562 199.898 7.78125 199.531 7.61719C199.164 7.44531 198.73 7.35938 198.23 7.35938C197.723 7.35938 197.281 7.46875 196.906 7.6875C196.531 7.90625 196.223 8.20703 195.98 8.58984C195.746 8.97266 195.57 9.41797 195.453 9.92578C195.336 10.4336 195.277 10.9766 195.277 11.5547ZM209.398 7.73438V18H206.574V5.32031H209.27L209.398 7.73438ZM213.277 5.23828L213.254 7.86328C213.082 7.83203 212.895 7.80859 212.691 7.79297C212.496 7.77734 212.301 7.76953 212.105 7.76953C211.621 7.76953 211.195 7.83984 210.828 7.98047C210.461 8.11328 210.152 8.30859 209.902 8.56641C209.66 8.81641 209.473 9.12109 209.34 9.48047C209.207 9.83984 209.129 10.2422 209.105 10.6875L208.461 10.7344C208.461 9.9375 208.539 9.19922 208.695 8.51953C208.852 7.83984 209.086 7.24219 209.398 6.72656C209.719 6.21094 210.117 5.80859 210.594 5.51953C211.078 5.23047 211.637 5.08594 212.27 5.08594C212.441 5.08594 212.625 5.10156 212.82 5.13281C213.023 5.16406 213.176 5.19922 213.277 5.23828ZM221.773 15.457V9.41016C221.773 8.95703 221.691 8.56641 221.527 8.23828C221.363 7.91016 221.113 7.65625 220.777 7.47656C220.449 7.29688 220.035 7.20703 219.535 7.20703C219.074 7.20703 218.676 7.28516 218.34 7.44141C218.004 7.59766 217.742 7.80859 217.555 8.07422C217.367 8.33984 217.273 8.64062 217.273 8.97656H214.461C214.461 8.47656 214.582 7.99219 214.824 7.52344C215.066 7.05469 215.418 6.63672 215.879 6.26953C216.34 5.90234 216.891 5.61328 217.531 5.40234C218.172 5.19141 218.891 5.08594 219.688 5.08594C220.641 5.08594 221.484 5.24609 222.219 5.56641C222.961 5.88672 223.543 6.37109 223.965 7.01953C224.395 7.66016 224.609 8.46484 224.609 9.43359V15.0703C224.609 15.6484 224.648 16.168 224.727 16.6289C224.812 17.082 224.934 17.4766 225.09 17.8125V18H222.195C222.062 17.6953 221.957 17.3086 221.879 16.8398C221.809 16.3633 221.773 15.9023 221.773 15.457ZM222.184 10.2891L222.207 12.0352H220.18C219.656 12.0352 219.195 12.0859 218.797 12.1875C218.398 12.2812 218.066 12.4219 217.801 12.6094C217.535 12.7969 217.336 13.0234 217.203 13.2891C217.07 13.5547 217.004 13.8555 217.004 14.1914C217.004 14.5273 217.082 14.8359 217.238 15.1172C217.395 15.3906 217.621 15.6055 217.918 15.7617C218.223 15.918 218.59 15.9961 219.02 15.9961C219.598 15.9961 220.102 15.8789 220.531 15.6445C220.969 15.4023 221.312 15.1094 221.562 14.7656C221.812 14.4141 221.945 14.082 221.961 13.7695L222.875 15.0234C222.781 15.3438 222.621 15.6875 222.395 16.0547C222.168 16.4219 221.871 16.7734 221.504 17.1094C221.145 17.4375 220.711 17.707 220.203 17.918C219.703 18.1289 219.125 18.2344 218.469 18.2344C217.641 18.2344 216.902 18.0703 216.254 17.7422C215.605 17.4062 215.098 16.957 214.73 16.3945C214.363 15.8242 214.18 15.1797 214.18 14.4609C214.18 13.7891 214.305 13.1953 214.555 12.6797C214.812 12.1562 215.188 11.7188 215.68 11.3672C216.18 11.0156 216.789 10.75 217.508 10.5703C218.227 10.3828 219.047 10.2891 219.969 10.2891H222.184ZM233.375 5.32031V7.38281H226.227V5.32031H233.375ZM228.289 2.21484H231.113V14.4961C231.113 14.8867 231.168 15.1875 231.277 15.3984C231.395 15.6016 231.555 15.7383 231.758 15.8086C231.961 15.8789 232.199 15.9141 232.473 15.9141C232.668 15.9141 232.855 15.9023 233.035 15.8789C233.215 15.8555 233.359 15.832 233.469 15.8086L233.48 17.9648C233.246 18.0352 232.973 18.0977 232.66 18.1523C232.355 18.207 232.004 18.2344 231.605 18.2344C230.957 18.2344 230.383 18.1211 229.883 17.8945C229.383 17.6602 228.992 17.2812 228.711 16.7578C228.43 16.2344 228.289 15.5391 228.289 14.6719V2.21484ZM243.184 15.0117V5.32031H246.02V18H243.348L243.184 15.0117ZM243.582 12.375L244.531 12.3516C244.531 13.2031 244.438 13.9883 244.25 14.707C244.062 15.418 243.773 16.0391 243.383 16.5703C242.992 17.0938 242.492 17.5039 241.883 17.8008C241.273 18.0898 240.543 18.2344 239.691 18.2344C239.074 18.2344 238.508 18.1445 237.992 17.9648C237.477 17.7852 237.031 17.5078 236.656 17.1328C236.289 16.7578 236.004 16.2695 235.801 15.668C235.598 15.0664 235.496 14.3477 235.496 13.5117V5.32031H238.32V13.5352C238.32 13.9961 238.375 14.3828 238.484 14.6953C238.594 15 238.742 15.2461 238.93 15.4336C239.117 15.6211 239.336 15.7539 239.586 15.832C239.836 15.9102 240.102 15.9492 240.383 15.9492C241.188 15.9492 241.82 15.793 242.281 15.4805C242.75 15.1602 243.082 14.7305 243.277 14.1914C243.48 13.6523 243.582 13.0469 243.582 12.375ZM251.938 5.32031V18H249.102V5.32031H251.938ZM248.914 1.99219C248.914 1.5625 249.055 1.20703 249.336 0.925781C249.625 0.636719 250.023 0.492188 250.531 0.492188C251.031 0.492188 251.426 0.636719 251.715 0.925781C252.004 1.20703 252.148 1.5625 252.148 1.99219C252.148 2.41406 252.004 2.76562 251.715 3.04688C251.426 3.32812 251.031 3.46875 250.531 3.46875C250.023 3.46875 249.625 3.32812 249.336 3.04688C249.055 2.76562 248.914 2.41406 248.914 1.99219ZM260.844 5.32031V7.38281H253.695V5.32031H260.844ZM255.758 2.21484H258.582V14.4961C258.582 14.8867 258.637 15.1875 258.746 15.3984C258.863 15.6016 259.023 15.7383 259.227 15.8086C259.43 15.8789 259.668 15.9141 259.941 15.9141C260.137 15.9141 260.324 15.9023 260.504 15.8789C260.684 15.8555 260.828 15.832 260.938 15.8086L260.949 17.9648C260.715 18.0352 260.441 18.0977 260.129 18.1523C259.824 18.207 259.473 18.2344 259.074 18.2344C258.426 18.2344 257.852 18.1211 257.352 17.8945C256.852 17.6602 256.461 17.2812 256.18 16.7578C255.898 16.2344 255.758 15.5391 255.758 14.6719V2.21484ZM262.203 11.8008V11.5312C262.203 10.6172 262.336 9.76953 262.602 8.98828C262.867 8.19922 263.25 7.51562 263.75 6.9375C264.258 6.35156 264.875 5.89844 265.602 5.57812C266.336 5.25 267.164 5.08594 268.086 5.08594C269.016 5.08594 269.844 5.25 270.57 5.57812C271.305 5.89844 271.926 6.35156 272.434 6.9375C272.941 7.51562 273.328 8.19922 273.594 8.98828C273.859 9.76953 273.992 10.6172 273.992 11.5312V11.8008C273.992 12.7148 273.859 13.5625 273.594 14.3438C273.328 15.125 272.941 15.8086 272.434 16.3945C271.926 16.9727 271.309 17.4258 270.582 17.7539C269.855 18.0742 269.031 18.2344 268.109 18.2344C267.18 18.2344 266.348 18.0742 265.613 17.7539C264.887 17.4258 264.27 16.9727 263.762 16.3945C263.254 15.8086 262.867 15.125 262.602 14.3438C262.336 13.5625 262.203 12.7148 262.203 11.8008ZM265.027 11.5312V11.8008C265.027 12.3711 265.086 12.9102 265.203 13.418C265.32 13.9258 265.504 14.3711 265.754 14.7539C266.004 15.1367 266.324 15.4375 266.715 15.6562C267.105 15.875 267.57 15.9844 268.109 15.9844C268.633 15.9844 269.086 15.875 269.469 15.6562C269.859 15.4375 270.18 15.1367 270.43 14.7539C270.68 14.3711 270.863 13.9258 270.98 13.418C271.105 12.9102 271.168 12.3711 271.168 11.8008V11.5312C271.168 10.9688 271.105 10.4375 270.98 9.9375C270.863 9.42969 270.676 8.98047 270.418 8.58984C270.168 8.19922 269.848 7.89453 269.457 7.67578C269.074 7.44922 268.617 7.33594 268.086 7.33594C267.555 7.33594 267.094 7.44922 266.703 7.67578C266.32 7.89453 266.004 8.19922 265.754 8.58984C265.504 8.98047 265.32 9.42969 265.203 9.9375C265.086 10.4375 265.027 10.9688 265.027 11.5312ZM283.473 14.5664C283.473 14.2852 283.402 14.0312 283.262 13.8047C283.121 13.5703 282.852 13.3594 282.453 13.1719C282.062 12.9844 281.484 12.8125 280.719 12.6562C280.047 12.5078 279.43 12.332 278.867 12.1289C278.312 11.918 277.836 11.6641 277.438 11.3672C277.039 11.0703 276.73 10.7188 276.512 10.3125C276.293 9.90625 276.184 9.4375 276.184 8.90625C276.184 8.39062 276.297 7.90234 276.523 7.44141C276.75 6.98047 277.074 6.57422 277.496 6.22266C277.918 5.87109 278.43 5.59375 279.031 5.39062C279.641 5.1875 280.32 5.08594 281.07 5.08594C282.133 5.08594 283.043 5.26562 283.801 5.625C284.566 5.97656 285.152 6.45703 285.559 7.06641C285.965 7.66797 286.168 8.34766 286.168 9.10547H283.344C283.344 8.76953 283.258 8.45703 283.086 8.16797C282.922 7.87109 282.672 7.63281 282.336 7.45312C282 7.26562 281.578 7.17188 281.07 7.17188C280.586 7.17188 280.184 7.25 279.863 7.40625C279.551 7.55469 279.316 7.75 279.16 7.99219C279.012 8.23438 278.938 8.5 278.938 8.78906C278.938 9 278.977 9.19141 279.055 9.36328C279.141 9.52734 279.281 9.67969 279.477 9.82031C279.672 9.95312 279.938 10.0781 280.273 10.1953C280.617 10.3125 281.047 10.4258 281.562 10.5352C282.531 10.7383 283.363 11 284.059 11.3203C284.762 11.6328 285.301 12.0391 285.676 12.5391C286.051 13.0312 286.238 13.6562 286.238 14.4141C286.238 14.9766 286.117 15.4922 285.875 15.9609C285.641 16.4219 285.297 16.8242 284.844 17.168C284.391 17.5039 283.848 17.7656 283.215 17.9531C282.59 18.1406 281.887 18.2344 281.105 18.2344C279.957 18.2344 278.984 18.0312 278.188 17.625C277.391 17.2109 276.785 16.6836 276.371 16.043C275.965 15.3945 275.762 14.7227 275.762 14.0273H278.492C278.523 14.5508 278.668 14.9688 278.926 15.2812C279.191 15.5859 279.52 15.8086 279.91 15.9492C280.309 16.082 280.719 16.1484 281.141 16.1484C281.648 16.1484 282.074 16.082 282.418 15.9492C282.762 15.8086 283.023 15.6211 283.203 15.3867C283.383 15.1445 283.473 14.8711 283.473 14.5664ZM297.488 8.02734V18H294.664V5.32031H297.324L297.488 8.02734ZM296.984 11.1914L296.07 11.1797C296.078 10.2812 296.203 9.45703 296.445 8.70703C296.695 7.95703 297.039 7.3125 297.477 6.77344C297.922 6.23438 298.453 5.82031 299.07 5.53125C299.688 5.23438 300.375 5.08594 301.133 5.08594C301.742 5.08594 302.293 5.17188 302.785 5.34375C303.285 5.50781 303.711 5.77734 304.062 6.15234C304.422 6.52734 304.695 7.01562 304.883 7.61719C305.07 8.21094 305.164 8.94141 305.164 9.80859V18H302.328V9.79688C302.328 9.1875 302.238 8.70703 302.059 8.35547C301.887 7.99609 301.633 7.74219 301.297 7.59375C300.969 7.4375 300.559 7.35938 300.066 7.35938C299.582 7.35938 299.148 7.46094 298.766 7.66406C298.383 7.86719 298.059 8.14453 297.793 8.49609C297.535 8.84766 297.336 9.25391 297.195 9.71484C297.055 10.1758 296.984 10.668 296.984 11.1914ZM307.508 11.8008V11.5312C307.508 10.6172 307.641 9.76953 307.906 8.98828C308.172 8.19922 308.555 7.51562 309.055 6.9375C309.562 6.35156 310.18 5.89844 310.906 5.57812C311.641 5.25 312.469 5.08594 313.391 5.08594C314.32 5.08594 315.148 5.25 315.875 5.57812C316.609 5.89844 317.23 6.35156 317.738 6.9375C318.246 7.51562 318.633 8.19922 318.898 8.98828C319.164 9.76953 319.297 10.6172 319.297 11.5312V11.8008C319.297 12.7148 319.164 13.5625 318.898 14.3438C318.633 15.125 318.246 15.8086 317.738 16.3945C317.23 16.9727 316.613 17.4258 315.887 17.7539C315.16 18.0742 314.336 18.2344 313.414 18.2344C312.484 18.2344 311.652 18.0742 310.918 17.7539C310.191 17.4258 309.574 16.9727 309.066 16.3945C308.559 15.8086 308.172 15.125 307.906 14.3438C307.641 13.5625 307.508 12.7148 307.508 11.8008ZM310.332 11.5312V11.8008C310.332 12.3711 310.391 12.9102 310.508 13.418C310.625 13.9258 310.809 14.3711 311.059 14.7539C311.309 15.1367 311.629 15.4375 312.02 15.6562C312.41 15.875 312.875 15.9844 313.414 15.9844C313.938 15.9844 314.391 15.875 314.773 15.6562C315.164 15.4375 315.484 15.1367 315.734 14.7539C315.984 14.3711 316.168 13.9258 316.285 13.418C316.41 12.9102 316.473 12.3711 316.473 11.8008V11.5312C316.473 10.9688 316.41 10.4375 316.285 9.9375C316.168 9.42969 315.98 8.98047 315.723 8.58984C315.473 8.19922 315.152 7.89453 314.762 7.67578C314.379 7.44922 313.922 7.33594 313.391 7.33594C312.859 7.33594 312.398 7.44922 312.008 7.67578C311.625 7.89453 311.309 8.19922 311.059 8.58984C310.809 8.98047 310.625 9.42969 310.508 9.9375C310.391 10.4375 310.332 10.9688 310.332 11.5312ZM334.754 14.5664C334.754 14.2852 334.684 14.0312 334.543 13.8047C334.402 13.5703 334.133 13.3594 333.734 13.1719C333.344 12.9844 332.766 12.8125 332 12.6562C331.328 12.5078 330.711 12.332 330.148 12.1289C329.594 11.918 329.117 11.6641 328.719 11.3672C328.32 11.0703 328.012 10.7188 327.793 10.3125C327.574 9.90625 327.465 9.4375 327.465 8.90625C327.465 8.39062 327.578 7.90234 327.805 7.44141C328.031 6.98047 328.355 6.57422 328.777 6.22266C329.199 5.87109 329.711 5.59375 330.312 5.39062C330.922 5.1875 331.602 5.08594 332.352 5.08594C333.414 5.08594 334.324 5.26562 335.082 5.625C335.848 5.97656 336.434 6.45703 336.84 7.06641C337.246 7.66797 337.449 8.34766 337.449 9.10547H334.625C334.625 8.76953 334.539 8.45703 334.367 8.16797C334.203 7.87109 333.953 7.63281 333.617 7.45312C333.281 7.26562 332.859 7.17188 332.352 7.17188C331.867 7.17188 331.465 7.25 331.145 7.40625C330.832 7.55469 330.598 7.75 330.441 7.99219C330.293 8.23438 330.219 8.5 330.219 8.78906C330.219 9 330.258 9.19141 330.336 9.36328C330.422 9.52734 330.562 9.67969 330.758 9.82031C330.953 9.95312 331.219 10.0781 331.555 10.1953C331.898 10.3125 332.328 10.4258 332.844 10.5352C333.812 10.7383 334.645 11 335.34 11.3203C336.043 11.6328 336.582 12.0391 336.957 12.5391C337.332 13.0312 337.52 13.6562 337.52 14.4141C337.52 14.9766 337.398 15.4922 337.156 15.9609C336.922 16.4219 336.578 16.8242 336.125 17.168C335.672 17.5039 335.129 17.7656 334.496 17.9531C333.871 18.1406 333.168 18.2344 332.387 18.2344C331.238 18.2344 330.266 18.0312 329.469 17.625C328.672 17.2109 328.066 16.6836 327.652 16.043C327.246 15.3945 327.043 14.7227 327.043 14.0273H329.773C329.805 14.5508 329.949 14.9688 330.207 15.2812C330.473 15.5859 330.801 15.8086 331.191 15.9492C331.59 16.082 332 16.1484 332.422 16.1484C332.93 16.1484 333.355 16.082 333.699 15.9492C334.043 15.8086 334.305 15.6211 334.484 15.3867C334.664 15.1445 334.754 14.8711 334.754 14.5664ZM345.582 18.2344C344.645 18.2344 343.797 18.082 343.039 17.7773C342.289 17.4648 341.648 17.0312 341.117 16.4766C340.594 15.9219 340.191 15.2695 339.91 14.5195C339.629 13.7695 339.488 12.9609 339.488 12.0938V11.625C339.488 10.6328 339.633 9.73438 339.922 8.92969C340.211 8.125 340.613 7.4375 341.129 6.86719C341.645 6.28906 342.254 5.84766 342.957 5.54297C343.66 5.23828 344.422 5.08594 345.242 5.08594C346.148 5.08594 346.941 5.23828 347.621 5.54297C348.301 5.84766 348.863 6.27734 349.309 6.83203C349.762 7.37891 350.098 8.03125 350.316 8.78906C350.543 9.54688 350.656 10.3828 350.656 11.2969V12.5039H340.859V10.4766H347.867V10.2539C347.852 9.74609 347.75 9.26953 347.562 8.82422C347.383 8.37891 347.105 8.01953 346.73 7.74609C346.355 7.47266 345.855 7.33594 345.23 7.33594C344.762 7.33594 344.344 7.4375 343.977 7.64062C343.617 7.83594 343.316 8.12109 343.074 8.49609C342.832 8.87109 342.645 9.32422 342.512 9.85547C342.387 10.3789 342.324 10.9688 342.324 11.625V12.0938C342.324 12.6484 342.398 13.1641 342.547 13.6406C342.703 14.1094 342.93 14.5195 343.227 14.8711C343.523 15.2227 343.883 15.5 344.305 15.7031C344.727 15.8984 345.207 15.9961 345.746 15.9961C346.426 15.9961 347.031 15.8594 347.562 15.5859C348.094 15.3125 348.555 14.9258 348.945 14.4258L350.434 15.8672C350.16 16.2656 349.805 16.6484 349.367 17.0156C348.93 17.375 348.395 17.668 347.762 17.8945C347.137 18.1211 346.41 18.2344 345.582 18.2344ZM360.488 15.0117V5.32031H363.324V18H360.652L360.488 15.0117ZM360.887 12.375L361.836 12.3516C361.836 13.2031 361.742 13.9883 361.555 14.707C361.367 15.418 361.078 16.0391 360.688 16.5703C360.297 17.0938 359.797 17.5039 359.188 17.8008C358.578 18.0898 357.848 18.2344 356.996 18.2344C356.379 18.2344 355.812 18.1445 355.297 17.9648C354.781 17.7852 354.336 17.5078 353.961 17.1328C353.594 16.7578 353.309 16.2695 353.105 15.668C352.902 15.0664 352.801 14.3477 352.801 13.5117V5.32031H355.625V13.5352C355.625 13.9961 355.68 14.3828 355.789 14.6953C355.898 15 356.047 15.2461 356.234 15.4336C356.422 15.6211 356.641 15.7539 356.891 15.832C357.141 15.9102 357.406 15.9492 357.688 15.9492C358.492 15.9492 359.125 15.793 359.586 15.4805C360.055 15.1602 360.387 14.7305 360.582 14.1914C360.785 13.6523 360.887 13.0469 360.887 12.375ZM377.785 18.2344C376.848 18.2344 376 18.082 375.242 17.7773C374.492 17.4648 373.852 17.0312 373.32 16.4766C372.797 15.9219 372.395 15.2695 372.113 14.5195C371.832 13.7695 371.691 12.9609 371.691 12.0938V11.625C371.691 10.6328 371.836 9.73438 372.125 8.92969C372.414 8.125 372.816 7.4375 373.332 6.86719C373.848 6.28906 374.457 5.84766 375.16 5.54297C375.863 5.23828 376.625 5.08594 377.445 5.08594C378.352 5.08594 379.145 5.23828 379.824 5.54297C380.504 5.84766 381.066 6.27734 381.512 6.83203C381.965 7.37891 382.301 8.03125 382.52 8.78906C382.746 9.54688 382.859 10.3828 382.859 11.2969V12.5039H373.062V10.4766H380.07V10.2539C380.055 9.74609 379.953 9.26953 379.766 8.82422C379.586 8.37891 379.309 8.01953 378.934 7.74609C378.559 7.47266 378.059 7.33594 377.434 7.33594C376.965 7.33594 376.547 7.4375 376.18 7.64062C375.82 7.83594 375.52 8.12109 375.277 8.49609C375.035 8.87109 374.848 9.32422 374.715 9.85547C374.59 10.3789 374.527 10.9688 374.527 11.625V12.0938C374.527 12.6484 374.602 13.1641 374.75 13.6406C374.906 14.1094 375.133 14.5195 375.43 14.8711C375.727 15.2227 376.086 15.5 376.508 15.7031C376.93 15.8984 377.41 15.9961 377.949 15.9961C378.629 15.9961 379.234 15.8594 379.766 15.5859C380.297 15.3125 380.758 14.9258 381.148 14.4258L382.637 15.8672C382.363 16.2656 382.008 16.6484 381.57 17.0156C381.133 17.375 380.598 17.668 379.965 17.8945C379.34 18.1211 378.613 18.2344 377.785 18.2344ZM387.887 7.89844V18H385.062V5.32031H387.723L387.887 7.89844ZM387.43 11.1914L386.469 11.1797C386.469 10.3047 386.578 9.49609 386.797 8.75391C387.016 8.01172 387.336 7.36719 387.758 6.82031C388.18 6.26562 388.703 5.83984 389.328 5.54297C389.961 5.23828 390.691 5.08594 391.52 5.08594C392.098 5.08594 392.625 5.17188 393.102 5.34375C393.586 5.50781 394.004 5.76953 394.355 6.12891C394.715 6.48828 394.988 6.94922 395.176 7.51172C395.371 8.07422 395.469 8.75391 395.469 9.55078V18H392.645V9.79688C392.645 9.17969 392.551 8.69531 392.363 8.34375C392.184 7.99219 391.922 7.74219 391.578 7.59375C391.242 7.4375 390.84 7.35938 390.371 7.35938C389.84 7.35938 389.387 7.46094 389.012 7.66406C388.645 7.86719 388.344 8.14453 388.109 8.49609C387.875 8.84766 387.703 9.25391 387.594 9.71484C387.484 10.1758 387.43 10.668 387.43 11.1914ZM395.293 10.4414L393.969 10.7344C393.969 9.96875 394.074 9.24609 394.285 8.56641C394.504 7.87891 394.82 7.27734 395.234 6.76172C395.656 6.23828 396.176 5.82812 396.793 5.53125C397.41 5.23438 398.117 5.08594 398.914 5.08594C399.562 5.08594 400.141 5.17578 400.648 5.35547C401.164 5.52734 401.602 5.80078 401.961 6.17578C402.32 6.55078 402.594 7.03906 402.781 7.64062C402.969 8.23438 403.062 8.95312 403.062 9.79688V18H400.227V9.78516C400.227 9.14453 400.133 8.64844 399.945 8.29688C399.766 7.94531 399.508 7.70312 399.172 7.57031C398.836 7.42969 398.434 7.35938 397.965 7.35938C397.527 7.35938 397.141 7.44141 396.805 7.60547C396.477 7.76172 396.199 7.98438 395.973 8.27344C395.746 8.55469 395.574 8.87891 395.457 9.24609C395.348 9.61328 395.293 10.0117 395.293 10.4414ZM413.117 15.457V9.41016C413.117 8.95703 413.035 8.56641 412.871 8.23828C412.707 7.91016 412.457 7.65625 412.121 7.47656C411.793 7.29688 411.379 7.20703 410.879 7.20703C410.418 7.20703 410.02 7.28516 409.684 7.44141C409.348 7.59766 409.086 7.80859 408.898 8.07422C408.711 8.33984 408.617 8.64062 408.617 8.97656H405.805C405.805 8.47656 405.926 7.99219 406.168 7.52344C406.41 7.05469 406.762 6.63672 407.223 6.26953C407.684 5.90234 408.234 5.61328 408.875 5.40234C409.516 5.19141 410.234 5.08594 411.031 5.08594C411.984 5.08594 412.828 5.24609 413.562 5.56641C414.305 5.88672 414.887 6.37109 415.309 7.01953C415.738 7.66016 415.953 8.46484 415.953 9.43359V15.0703C415.953 15.6484 415.992 16.168 416.07 16.6289C416.156 17.082 416.277 17.4766 416.434 17.8125V18H413.539C413.406 17.6953 413.301 17.3086 413.223 16.8398C413.152 16.3633 413.117 15.9023 413.117 15.457ZM413.527 10.2891L413.551 12.0352H411.523C411 12.0352 410.539 12.0859 410.141 12.1875C409.742 12.2812 409.41 12.4219 409.145 12.6094C408.879 12.7969 408.68 13.0234 408.547 13.2891C408.414 13.5547 408.348 13.8555 408.348 14.1914C408.348 14.5273 408.426 14.8359 408.582 15.1172C408.738 15.3906 408.965 15.6055 409.262 15.7617C409.566 15.918 409.934 15.9961 410.363 15.9961C410.941 15.9961 411.445 15.8789 411.875 15.6445C412.312 15.4023 412.656 15.1094 412.906 14.7656C413.156 14.4141 413.289 14.082 413.305 13.7695L414.219 15.0234C414.125 15.3438 413.965 15.6875 413.738 16.0547C413.512 16.4219 413.215 16.7734 412.848 17.1094C412.488 17.4375 412.055 17.707 411.547 17.918C411.047 18.1289 410.469 18.2344 409.812 18.2344C408.984 18.2344 408.246 18.0703 407.598 17.7422C406.949 17.4062 406.441 16.957 406.074 16.3945C405.707 15.8242 405.523 15.1797 405.523 14.4609C405.523 13.7891 405.648 13.1953 405.898 12.6797C406.156 12.1562 406.531 11.7188 407.023 11.3672C407.523 11.0156 408.133 10.75 408.852 10.5703C409.57 10.3828 410.391 10.2891 411.312 10.2891H413.527ZM421.93 5.32031V18H419.094V5.32031H421.93ZM418.906 1.99219C418.906 1.5625 419.047 1.20703 419.328 0.925781C419.617 0.636719 420.016 0.492188 420.523 0.492188C421.023 0.492188 421.418 0.636719 421.707 0.925781C421.996 1.20703 422.141 1.5625 422.141 1.99219C422.141 2.41406 421.996 2.76562 421.707 3.04688C421.418 3.32812 421.023 3.46875 420.523 3.46875C420.016 3.46875 419.617 3.32812 419.328 3.04688C419.047 2.76562 418.906 2.41406 418.906 1.99219ZM428.047 0V18H425.211V0H428.047Z" fill="black"/>
</svg>
