<svg width="87" height="19" viewBox="0 0 87 19" fill="none" xmlns="http://www.w3.org/2000/svg">
<path d="M10.0898 13.4648C10.0898 13.1992 10.0508 12.9609 9.97266 12.75C9.89453 12.5312 9.75 12.3281 9.53906 12.1406C9.32812 11.9531 9.02344 11.7656 8.625 11.5781C8.23438 11.3828 7.71875 11.1797 7.07812 10.9688C6.32812 10.7188 5.60547 10.4375 4.91016 10.125C4.21484 9.80469 3.59375 9.43359 3.04688 9.01172C2.5 8.58203 2.06641 8.08203 1.74609 7.51172C1.42578 6.93359 1.26562 6.26172 1.26562 5.49609C1.26562 4.76172 1.42969 4.10156 1.75781 3.51562C2.08594 2.92187 2.54297 2.41797 3.12891 2.00391C3.72266 1.58203 4.41797 1.26172 5.21484 1.04297C6.01172 0.816406 6.88281 0.703125 7.82812 0.703125C9.07812 0.703125 10.1797 0.921875 11.1328 1.35938C12.0938 1.78906 12.8438 2.40234 13.3828 3.19922C13.9297 3.98828 14.2031 4.92188 14.2031 6H10.1133C10.1133 5.57031 10.0234 5.19141 9.84375 4.86328C9.67188 4.53516 9.41016 4.27734 9.05859 4.08984C8.70703 3.90234 8.26562 3.80859 7.73438 3.80859C7.21875 3.80859 6.78516 3.88672 6.43359 4.04297C6.08203 4.19922 5.81641 4.41016 5.63672 4.67578C5.45703 4.93359 5.36719 5.21875 5.36719 5.53125C5.36719 5.78906 5.4375 6.02344 5.57812 6.23438C5.72656 6.4375 5.93359 6.62891 6.19922 6.80859C6.47266 6.98828 6.80078 7.16016 7.18359 7.32422C7.57422 7.48828 8.01172 7.64844 8.49609 7.80469C9.40234 8.09375 10.207 8.41797 10.9102 8.77734C11.6211 9.12891 12.2188 9.53125 12.7031 9.98438C13.1953 10.4297 13.5664 10.9375 13.8164 11.5078C14.0742 12.0781 14.2031 12.7227 14.2031 13.4414C14.2031 14.207 14.0547 14.8867 13.7578 15.4805C13.4609 16.0742 13.0352 16.5781 12.4805 16.9922C11.9258 17.3984 11.2617 17.707 10.4883 17.918C9.71484 18.1289 8.85156 18.2344 7.89844 18.2344C7.02344 18.2344 6.16016 18.125 5.30859 17.9062C4.46484 17.6797 3.69922 17.3359 3.01172 16.875C2.32422 16.4062 1.77344 15.8086 1.35938 15.082C0.953125 14.3477 0.75 13.4766 0.75 12.4688H4.875C4.875 12.9688 4.94141 13.3906 5.07422 13.7344C5.20703 14.0781 5.40234 14.3555 5.66016 14.5664C5.91797 14.7695 6.23438 14.918 6.60938 15.0117C6.98438 15.0977 7.41406 15.1406 7.89844 15.1406C8.42188 15.1406 8.84375 15.0664 9.16406 14.918C9.48438 14.7617 9.71875 14.5586 9.86719 14.3086C10.0156 14.0508 10.0898 13.7695 10.0898 13.4648ZM22.7227 14.8125V9.58594C22.7227 9.22656 22.6719 8.91797 22.5703 8.66016C22.4688 8.40234 22.3086 8.20312 22.0898 8.0625C21.8711 7.91406 21.5781 7.83984 21.2109 7.83984C20.9141 7.83984 20.6602 7.89062 20.4492 7.99219C20.2383 8.09375 20.0781 8.24609 19.9688 8.44922C19.8594 8.65234 19.8047 8.91016 19.8047 9.22266H15.8555C15.8555 8.63672 15.9844 8.09375 16.2422 7.59375C16.5078 7.08594 16.8828 6.64453 17.3672 6.26953C17.8594 5.89453 18.4453 5.60547 19.125 5.40234C19.8125 5.19141 20.5781 5.08594 21.4219 5.08594C22.4297 5.08594 23.3281 5.25391 24.1172 5.58984C24.9141 5.92578 25.543 6.42969 26.0039 7.10156C26.4648 7.76562 26.6953 8.60156 26.6953 9.60938V14.8008C26.6953 15.6289 26.7422 16.2578 26.8359 16.6875C26.9297 17.1094 27.0625 17.4805 27.2344 17.8008V18H23.2734C23.0859 17.6094 22.9453 17.1328 22.8516 16.5703C22.7656 16 22.7227 15.4141 22.7227 14.8125ZM23.2031 10.2539L23.2266 12.3633H21.4805C21.1133 12.3633 20.8008 12.4141 20.543 12.5156C20.293 12.6172 20.0898 12.7578 19.9336 12.9375C19.7852 13.1094 19.6758 13.3047 19.6055 13.5234C19.543 13.7422 19.5117 13.9727 19.5117 14.2148C19.5117 14.4492 19.5664 14.6602 19.6758 14.8477C19.793 15.0273 19.9492 15.168 20.1445 15.2695C20.3398 15.3711 20.5586 15.4219 20.8008 15.4219C21.2383 15.4219 21.6094 15.3398 21.9141 15.1758C22.2266 15.0039 22.4648 14.7969 22.6289 14.5547C22.793 14.3125 22.875 14.0859 22.875 13.875L23.7422 15.4922C23.5859 15.8047 23.4062 16.1211 23.2031 16.4414C23.0078 16.7617 22.7617 17.0586 22.4648 17.332C22.1758 17.5977 21.8203 17.8164 21.3984 17.9883C20.9766 18.1523 20.4648 18.2344 19.8633 18.2344C19.082 18.2344 18.3633 18.0742 17.707 17.7539C17.0586 17.4336 16.5391 16.9883 16.1484 16.418C15.7578 15.8398 15.5625 15.1758 15.5625 14.4258C15.5625 13.7695 15.6797 13.1836 15.9141 12.668C16.1562 12.1523 16.5195 11.7148 17.0039 11.3555C17.4883 10.9961 18.1055 10.7227 18.8555 10.5352C19.6055 10.3477 20.4883 10.2539 21.5039 10.2539H23.2031ZM32.2383 5.32031L34.0195 8.8125L35.8594 5.32031H39.9609L36.6328 11.4961L40.1367 18H36L34.0195 14.25L32.0508 18H27.9141L31.418 11.4961L28.1016 5.32031H32.2383ZM53.8242 14.8125V9.58594C53.8242 9.22656 53.7734 8.91797 53.6719 8.66016C53.5703 8.40234 53.4102 8.20312 53.1914 8.0625C52.9727 7.91406 52.6797 7.83984 52.3125 7.83984C52.0156 7.83984 51.7617 7.89062 51.5508 7.99219C51.3398 8.09375 51.1797 8.24609 51.0703 8.44922C50.9609 8.65234 50.9062 8.91016 50.9062 9.22266H46.957C46.957 8.63672 47.0859 8.09375 47.3438 7.59375C47.6094 7.08594 47.9844 6.64453 48.4688 6.26953C48.9609 5.89453 49.5469 5.60547 50.2266 5.40234C50.9141 5.19141 51.6797 5.08594 52.5234 5.08594C53.5312 5.08594 54.4297 5.25391 55.2188 5.58984C56.0156 5.92578 56.6445 6.42969 57.1055 7.10156C57.5664 7.76562 57.7969 8.60156 57.7969 9.60938V14.8008C57.7969 15.6289 57.8438 16.2578 57.9375 16.6875C58.0312 17.1094 58.1641 17.4805 58.3359 17.8008V18H54.375C54.1875 17.6094 54.0469 17.1328 53.9531 16.5703C53.8672 16 53.8242 15.4141 53.8242 14.8125ZM54.3047 10.2539L54.3281 12.3633H52.582C52.2148 12.3633 51.9023 12.4141 51.6445 12.5156C51.3945 12.6172 51.1914 12.7578 51.0352 12.9375C50.8867 13.1094 50.7773 13.3047 50.707 13.5234C50.6445 13.7422 50.6133 13.9727 50.6133 14.2148C50.6133 14.4492 50.668 14.6602 50.7773 14.8477C50.8945 15.0273 51.0508 15.168 51.2461 15.2695C51.4414 15.3711 51.6602 15.4219 51.9023 15.4219C52.3398 15.4219 52.7109 15.3398 53.0156 15.1758C53.3281 15.0039 53.5664 14.7969 53.7305 14.5547C53.8945 14.3125 53.9766 14.0859 53.9766 13.875L54.8438 15.4922C54.6875 15.8047 54.5078 16.1211 54.3047 16.4414C54.1094 16.7617 53.8633 17.0586 53.5664 17.332C53.2773 17.5977 52.9219 17.8164 52.5 17.9883C52.0781 18.1523 51.5664 18.2344 50.9648 18.2344C50.1836 18.2344 49.4648 18.0742 48.8086 17.7539C48.1602 17.4336 47.6406 16.9883 47.25 16.418C46.8594 15.8398 46.6641 15.1758 46.6641 14.4258C46.6641 13.7695 46.7812 13.1836 47.0156 12.668C47.2578 12.1523 47.6211 11.7148 48.1055 11.3555C48.5898 10.9961 49.207 10.7227 49.957 10.5352C50.707 10.3477 51.5898 10.2539 52.6055 10.2539H54.3047ZM64.1602 0V18H60.1992V0H64.1602ZM73.2773 5.32031V8.0625H65.6367V5.32031H73.2773ZM67.2422 2.16797H71.1914V13.8633C71.1914 14.1992 71.2305 14.4609 71.3086 14.6484C71.3867 14.8281 71.5195 14.957 71.707 15.0352C71.9023 15.1055 72.1602 15.1406 72.4805 15.1406C72.707 15.1406 72.8945 15.1367 73.043 15.1289C73.1914 15.1133 73.332 15.0938 73.4648 15.0703V17.8945C73.1289 18.0039 72.7773 18.0859 72.4102 18.1406C72.043 18.2031 71.6523 18.2344 71.2383 18.2344C70.3945 18.2344 69.6719 18.1016 69.0703 17.8359C68.4766 17.5703 68.0234 17.1523 67.7109 16.582C67.3984 16.0117 67.2422 15.2695 67.2422 14.3555V2.16797ZM74.0039 11.7891V11.543C74.0039 10.6133 74.1367 9.75781 74.4023 8.97656C74.668 8.1875 75.0586 7.50391 75.5742 6.92578C76.0898 6.34766 76.7266 5.89844 77.4844 5.57812C78.2422 5.25 79.1172 5.08594 80.1094 5.08594C81.1094 5.08594 81.9883 5.25 82.7461 5.57812C83.5117 5.89844 84.1523 6.34766 84.668 6.92578C85.1836 7.50391 85.5742 8.1875 85.8398 8.97656C86.1055 9.75781 86.2383 10.6133 86.2383 11.543V11.7891C86.2383 12.7109 86.1055 13.5664 85.8398 14.3555C85.5742 15.1367 85.1836 15.8203 84.668 16.4062C84.1523 16.9844 83.5156 17.4336 82.7578 17.7539C82 18.0742 81.125 18.2344 80.1328 18.2344C79.1406 18.2344 78.2617 18.0742 77.4961 17.7539C76.7305 17.4336 76.0898 16.9844 75.5742 16.4062C75.0586 15.8203 74.668 15.1367 74.4023 14.3555C74.1367 13.5664 74.0039 12.7109 74.0039 11.7891ZM77.9531 11.543V11.7891C77.9531 12.2656 77.9883 12.7109 78.0586 13.125C78.1289 13.5391 78.2461 13.9023 78.4102 14.2148C78.5742 14.5195 78.7969 14.7578 79.0781 14.9297C79.3594 15.1016 79.7109 15.1875 80.1328 15.1875C80.5469 15.1875 80.8906 15.1016 81.1641 14.9297C81.4453 14.7578 81.668 14.5195 81.832 14.2148C81.9961 13.9023 82.1133 13.5391 82.1836 13.125C82.2539 12.7109 82.2891 12.2656 82.2891 11.7891V11.543C82.2891 11.082 82.2539 10.6484 82.1836 10.2422C82.1133 9.82812 81.9961 9.46484 81.832 9.15234C81.668 8.83203 81.4453 8.58203 81.1641 8.40234C80.8828 8.22266 80.5312 8.13281 80.1094 8.13281C79.6953 8.13281 79.3477 8.22266 79.0664 8.40234C78.793 8.58203 78.5742 8.83203 78.4102 9.15234C78.2461 9.46484 78.1289 9.82812 78.0586 10.2422C77.9883 10.6484 77.9531 11.082 77.9531 11.543Z" fill="black"/>
</svg>
