<svg width="159" height="19" viewBox="0 0 159 19" fill="none" xmlns="http://www.w3.org/2000/svg">
<path d="M9.5625 0.9375V18H5.44922V0.9375H9.5625ZM14.6953 0.9375V4.11328H0.433594V0.9375H14.6953ZM21.3398 18.2344C20.3086 18.2344 19.3867 18.0742 18.5742 17.7539C17.7617 17.4258 17.0742 16.9766 16.5117 16.4062C15.957 15.8359 15.5312 15.1797 15.2344 14.4375C14.9453 13.6953 14.8008 12.9102 14.8008 12.082V11.6367C14.8008 10.707 14.9297 9.84766 15.1875 9.05859C15.4453 8.26172 15.8281 7.56641 16.3359 6.97266C16.8438 6.37891 17.4805 5.91797 18.2461 5.58984C19.0117 5.25391 19.9023 5.08594 20.918 5.08594C21.8164 5.08594 22.6211 5.23047 23.332 5.51953C24.043 5.80859 24.6445 6.22266 25.1367 6.76172C25.6367 7.30078 26.0156 7.95312 26.2734 8.71875C26.5391 9.48438 26.6719 10.3438 26.6719 11.2969V12.9023H16.3125V10.4297H22.8164V10.125C22.8242 9.70312 22.75 9.34375 22.5938 9.04688C22.4453 8.75 22.2266 8.52344 21.9375 8.36719C21.6484 8.21094 21.2969 8.13281 20.8828 8.13281C20.4531 8.13281 20.0977 8.22656 19.8164 8.41406C19.543 8.60156 19.3281 8.85938 19.1719 9.1875C19.0234 9.50781 18.918 9.87891 18.8555 10.3008C18.793 10.7227 18.7617 11.168 18.7617 11.6367V12.082C18.7617 12.5508 18.8242 12.9766 18.9492 13.3594C19.082 13.7422 19.2695 14.0703 19.5117 14.3438C19.7617 14.6094 20.0586 14.8164 20.4023 14.9648C20.7539 15.1133 21.1523 15.1875 21.5977 15.1875C22.1367 15.1875 22.668 15.0859 23.1914 14.8828C23.7148 14.6797 24.1641 14.3438 24.5391 13.875L26.332 16.0078C26.0742 16.375 25.707 16.7305 25.2305 17.0742C24.7617 17.418 24.1992 17.6992 23.543 17.918C22.8867 18.1289 22.1523 18.2344 21.3398 18.2344ZM27.7852 11.7891V11.543C27.7852 10.6133 27.918 9.75781 28.1836 8.97656C28.4492 8.1875 28.8398 7.50391 29.3555 6.92578C29.8711 6.34766 30.5078 5.89844 31.2656 5.57812C32.0234 5.25 32.8984 5.08594 33.8906 5.08594C34.8906 5.08594 35.7695 5.25 36.5273 5.57812C37.293 5.89844 37.9336 6.34766 38.4492 6.92578C38.9648 7.50391 39.3555 8.1875 39.6211 8.97656C39.8867 9.75781 40.0195 10.6133 40.0195 11.543V11.7891C40.0195 12.7109 39.8867 13.5664 39.6211 14.3555C39.3555 15.1367 38.9648 15.8203 38.4492 16.4062C37.9336 16.9844 37.2969 17.4336 36.5391 17.7539C35.7812 18.0742 34.9062 18.2344 33.9141 18.2344C32.9219 18.2344 32.043 18.0742 31.2773 17.7539C30.5117 17.4336 29.8711 16.9844 29.3555 16.4062C28.8398 15.8203 28.4492 15.1367 28.1836 14.3555C27.918 13.5664 27.7852 12.7109 27.7852 11.7891ZM31.7344 11.543V11.7891C31.7344 12.2656 31.7695 12.7109 31.8398 13.125C31.9102 13.5391 32.0273 13.9023 32.1914 14.2148C32.3555 14.5195 32.5781 14.7578 32.8594 14.9297C33.1406 15.1016 33.4922 15.1875 33.9141 15.1875C34.3281 15.1875 34.6719 15.1016 34.9453 14.9297C35.2266 14.7578 35.4492 14.5195 35.6133 14.2148C35.7773 13.9023 35.8945 13.5391 35.9648 13.125C36.0352 12.7109 36.0703 12.2656 36.0703 11.7891V11.543C36.0703 11.082 36.0352 10.6484 35.9648 10.2422C35.8945 9.82812 35.7773 9.46484 35.6133 9.15234C35.4492 8.83203 35.2266 8.58203 34.9453 8.40234C34.6641 8.22266 34.3125 8.13281 33.8906 8.13281C33.4766 8.13281 33.1289 8.22266 32.8477 8.40234C32.5742 8.58203 32.3555 8.83203 32.1914 9.15234C32.0273 9.46484 31.9102 9.82812 31.8398 10.2422C31.7695 10.6484 31.7344 11.082 31.7344 11.543ZM45.7617 8.46094V18H41.8125V5.32031H45.5039L45.7617 8.46094ZM49.5117 5.22656L49.4414 8.89453C49.2852 8.87891 49.0742 8.85938 48.8086 8.83594C48.543 8.8125 48.3203 8.80078 48.1406 8.80078C47.6797 8.80078 47.2812 8.85547 46.9453 8.96484C46.6172 9.06641 46.3438 9.22266 46.125 9.43359C45.9141 9.63672 45.7578 9.89453 45.6562 10.207C45.5625 10.5195 45.5195 10.8828 45.5273 11.2969L44.8125 10.8281C44.8125 9.97656 44.8945 9.20312 45.0586 8.50781C45.2305 7.80469 45.4727 7.19922 45.7852 6.69141C46.0977 6.17578 46.4766 5.78125 46.9219 5.50781C47.3672 5.22656 47.8672 5.08594 48.4219 5.08594C48.6172 5.08594 48.8086 5.09766 48.9961 5.12109C49.1914 5.14453 49.3633 5.17969 49.5117 5.22656ZM55.043 5.32031V18H51.082V5.32031H55.043ZM50.8477 2.05078C50.8477 1.48828 51.0508 1.02734 51.457 0.667969C51.8633 0.308594 52.3906 0.128906 53.0391 0.128906C53.6875 0.128906 54.2148 0.308594 54.6211 0.667969C55.0273 1.02734 55.2305 1.48828 55.2305 2.05078C55.2305 2.61328 55.0273 3.07422 54.6211 3.43359C54.2148 3.79297 53.6875 3.97266 53.0391 3.97266C52.3906 3.97266 51.8633 3.79297 51.457 3.43359C51.0508 3.07422 50.8477 2.61328 50.8477 2.05078ZM64.0664 14.8125V9.58594C64.0664 9.22656 64.0156 8.91797 63.9141 8.66016C63.8125 8.40234 63.6523 8.20312 63.4336 8.0625C63.2148 7.91406 62.9219 7.83984 62.5547 7.83984C62.2578 7.83984 62.0039 7.89062 61.793 7.99219C61.582 8.09375 61.4219 8.24609 61.3125 8.44922C61.2031 8.65234 61.1484 8.91016 61.1484 9.22266H57.1992C57.1992 8.63672 57.3281 8.09375 57.5859 7.59375C57.8516 7.08594 58.2266 6.64453 58.7109 6.26953C59.2031 5.89453 59.7891 5.60547 60.4688 5.40234C61.1562 5.19141 61.9219 5.08594 62.7656 5.08594C63.7734 5.08594 64.6719 5.25391 65.4609 5.58984C66.2578 5.92578 66.8867 6.42969 67.3477 7.10156C67.8086 7.76562 68.0391 8.60156 68.0391 9.60938V14.8008C68.0391 15.6289 68.0859 16.2578 68.1797 16.6875C68.2734 17.1094 68.4062 17.4805 68.5781 17.8008V18H64.6172C64.4297 17.6094 64.2891 17.1328 64.1953 16.5703C64.1094 16 64.0664 15.4141 64.0664 14.8125ZM64.5469 10.2539L64.5703 12.3633H62.8242C62.457 12.3633 62.1445 12.4141 61.8867 12.5156C61.6367 12.6172 61.4336 12.7578 61.2773 12.9375C61.1289 13.1094 61.0195 13.3047 60.9492 13.5234C60.8867 13.7422 60.8555 13.9727 60.8555 14.2148C60.8555 14.4492 60.9102 14.6602 61.0195 14.8477C61.1367 15.0273 61.293 15.168 61.4883 15.2695C61.6836 15.3711 61.9023 15.4219 62.1445 15.4219C62.582 15.4219 62.9531 15.3398 63.2578 15.1758C63.5703 15.0039 63.8086 14.7969 63.9727 14.5547C64.1367 14.3125 64.2188 14.0859 64.2188 13.875L65.0859 15.4922C64.9297 15.8047 64.75 16.1211 64.5469 16.4414C64.3516 16.7617 64.1055 17.0586 63.8086 17.332C63.5195 17.5977 63.1641 17.8164 62.7422 17.9883C62.3203 18.1523 61.8086 18.2344 61.207 18.2344C60.4258 18.2344 59.707 18.0742 59.0508 17.7539C58.4023 17.4336 57.8828 16.9883 57.4922 16.418C57.1016 15.8398 56.9062 15.1758 56.9062 14.4258C56.9062 13.7695 57.0234 13.1836 57.2578 12.668C57.5 12.1523 57.8633 11.7148 58.3477 11.3555C58.832 10.9961 59.4492 10.7227 60.1992 10.5352C60.9492 10.3477 61.832 10.2539 62.8477 10.2539H64.5469ZM80.1914 8.00391V18H76.2422V5.32031H79.9453L80.1914 8.00391ZM79.7109 11.2266L78.8086 11.25C78.8086 10.3594 78.9141 9.53906 79.125 8.78906C79.3359 8.03906 79.6484 7.38672 80.0625 6.83203C80.4766 6.27734 80.9844 5.84766 81.5859 5.54297C82.1953 5.23828 82.8984 5.08594 83.6953 5.08594C84.25 5.08594 84.7539 5.17188 85.207 5.34375C85.6602 5.50781 86.0508 5.76953 86.3789 6.12891C86.707 6.48047 86.957 6.94141 87.1289 7.51172C87.3086 8.07422 87.3984 8.75 87.3984 9.53906V18H83.4492V10.043C83.4492 9.50391 83.3867 9.09766 83.2617 8.82422C83.1445 8.55078 82.9727 8.36719 82.7461 8.27344C82.5195 8.17969 82.2422 8.13281 81.9141 8.13281C81.5703 8.13281 81.2617 8.21094 80.9883 8.36719C80.7148 8.52344 80.4805 8.74219 80.2852 9.02344C80.0977 9.29688 79.9531 9.62109 79.8516 9.99609C79.7578 10.3711 79.7109 10.7812 79.7109 11.2266ZM86.9531 11.2266L85.8516 11.25C85.8516 10.3594 85.9492 9.53906 86.1445 8.78906C86.3477 8.03906 86.6484 7.38672 87.0469 6.83203C87.4531 6.27734 87.957 5.84766 88.5586 5.54297C89.1602 5.23828 89.8594 5.08594 90.6562 5.08594C91.2344 5.08594 91.7656 5.17188 92.25 5.34375C92.7344 5.51562 93.1523 5.79297 93.5039 6.17578C93.8555 6.55859 94.1289 7.06641 94.3242 7.69922C94.5195 8.32422 94.6172 9.09766 94.6172 10.0195V18H90.6562V10.0195C90.6562 9.49609 90.5938 9.10156 90.4688 8.83594C90.3516 8.5625 90.1797 8.37891 89.9531 8.28516C89.7266 8.18359 89.457 8.13281 89.1445 8.13281C88.7695 8.13281 88.4453 8.21094 88.1719 8.36719C87.8984 8.52344 87.668 8.74219 87.4805 9.02344C87.3008 9.29688 87.168 9.62109 87.082 9.99609C86.9961 10.3711 86.9531 10.7812 86.9531 11.2266ZM104.285 14.918V5.32031H108.246V18H104.543L104.285 14.918ZM104.66 12.3398L105.691 12.3164C105.691 13.168 105.59 13.957 105.387 14.6836C105.184 15.4023 104.883 16.0273 104.484 16.5586C104.094 17.0898 103.609 17.5039 103.031 17.8008C102.461 18.0898 101.801 18.2344 101.051 18.2344C100.426 18.2344 99.8516 18.1484 99.3281 17.9766C98.8125 17.7969 98.3672 17.5195 97.9922 17.1445C97.6172 16.7617 97.3242 16.2734 97.1133 15.6797C96.9102 15.0781 96.8086 14.3594 96.8086 13.5234V5.32031H100.758V13.5469C100.758 13.8281 100.793 14.0703 100.863 14.2734C100.934 14.4766 101.035 14.6484 101.168 14.7891C101.301 14.9219 101.465 15.0234 101.66 15.0938C101.863 15.1562 102.094 15.1875 102.352 15.1875C102.945 15.1875 103.41 15.0625 103.746 14.8125C104.082 14.5625 104.316 14.2227 104.449 13.793C104.59 13.3633 104.66 12.8789 104.66 12.3398ZM117.07 14.4375C117.07 14.2188 116.996 14.0312 116.848 13.875C116.707 13.7109 116.457 13.5625 116.098 13.4297C115.738 13.2891 115.234 13.1484 114.586 13.0078C113.969 12.875 113.387 12.6992 112.84 12.4805C112.301 12.2617 111.828 11.9961 111.422 11.6836C111.016 11.3711 110.695 11 110.461 10.5703C110.234 10.1406 110.121 9.64844 110.121 9.09375C110.121 8.55469 110.234 8.04688 110.461 7.57031C110.695 7.08594 111.035 6.66016 111.48 6.29297C111.934 5.91797 112.484 5.625 113.133 5.41406C113.781 5.19531 114.52 5.08594 115.348 5.08594C116.488 5.08594 117.473 5.26172 118.301 5.61328C119.129 5.95703 119.766 6.44141 120.211 7.06641C120.664 7.68359 120.891 8.39844 120.891 9.21094H116.941C116.941 8.89062 116.887 8.61719 116.777 8.39062C116.676 8.16406 116.508 7.99219 116.273 7.875C116.039 7.75 115.727 7.6875 115.336 7.6875C115.062 7.6875 114.812 7.73828 114.586 7.83984C114.367 7.94141 114.191 8.08203 114.059 8.26172C113.926 8.44141 113.859 8.65234 113.859 8.89453C113.859 9.06641 113.898 9.22266 113.977 9.36328C114.062 9.49609 114.191 9.62109 114.363 9.73828C114.535 9.84766 114.754 9.94922 115.02 10.043C115.285 10.1289 115.605 10.207 115.98 10.2773C116.832 10.4336 117.629 10.6562 118.371 10.9453C119.113 11.2344 119.715 11.6445 120.176 12.1758C120.645 12.707 120.879 13.4219 120.879 14.3203C120.879 14.8828 120.75 15.4023 120.492 15.8789C120.234 16.3477 119.863 16.7617 119.379 17.1211C118.895 17.4727 118.312 17.7461 117.633 17.9414C116.953 18.1367 116.188 18.2344 115.336 18.2344C114.125 18.2344 113.102 18.0195 112.266 17.5898C111.43 17.1523 110.797 16.6055 110.367 15.9492C109.945 15.2852 109.734 14.6133 109.734 13.9336H113.414C113.43 14.3242 113.523 14.6445 113.695 14.8945C113.875 15.1445 114.113 15.3281 114.41 15.4453C114.707 15.5625 115.051 15.6211 115.441 15.6211C115.801 15.6211 116.098 15.5703 116.332 15.4688C116.574 15.3672 116.758 15.2305 116.883 15.0586C117.008 14.8789 117.07 14.6719 117.07 14.4375ZM126.902 5.32031V18H122.941V5.32031H126.902ZM122.707 2.05078C122.707 1.48828 122.91 1.02734 123.316 0.667969C123.723 0.308594 124.25 0.128906 124.898 0.128906C125.547 0.128906 126.074 0.308594 126.48 0.667969C126.887 1.02734 127.09 1.48828 127.09 2.05078C127.09 2.61328 126.887 3.07422 126.48 3.43359C126.074 3.79297 125.547 3.97266 124.898 3.97266C124.25 3.97266 123.723 3.79297 123.316 3.43359C122.91 3.07422 122.707 2.61328 122.707 2.05078ZM134.695 15.1875C135.062 15.1875 135.375 15.1211 135.633 14.9883C135.898 14.8477 136.098 14.6523 136.23 14.4023C136.371 14.1445 136.438 13.8359 136.43 13.4766H140.145C140.152 14.4297 139.918 15.2656 139.441 15.9844C138.973 16.6953 138.332 17.25 137.52 17.6484C136.715 18.0391 135.805 18.2344 134.789 18.2344C133.797 18.2344 132.93 18.0742 132.188 17.7539C131.445 17.4258 130.824 16.9727 130.324 16.3945C129.832 15.8086 129.461 15.125 129.211 14.3438C128.969 13.5625 128.848 12.7148 128.848 11.8008V11.5312C128.848 10.6172 128.969 9.76953 129.211 8.98828C129.461 8.19922 129.832 7.51562 130.324 6.9375C130.824 6.35156 131.441 5.89844 132.176 5.57812C132.918 5.25 133.781 5.08594 134.766 5.08594C135.82 5.08594 136.75 5.28516 137.555 5.68359C138.367 6.08203 139.004 6.66016 139.465 7.41797C139.926 8.17578 140.152 9.09375 140.145 10.1719H136.43C136.438 9.78906 136.379 9.44531 136.254 9.14062C136.129 8.83594 135.934 8.59375 135.668 8.41406C135.41 8.22656 135.078 8.13281 134.672 8.13281C134.266 8.13281 133.938 8.22266 133.688 8.40234C133.438 8.58203 133.246 8.83203 133.113 9.15234C132.988 9.46484 132.902 9.82422 132.855 10.2305C132.816 10.6367 132.797 11.0703 132.797 11.5312V11.8008C132.797 12.2695 132.816 12.7109 132.855 13.125C132.902 13.5312 132.992 13.8906 133.125 14.2031C133.258 14.5078 133.449 14.75 133.699 14.9297C133.949 15.1016 134.281 15.1875 134.695 15.1875ZM148.418 14.8125V9.58594C148.418 9.22656 148.367 8.91797 148.266 8.66016C148.164 8.40234 148.004 8.20312 147.785 8.0625C147.566 7.91406 147.273 7.83984 146.906 7.83984C146.609 7.83984 146.355 7.89062 146.145 7.99219C145.934 8.09375 145.773 8.24609 145.664 8.44922C145.555 8.65234 145.5 8.91016 145.5 9.22266H141.551C141.551 8.63672 141.68 8.09375 141.938 7.59375C142.203 7.08594 142.578 6.64453 143.062 6.26953C143.555 5.89453 144.141 5.60547 144.82 5.40234C145.508 5.19141 146.273 5.08594 147.117 5.08594C148.125 5.08594 149.023 5.25391 149.812 5.58984C150.609 5.92578 151.238 6.42969 151.699 7.10156C152.16 7.76562 152.391 8.60156 152.391 9.60938V14.8008C152.391 15.6289 152.438 16.2578 152.531 16.6875C152.625 17.1094 152.758 17.4805 152.93 17.8008V18H148.969C148.781 17.6094 148.641 17.1328 148.547 16.5703C148.461 16 148.418 15.4141 148.418 14.8125ZM148.898 10.2539L148.922 12.3633H147.176C146.809 12.3633 146.496 12.4141 146.238 12.5156C145.988 12.6172 145.785 12.7578 145.629 12.9375C145.48 13.1094 145.371 13.3047 145.301 13.5234C145.238 13.7422 145.207 13.9727 145.207 14.2148C145.207 14.4492 145.262 14.6602 145.371 14.8477C145.488 15.0273 145.645 15.168 145.84 15.2695C146.035 15.3711 146.254 15.4219 146.496 15.4219C146.934 15.4219 147.305 15.3398 147.609 15.1758C147.922 15.0039 148.16 14.7969 148.324 14.5547C148.488 14.3125 148.57 14.0859 148.57 13.875L149.438 15.4922C149.281 15.8047 149.102 16.1211 148.898 16.4414C148.703 16.7617 148.457 17.0586 148.16 17.332C147.871 17.5977 147.516 17.8164 147.094 17.9883C146.672 18.1523 146.16 18.2344 145.559 18.2344C144.777 18.2344 144.059 18.0742 143.402 17.7539C142.754 17.4336 142.234 16.9883 141.844 16.418C141.453 15.8398 141.258 15.1758 141.258 14.4258C141.258 13.7695 141.375 13.1836 141.609 12.668C141.852 12.1523 142.215 11.7148 142.699 11.3555C143.184 10.9961 143.801 10.7227 144.551 10.5352C145.301 10.3477 146.184 10.2539 147.199 10.2539H148.898ZM158.754 0V18H154.793V0H158.754Z" fill="black"/>
</svg>
